Crimson Text-Bold Italic.ufo
<glyph name="exclam" format="1">
  <advance width="197"/>
  <unicode hex="0021"/>
  <note>
    exclam
  </note>
  <outline>
    <contour>
      <point x="91" y="190" type="curve" smooth="yes"/>
      <point x="104" y="190"/>
      <point x="112" y="199"/>
      <point x="120" y="221" type="curve" smooth="yes"/>
      <point x="148" y="306"/>
      <point x="221" y="528"/>
      <point x="230" y="575" type="curve" smooth="yes"/>
      <point x="238" y="616"/>
      <point x="213" y="642"/>
      <point x="180" y="642" type="curve" smooth="yes"/>
      <point x="143" y="642"/>
      <point x="110" y="616"/>
      <point x="102" y="575" type="curve" smooth="yes"/>
      <point x="93" y="528"/>
      <point x="78" y="306"/>
      <point x="73" y="220" type="curve" smooth="yes"/>
      <point x="72" y="199"/>
      <point x="78" y="190"/>
    </contour>
    <contour>
      <point x="55" y="-11" type="curve" smooth="yes"/>
      <point x="98" y="-11"/>
      <point x="138" y="34"/>
      <point x="138" y="81" type="curve" smooth="yes"/>
      <point x="138" y="114"/>
      <point x="115" y="139"/>
      <point x="83" y="139" type="curve" smooth="yes"/>
      <point x="30" y="139"/>
      <point x="-2" y="90"/>
      <point x="-2" y="48" type="curve" smooth="yes"/>
      <point x="-2" y="17"/>
      <point x="16" y="-11"/>
    </contour>
  </outline>
</glyph>
<glyph name="numbersign" format="1">
  <advance width="472"/>
  <unicode hex="0023"/>
  <note>
    numbersign
  </note>
  <outline>
    <contour>
      <point x="227" y="533" type="line"/>
      <point x="43" y="0" type="line"/>
      <point x="110" y="0" type="line"/>
      <point x="294" y="533" type="line"/>
    </contour>
    <contour>
      <point x="378" y="533" type="line"/>
      <point x="194" y="0" type="line"/>
      <point x="261" y="0" type="line"/>
      <point x="445" y="533" type="line"/>
    </contour>
    <contour>
      <point x="59" y="378" type="line"/>
      <point x="46" y="314" type="line"/>
      <point x="462" y="314" type="line"/>
      <point x="475" y="378" type="line"/>
    </contour>
    <contour>
      <point x="31" y="234" type="line"/>
      <point x="18" y="170" type="line"/>
      <point x="434" y="170" type="line"/>
      <point x="447" y="234" type="line"/>
    </contour>
  </outline>
</glyph>
<glyph name="dollar" format="1">
  <advance width="497"/>
  <unicode hex="0024"/>
  <note>
    dollar
  </note>
  <outline>
    <contour>
      <point x="377" y="758" type="line"/>
      <point x="90" y="-100" type="line"/>
      <point x="150" y="-100" type="line"/>
      <point x="437" y="758" type="line"/>
    </contour>
    <contour>
      <point x="184" y="-10" type="curve" smooth="yes"/>
      <point x="315" y="-10"/>
      <point x="440" y="86"/>
      <point x="440" y="219" type="curve" smooth="yes"/>
      <point x="440" y="280"/>
      <point x="406" y="322"/>
      <point x="323" y="383" type="curve" smooth="yes"/>
      <point x="249" y="438"/>
      <point x="229" y="470"/>
      <point x="229" y="515" type="curve" smooth="yes"/>
      <point x="229" y="573"/>
      <point x="269" y="617"/>
      <point x="329" y="617" type="curve" smooth="yes"/>
      <point x="390" y="617"/>
      <point x="420" y="565"/>
      <point x="424" y="473" type="curve"/>
      <point x="424" y="468"/>
      <point x="431" y="466"/>
      <point x="445" y="466" type="curve" smooth="yes"/>
      <point x="457" y="466"/>
      <point x="466" y="469"/>
      <point x="470" y="476" type="curve"/>
      <point x="479" y="522"/>
      <point x="486" y="577"/>
      <point x="492" y="642" type="curve"/>
      <point x="437" y="662"/>
      <point x="385" y="670"/>
      <point x="349" y="670" type="curve" smooth="yes"/>
      <point x="224" y="670"/>
      <point x="96" y="575"/>
      <point x="96" y="447" type="curve" smooth="yes"/>
      <point x="96" y="386"/>
      <point x="129" y="340"/>
      <point x="202" y="286" type="curve" smooth="yes"/>
      <point x="271" y="235"/>
      <point x="300" y="199"/>
      <point x="300" y="146" type="curve" smooth="yes"/>
      <point x="300" y="91"/>
      <point x="257" y="43"/>
      <point x="198" y="43" type="curve" smooth="yes"/>
      <point x="120" y="43"/>
      <point x="78" y="109"/>
      <point x="78" y="186" type="curve" smooth="yes"/>
      <point x="78" y="190"/>
      <point x="69" y="192"/>
      <point x="53" y="192" type="curve" smooth="yes"/>
      <point x="38" y="192"/>
      <point x="31" y="189"/>
      <point x="27" y="182" type="curve"/>
      <point x="21" y="151"/>
      <point x="15" y="59"/>
      <point x="18" y="16" type="curve"/>
      <point x="89" y="1"/>
      <point x="127" y="-10"/>
    </contour>
  </outline>
</glyph>
<glyph name="percent" format="1">
  <advance width="705"/>
  <unicode hex="0025"/>
  <note>
    percent
  </note>
  <outline>
    <contour>
      <point x="719" y="638" type="line"/>
      <point x="641" y="638" type="line"/>
      <point x="25" y="0" type="line"/>
      <point x="103" y="0" type="line"/>
    </contour>
    <contour>
      <point x="252" y="601" type="curve" smooth="yes"/>
      <point x="278" y="601"/>
      <point x="298" y="576"/>
      <point x="298" y="525" type="curve" smooth="yes"/>
      <point x="298" y="469"/>
      <point x="274" y="363"/>
      <point x="226" y="363" type="curve" smooth="yes"/>
      <point x="199" y="363"/>
      <point x="181" y="387"/>
      <point x="181" y="438" type="curve" smooth="yes"/>
      <point x="181" y="496"/>
      <point x="204" y="601"/>
    </contour>
    <contour>
      <point x="263" y="644" type="curve" smooth="yes"/>
      <point x="165" y="644"/>
      <point x="88" y="549"/>
      <point x="88" y="450" type="curve" smooth="yes"/>
      <point x="88" y="374"/>
      <point x="137" y="320"/>
      <point x="213" y="320" type="curve" smooth="yes"/>
      <point x="311" y="320"/>
      <point x="388" y="413"/>
      <point x="388" y="512" type="curve" smooth="yes"/>
      <point x="388" y="585"/>
      <point x="337" y="644"/>
    </contour>
    <contour>
      <point x="518" y="271" type="curve" smooth="yes"/>
      <point x="544" y="271"/>
      <point x="564" y="246"/>
      <point x="564" y="195" type="curve" smooth="yes"/>
      <point x="564" y="139"/>
      <point x="540" y="33"/>
      <point x="492" y="33" type="curve" smooth="yes"/>
      <point x="465" y="33"/>
      <point x="447" y="57"/>
      <point x="447" y="108" type="curve" smooth="yes"/>
      <point x="447" y="166"/>
      <point x="470" y="271"/>
    </contour>
    <contour>
      <point x="529" y="314" type="curve" smooth="yes"/>
      <point x="431" y="314"/>
      <point x="354" y="219"/>
      <point x="354" y="120" type="curve" smooth="yes"/>
      <point x="354" y="44"/>
      <point x="403" y="-10"/>
      <point x="479" y="-10" type="curve" smooth="yes"/>
      <point x="577" y="-10"/>
      <point x="654" y="83"/>
      <point x="654" y="182" type="curve" smooth="yes"/>
      <point x="654" y="255"/>
      <point x="603" y="314"/>
    </contour>
  </outline>
</glyph>
<glyph name="ampersand" format="1">
  <advance width="649"/>
  <unicode hex="0026"/>
  <note>
    ampersand
  </note>
  <outline>
    <contour>
      <point x="272" y="-14" type="curve" smooth="yes"/>
      <point x="431" y="-14"/>
      <point x="570" y="97"/>
      <point x="570" y="224" type="curve" smooth="yes"/>
      <point x="570" y="270"/>
      <point x="551" y="310"/>
      <point x="513" y="344" type="curve"/>
      <point x="526" y="343"/>
      <point x="535" y="342"/>
      <point x="539" y="342" type="curve" smooth="yes"/>
      <point x="604" y="342"/>
      <point x="646" y="382"/>
      <point x="646" y="444" type="curve" smooth="yes"/>
      <point x="646" y="511"/>
      <point x="610" y="546"/>
      <point x="541" y="546" type="curve" smooth="yes"/>
      <point x="505" y="546"/>
      <point x="479" y="526"/>
      <point x="479" y="499" type="curve" smooth="yes"/>
      <point x="479" y="473"/>
      <point x="498" y="452"/>
      <point x="521" y="452" type="curve" smooth="yes"/>
      <point x="541" y="452"/>
      <point x="553" y="474"/>
      <point x="570" y="474" type="curve" smooth="yes"/>
      <point x="590" y="474"/>
      <point x="603" y="462"/>
      <point x="603" y="444" type="curve" smooth="yes"/>
      <point x="603" y="407"/>
      <point x="575" y="384"/>
      <point x="531" y="384" type="curve" smooth="yes"/>
      <point x="512" y="384"/>
      <point x="453" y="386"/>
      <point x="445" y="386" type="curve" smooth="yes"/>
      <point x="365" y="386"/>
      <point x="299" y="327"/>
      <point x="299" y="256" type="curve" smooth="yes"/>
      <point x="299" y="211"/>
      <point x="342" y="157"/>
      <point x="378" y="157" type="curve" smooth="yes"/>
      <point x="404" y="157"/>
      <point x="421" y="180"/>
      <point x="421" y="217" type="curve" smooth="yes"/>
      <point x="421" y="265"/>
      <point x="349" y="242"/>
      <point x="349" y="280" type="curve" smooth="yes"/>
      <point x="349" y="308"/>
      <point x="376" y="329"/>
      <point x="411" y="329" type="curve" smooth="yes"/>
      <point x="446" y="329"/>
      <point x="468" y="293"/>
      <point x="468" y="237" type="curve" smooth="yes"/>
      <point x="468" y="127"/>
      <point x="386" y="40"/>
      <point x="284" y="40" type="curve" smooth="yes"/>
      <point x="195" y="40"/>
      <point x="137" y="105"/>
      <point x="137" y="204" type="curve" smooth="yes"/>
      <point x="137" y="270"/>
      <point x="152" y="316"/>
      <point x="182" y="341" type="curve"/>
      <point x="198" y="327"/>
      <point x="219" y="320"/>
      <point x="244" y="320" type="curve" smooth="yes"/>
      <point x="281" y="320"/>
      <point x="309" y="337"/>
      <point x="309" y="360" type="curve" smooth="yes"/>
      <point x="309" y="386"/>
      <point x="278" y="407"/>
      <point x="239" y="407" type="curve" smooth="yes"/>
      <point x="229" y="407"/>
      <point x="216" y="405"/>
      <point x="199" y="400" type="curve"/>
      <point x="180" y="417"/>
      <point x="170" y="439"/>
      <point x="170" y="466" type="curve" smooth="yes"/>
      <point x="170" y="531"/>
      <point x="216" y="584"/>
      <point x="272" y="584" type="curve" smooth="yes"/>
      <point x="313" y="584"/>
      <point x="343" y="554"/>
      <point x="343" y="514" type="curve" smooth="yes"/>
      <point x="343" y="488"/>
      <point x="335" y="477"/>
      <point x="335" y="469" type="curve" smooth="yes"/>
      <point x="335" y="463"/>
      <point x="340" y="460"/>
      <point x="349" y="460" type="curve" smooth="yes"/>
      <point x="374" y="460"/>
      <point x="409" y="508"/>
      <point x="409" y="543" type="curve" smooth="yes"/>
      <point x="409" y="597"/>
      <point x="358" y="635"/>
      <point x="284" y="635" type="curve" smooth="yes"/>
      <point x="181" y="635"/>
      <point x="100" y="566"/>
      <point x="100" y="479" type="curve" smooth="yes"/>
      <point x="100" y="444"/>
      <point x="117" y="411"/>
      <point x="150" y="381" type="curve"/>
      <point x="76" y="352"/>
      <point x="17" y="270"/>
      <point x="17" y="196" type="curve" smooth="yes"/>
      <point x="17" y="78"/>
      <point x="129" y="-14"/>
    </contour>
  </outline>
</glyph>
<glyph name="parenleft" format="1">
  <advance width="309"/>
  <unicode hex="0028"/>
  <note>
    parenleft
  </note>
  <outline>
    <contour>
      <point x="208" y="-125" type="curve"/>
      <point x="233" y="-97" type="line"/>
      <point x="183" y="-50"/>
      <point x="155" y="51"/>
      <point x="155" y="159" type="curve" smooth="yes"/>
      <point x="155" y="357"/>
      <point x="245" y="625"/>
      <point x="392" y="721" type="curve"/>
      <point x="378" y="749" type="line"/>
      <point x="193" y="670"/>
      <point x="35" y="433"/>
      <point x="35" y="221" type="curve" smooth="yes"/>
      <point x="35" y="77"/>
      <point x="105" y="-71"/>
    </contour>
  </outline>
</glyph>
<glyph name="parenright" format="1">
  <advance width="309"/>
  <unicode hex="0029"/>
  <note>
    parenright
  </note>
  <outline>
    <contour>
      <point x="136" y="749" type="curve"/>
      <point x="111" y="721" type="line"/>
      <point x="161" y="674"/>
      <point x="189" y="573"/>
      <point x="189" y="465" type="curve" smooth="yes"/>
      <point x="189" y="267"/>
      <point x="99" y="-1"/>
      <point x="-48" y="-97" type="curve"/>
      <point x="-34" y="-125" type="line"/>
      <point x="151" y="-46"/>
      <point x="309" y="191"/>
      <point x="309" y="403" type="curve" smooth="yes"/>
      <point x="309" y="547"/>
      <point x="239" y="695"/>
    </contour>
  </outline>
</glyph>
<glyph name="asterisk" format="1">
  <advance width="436"/>
  <unicode hex="002A"/>
  <note>
    asterisk
  </note>
  <outline>
    <contour>
      <point x="354" y="620" type="curve" smooth="yes"/>
      <point x="343" y="611"/>
      <point x="333" y="592"/>
      <point x="318" y="567" type="curve" smooth="yes"/>
      <point x="301" y="540"/>
      <point x="292" y="525"/>
      <point x="286" y="517" type="curve" smooth="yes"/>
      <point x="281" y="510"/>
      <point x="278" y="508"/>
      <point x="276" y="508" type="curve" smooth="yes"/>
      <point x="274" y="508"/>
      <point x="271" y="511"/>
      <point x="269" y="515" type="curve" smooth="yes"/>
      <point x="261" y="534"/>
      <point x="256" y="554"/>
      <point x="252" y="577" type="curve" smooth="yes"/>
      <point x="248" y="600"/>
      <point x="242" y="623"/>
      <point x="234" y="638" type="curve" smooth="yes"/>
      <point x="226" y="654"/>
      <point x="210" y="665"/>
      <point x="193" y="665" type="curve" smooth="yes"/>
      <point x="170" y="665"/>
      <point x="152" y="645"/>
      <point x="152" y="621" type="curve" smooth="yes"/>
      <point x="152" y="602"/>
      <point x="166" y="579"/>
      <point x="195" y="550" type="curve" smooth="yes"/>
      <point x="220" y="525"/>
      <point x="236" y="503"/>
      <point x="236" y="493" type="curve" smooth="yes"/>
      <point x="236" y="489"/>
      <point x="227" y="487"/>
      <point x="207" y="487" type="curve" smooth="yes"/>
      <point x="178" y="487"/>
      <point x="144" y="495"/>
      <point x="117" y="495" type="curve" smooth="yes"/>
      <point x="82" y="495"/>
      <point x="59" y="478"/>
      <point x="59" y="452" type="curve" smooth="yes"/>
      <point x="59" y="428"/>
      <point x="80" y="408"/>
      <point x="105" y="408" type="curve" smooth="yes"/>
      <point x="119" y="408"/>
      <point x="140" y="415"/>
      <point x="171" y="430" type="curve" smooth="yes"/>
      <point x="190" y="439"/>
      <point x="216" y="452"/>
      <point x="235" y="452" type="curve" smooth="yes"/>
      <point x="238" y="452"/>
      <point x="240" y="449"/>
      <point x="240" y="445" type="curve" smooth="yes"/>
      <point x="240" y="437"/>
      <point x="234" y="421"/>
      <point x="217" y="382" type="curve" smooth="yes"/>
      <point x="200" y="346"/>
      <point x="194" y="326"/>
      <point x="194" y="311" type="curve" smooth="yes"/>
      <point x="194" y="287"/>
      <point x="211" y="270"/>
      <point x="235" y="270" type="curve" smooth="yes"/>
      <point x="266" y="270"/>
      <point x="282" y="291"/>
      <point x="282" y="330" type="curve" smooth="yes"/>
      <point x="282" y="349"/>
      <point x="274" y="405"/>
      <point x="274" y="430" type="curve" smooth="yes"/>
      <point x="274" y="436"/>
      <point x="279" y="442"/>
      <point x="284" y="442" type="curve" smooth="yes"/>
      <point x="291" y="442"/>
      <point x="315" y="424"/>
      <point x="340" y="400" type="curve" smooth="yes"/>
      <point x="375" y="367"/>
      <point x="395" y="355"/>
      <point x="414" y="355" type="curve" smooth="yes"/>
      <point x="438" y="355"/>
      <point x="457" y="373"/>
      <point x="457" y="395" type="curve" smooth="yes"/>
      <point x="457" y="413"/>
      <point x="447" y="429"/>
      <point x="432" y="437" type="curve" smooth="yes"/>
      <point x="416" y="446"/>
      <point x="394" y="452"/>
      <point x="371" y="455" type="curve" smooth="yes"/>
      <point x="333" y="461"/>
      <point x="303" y="471"/>
      <point x="303" y="478" type="curve" smooth="yes"/>
      <point x="303" y="486"/>
      <point x="315" y="495"/>
      <point x="360" y="520" type="curve" smooth="yes"/>
      <point x="412" y="549"/>
      <point x="429" y="567"/>
      <point x="429" y="592" type="curve" smooth="yes"/>
      <point x="429" y="615"/>
      <point x="411" y="633"/>
      <point x="388" y="633" type="curve" smooth="yes"/>
      <point x="376" y="633"/>
      <point x="365" y="629"/>
    </contour>
  </outline>
</glyph>
<glyph name="plus" format="1">
  <advance width="562"/>
  <unicode hex="002B"/>
  <note>
    plus
  </note>
  <outline>
    <contour>
      <point x="63" y="283" type="line"/>
      <point x="48" y="209" type="line"/>
      <point x="510" y="209" type="line"/>
      <point x="525" y="283" type="line"/>
    </contour>
    <contour>
      <point x="370" y="481" type="line"/>
      <point x="294" y="481" type="line"/>
      <point x="203" y="11" type="line"/>
      <point x="279" y="11" type="line"/>
    </contour>
  </outline>
</glyph>
<glyph name="comma" format="1">
  <advance width="197"/>
  <unicode hex="002C"/>
  <note>
    comma
  </note>
  <outline>
    <contour>
      <point x="-38" y="-167" type="curve"/>
      <point x="44" y="-118"/>
      <point x="136" y="-21"/>
      <point x="136" y="74" type="curve" smooth="yes"/>
      <point x="136" y="122"/>
      <point x="113" y="138"/>
      <point x="85" y="138" type="curve" smooth="yes"/>
      <point x="33" y="138"/>
      <point x="2" y="94"/>
      <point x="2" y="52" type="curve" smooth="yes"/>
      <point x="2" y="7"/>
      <point x="22" y="-3"/>
      <point x="22" y="-32" type="curve" smooth="yes"/>
      <point x="22" y="-71"/>
      <point x="6" y="-89"/>
      <point x="-54" y="-134" type="curve"/>
      <point x="-57" y="-147"/>
      <point x="-46" y="-167"/>
    </contour>
  </outline>
</glyph>
<glyph name="hyphen" format="1">
  <advance width="326"/>
  <unicode hex="002D"/>
  <note>
    hyphen
  </note>
  <outline>
    <contour>
      <point x="30" y="208" type="curve" smooth="yes"/>
      <point x="28" y="199"/>
      <point x="31" y="195"/>
      <point x="34" y="193" type="curve"/>
      <point x="282" y="204" type="line"/>
      <point x="290" y="216"/>
      <point x="296" y="237"/>
      <point x="302" y="263" type="curve" smooth="yes"/>
      <point x="304" y="271"/>
      <point x="303" y="277"/>
      <point x="299" y="279" type="curve"/>
      <point x="54" y="267" type="line"/>
      <point x="45" y="264"/>
      <point x="38" y="246"/>
    </contour>
  </outline>
</glyph>
<glyph name="period" format="1">
  <advance width="197"/>
  <unicode hex="002E"/>
  <note>
    period
  </note>
  <outline>
    <contour>
      <point x="55" y="-11" type="curve" smooth="yes"/>
      <point x="98" y="-11"/>
      <point x="138" y="34"/>
      <point x="138" y="81" type="curve" smooth="yes"/>
      <point x="138" y="114"/>
      <point x="115" y="139"/>
      <point x="83" y="139" type="curve" smooth="yes"/>
      <point x="30" y="139"/>
      <point x="-2" y="90"/>
      <point x="-2" y="48" type="curve" smooth="yes"/>
      <point x="-2" y="17"/>
      <point x="16" y="-11"/>
    </contour>
  </outline>
</glyph>
<glyph name="slash" format="1">
  <advance width="425"/>
  <unicode hex="002F"/>
  <note>
    slash
  </note>
  <outline>
    <contour>
      <point x="508" y="755" type="line"/>
      <point x="427" y="755" type="line"/>
      <point x="-27" y="-28" type="line"/>
      <point x="54" y="-28" type="line"/>
    </contour>
  </outline>
</glyph>
<glyph name="zero" format="1">
  <advance width="533"/>
  <unicode hex="0030"/>
  <note>
    zero
  </note>
  <outline>
    <contour>
      <point x="225" y="-3" type="curve" smooth="yes"/>
      <point x="394" y="-3"/>
      <point x="517" y="226"/>
      <point x="517" y="417" type="curve" smooth="yes"/>
      <point x="517" y="552"/>
      <point x="454" y="641"/>
      <point x="350" y="641" type="curve" smooth="yes"/>
      <point x="179" y="641"/>
      <point x="55" y="415"/>
      <point x="55" y="223" type="curve" smooth="yes"/>
      <point x="55" y="87"/>
      <point x="119" y="-3"/>
    </contour>
    <contour>
      <point x="236" y="46" type="curve" smooth="yes"/>
      <point x="195" y="46"/>
      <point x="181" y="107"/>
      <point x="181" y="180" type="curve" smooth="yes"/>
      <point x="181" y="330"/>
      <point x="249" y="594"/>
      <point x="342" y="594" type="curve" smooth="yes"/>
      <point x="381" y="594"/>
      <point x="394" y="544"/>
      <point x="394" y="479" type="curve" smooth="yes"/>
      <point x="394" y="328"/>
      <point x="325" y="46"/>
    </contour>
  </outline>
</glyph>
<glyph name="one" format="1">
  <advance width="367"/>
  <unicode hex="0031"/>
  <note>
    one
  </note>
  <outline>
    <contour>
      <point x="82" y="469" type="curve"/>
      <point x="123" y="491"/>
      <point x="148" y="502"/>
      <point x="158" y="502" type="curve" smooth="yes"/>
      <point x="171" y="502"/>
      <point x="175" y="485"/>
      <point x="169" y="452" type="curve" smooth="yes"/>
      <point x="103" y="116" type="line" smooth="yes"/>
      <point x="99" y="94"/>
      <point x="93" y="75"/>
      <point x="86" y="59" type="curve" smooth="yes"/>
      <point x="81" y="48"/>
      <point x="35" y="33"/>
      <point x="20" y="33" type="curve" smooth="yes"/>
      <point x="17" y="33"/>
      <point x="15" y="28"/>
      <point x="13" y="17" type="curve" smooth="yes"/>
      <point x="11" y="6"/>
      <point x="10" y="-1"/>
      <point x="13" y="-4" type="curve"/>
      <point x="26" y="-3"/>
      <point x="115" y="4"/>
      <point x="146" y="4" type="curve" smooth="yes"/>
      <point x="177" y="4"/>
      <point x="256" y="-3"/>
      <point x="271" y="-4" type="curve"/>
      <point x="272" y="-1"/>
      <point x="274" y="4"/>
      <point x="276" y="12" type="curve" smooth="yes"/>
      <point x="279" y="26"/>
      <point x="279" y="33"/>
      <point x="277" y="33" type="curve" smooth="yes"/>
      <point x="266" y="33"/>
      <point x="226" y="48"/>
      <point x="225" y="57" type="curve" smooth="yes"/>
      <point x="224" y="78"/>
      <point x="225" y="102"/>
      <point x="231" y="129" type="curve" smooth="yes"/>
      <point x="309" y="530" type="line" smooth="yes"/>
      <point x="317" y="573"/>
      <point x="326" y="605"/>
      <point x="336" y="624" type="curve"/>
      <point x="335" y="637"/>
      <point x="333" y="643"/>
      <point x="328" y="643" type="curve" smooth="yes"/>
      <point x="326" y="643" type="line"/>
      <point x="222" y="592"/>
      <point x="125" y="533"/>
      <point x="76" y="505" type="curve"/>
      <point x="75" y="504"/>
      <point x="73" y="500"/>
      <point x="71" y="493" type="curve" smooth="yes"/>
      <point x="69" y="486"/>
      <point x="75" y="473"/>
    </contour>
  </outline>
</glyph>
<glyph name="two" format="1">
  <advance width="457"/>
  <unicode hex="0032"/>
  <note>
    two
  </note>
  <outline>
    <contour>
      <point x="-25" y="0" type="curve"/>
      <point x="341" y="0" type="line" smooth="yes"/>
      <point x="348" y="0"/>
      <point x="353" y="5"/>
      <point x="355" y="14" type="curve"/>
      <point x="380" y="76"/>
      <point x="405" y="135"/>
      <point x="429" y="192" type="curve"/>
      <point x="425" y="196"/>
      <point x="417" y="198"/>
      <point x="407" y="198" type="curve" smooth="yes"/>
      <point x="397" y="198"/>
      <point x="391" y="196"/>
      <point x="389" y="191" type="curve" smooth="yes"/>
      <point x="358" y="122"/>
      <point x="332" y="97"/>
      <point x="289" y="97" type="curve" smooth="yes"/>
      <point x="88" y="97" type="line"/>
      <point x="90" y="91" type="line"/>
      <point x="342" y="278"/>
      <point x="435" y="391"/>
      <point x="435" y="508" type="curve" smooth="yes"/>
      <point x="435" y="587"/>
      <point x="375" y="642"/>
      <point x="288" y="642" type="curve" smooth="yes"/>
      <point x="206" y="642"/>
      <point x="130" y="594"/>
      <point x="82" y="513" type="curve"/>
      <point x="80" y="502"/>
      <point x="94" y="488"/>
      <point x="107" y="488" type="curve"/>
      <point x="151" y="540"/>
      <point x="192" y="559"/>
      <point x="223" y="559" type="curve" smooth="yes"/>
      <point x="267" y="559"/>
      <point x="295" y="528"/>
      <point x="295" y="478" type="curve" smooth="yes"/>
      <point x="295" y="392"/>
      <point x="211" y="251"/>
      <point x="-31" y="33" type="curve"/>
      <point x="-33" y="29"/>
      <point x="-33" y="9"/>
    </contour>
  </outline>
</glyph>
<glyph name="three" format="1">
  <advance width="447"/>
  <unicode hex="0033"/>
  <note>
    three
  </note>
  <outline>
    <contour>
      <point x="296" y="642" type="curve" smooth="yes"/>
      <point x="231" y="642"/>
      <point x="173" y="614"/>
      <point x="122" y="557" type="curve"/>
      <point x="120" y="547"/>
      <point x="131" y="530"/>
      <point x="140" y="530" type="curve"/>
      <point x="168" y="557"/>
      <point x="202" y="572"/>
      <point x="232" y="572" type="curve" smooth="yes"/>
      <point x="270" y="572"/>
      <point x="290" y="553"/>
      <point x="290" y="507" type="curve" smooth="yes"/>
      <point x="290" y="439"/>
      <point x="228" y="372"/>
      <point x="139" y="359" type="curve"/>
      <point x="136" y="354"/>
      <point x="135" y="349"/>
      <point x="134" y="344" type="curve" smooth="yes"/>
      <point x="131" y="330"/>
      <point x="131" y="320"/>
      <point x="135" y="314" type="curve"/>
      <point x="153" y="317"/>
      <point x="172" y="319"/>
      <point x="186" y="319" type="curve" smooth="yes"/>
      <point x="243" y="319"/>
      <point x="275" y="283"/>
      <point x="275" y="225" type="curve" smooth="yes"/>
      <point x="275" y="144"/>
      <point x="228" y="48"/>
      <point x="146" y="48" type="curve" smooth="yes"/>
      <point x="68" y="48"/>
      <point x="91" y="119"/>
      <point x="34" y="119" type="curve" smooth="yes"/>
      <point x="8" y="119"/>
      <point x="-18" y="99"/>
      <point x="-18" y="67" type="curve" smooth="yes"/>
      <point x="-18" y="20"/>
      <point x="26" y="-4"/>
      <point x="91" y="-4" type="curve" smooth="yes"/>
      <point x="248" y="-4"/>
      <point x="408" y="103"/>
      <point x="408" y="249" type="curve" smooth="yes"/>
      <point x="408" y="321"/>
      <point x="361" y="376"/>
      <point x="256" y="376" type="curve"/>
      <point x="251" y="364" type="line"/>
      <point x="334" y="385"/>
      <point x="408" y="471"/>
      <point x="408" y="539" type="curve" smooth="yes"/>
      <point x="408" y="604"/>
      <point x="363" y="642"/>
    </contour>
  </outline>
</glyph>
<glyph name="four" format="1">
  <advance width="492"/>
  <unicode hex="0034"/>
  <note>
    four
  </note>
  <outline>
    <contour>
      <point x="474" y="644" type="curve" smooth="yes"/>
      <point x="464" y="644"/>
      <point x="459" y="639"/>
      <point x="449" y="630" type="curve" smooth="yes"/>
      <point x="27" y="222" type="line"/>
      <point x="23" y="200"/>
      <point x="24" y="184"/>
      <point x="32" y="174" type="curve"/>
      <point x="281" y="174" type="line"/>
      <point x="249" y="8" type="line" smooth="yes"/>
      <point x="248" y="-1"/>
      <point x="266" y="-5"/>
      <point x="305" y="-5" type="curve" smooth="yes"/>
      <point x="333" y="-5"/>
      <point x="350" y="-2"/>
      <point x="367" y="4" type="curve"/>
      <point x="400" y="174" type="line"/>
      <point x="450" y="174" type="line"/>
      <point x="454" y="176"/>
      <point x="459" y="188"/>
      <point x="461" y="198" type="curve" smooth="yes"/>
      <point x="467" y="228"/>
      <point x="465" y="244"/>
      <point x="455" y="244" type="curve" smooth="yes"/>
      <point x="414" y="244" type="line"/>
      <point x="490" y="634" type="line" smooth="yes"/>
      <point x="491" y="641"/>
      <point x="486" y="644"/>
    </contour>
    <contour>
      <point x="295" y="244" type="line"/>
      <point x="101" y="244" type="line"/>
      <point x="91" y="217" type="line"/>
      <point x="356" y="473" type="line"/>
      <point x="340" y="475" type="line"/>
    </contour>
  </outline>
</glyph>
<glyph name="five" format="1">
  <advance width="448"/>
  <unicode hex="0035"/>
  <note>
    five
  </note>
  <outline>
    <contour>
      <point x="112" y="-3" type="curve" smooth="yes"/>
      <point x="268" y="-3"/>
      <point x="421" y="100"/>
      <point x="421" y="254" type="curve" smooth="yes"/>
      <point x="421" y="350"/>
      <point x="342" y="422"/>
      <point x="249" y="422" type="curve" smooth="yes"/>
      <point x="223" y="422"/>
      <point x="195" y="419"/>
      <point x="169" y="412" type="curve"/>
      <point x="216" y="540" type="line"/>
      <point x="204" y="532" type="line"/>
      <point x="298" y="532" type="line" smooth="yes"/>
      <point x="345" y="532"/>
      <point x="397" y="534"/>
      <point x="426" y="535" type="curve"/>
      <point x="435" y="548"/>
      <point x="444" y="573"/>
      <point x="451" y="609" type="curve" smooth="yes"/>
      <point x="454" y="624"/>
      <point x="453" y="635"/>
      <point x="450" y="643" type="curve"/>
      <point x="434" y="640"/>
      <point x="350" y="638"/>
      <point x="195" y="638" type="curve"/>
      <point x="78" y="328" type="line"/>
      <point x="81" y="323"/>
      <point x="86" y="318"/>
      <point x="93" y="313" type="curve"/>
      <point x="122" y="323"/>
      <point x="146" y="328"/>
      <point x="172" y="328" type="curve" smooth="yes"/>
      <point x="243" y="328"/>
      <point x="282" y="283"/>
      <point x="282" y="214" type="curve" smooth="yes"/>
      <point x="282" y="131"/>
      <point x="232" y="49"/>
      <point x="157" y="49" type="curve" smooth="yes"/>
      <point x="80" y="49"/>
      <point x="102" y="120"/>
      <point x="45" y="120" type="curve" smooth="yes"/>
      <point x="21" y="120"/>
      <point x="-7" y="98"/>
      <point x="-7" y="65" type="curve" smooth="yes"/>
      <point x="-7" y="23"/>
      <point x="26" y="-3"/>
    </contour>
  </outline>
</glyph>
<glyph name="six" format="1">
  <advance width="486"/>
  <unicode hex="0036"/>
  <note>
    six
  </note>
  <outline>
    <contour>
      <point x="212" y="-6" type="curve" smooth="yes"/>
      <point x="338" y="-6"/>
      <point x="448" y="116"/>
      <point x="448" y="239" type="curve" smooth="yes"/>
      <point x="448" y="319"/>
      <point x="389" y="382"/>
      <point x="312" y="382" type="curve" smooth="yes"/>
      <point x="289" y="382"/>
      <point x="240" y="369"/>
      <point x="211" y="354" type="curve"/>
      <point x="221" y="345" type="line"/>
      <point x="268" y="444"/>
      <point x="390" y="558"/>
      <point x="506" y="607" type="curve"/>
      <point x="509" y="622"/>
      <point x="502" y="640"/>
      <point x="492" y="646" type="curve"/>
      <point x="262" y="566"/>
      <point x="44" y="373"/>
      <point x="44" y="164" type="curve" smooth="yes"/>
      <point x="44" y="65"/>
      <point x="106" y="-6"/>
    </contour>
    <contour>
      <point x="218" y="46" type="curve" smooth="yes"/>
      <point x="192" y="46"/>
      <point x="169" y="88"/>
      <point x="169" y="151" type="curve" smooth="yes"/>
      <point x="169" y="193"/>
      <point x="183" y="246"/>
      <point x="199" y="287" type="curve" smooth="yes"/>
      <point x="209" y="307"/>
      <point x="225" y="319"/>
      <point x="241" y="319" type="curve" smooth="yes"/>
      <point x="287" y="319"/>
      <point x="315" y="276"/>
      <point x="315" y="213" type="curve" smooth="yes"/>
      <point x="315" y="144"/>
      <point x="273" y="46"/>
    </contour>
  </outline>
</glyph>
<glyph name="seven" format="1">
  <advance width="470"/>
  <unicode hex="0037"/>
  <note>
    seven
  </note>
  <outline>
    <contour>
      <point x="118" y="-11" type="curve" smooth="yes"/>
      <point x="121" y="-11"/>
      <point x="123" y="-11"/>
      <point x="125" y="-10" type="curve"/>
      <point x="499" y="565" type="line" smooth="yes"/>
      <point x="527" y="608"/>
      <point x="537" y="623"/>
      <point x="539" y="632" type="curve" smooth="yes"/>
      <point x="540" y="638"/>
      <point x="538" y="641"/>
      <point x="533" y="641" type="curve" smooth="yes"/>
      <point x="507" y="641"/>
      <point x="484" y="638"/>
      <point x="466" y="638" type="curve" smooth="yes"/>
      <point x="171" y="638" type="line" smooth="yes"/>
      <point x="160" y="638"/>
      <point x="153" y="634"/>
      <point x="149" y="626" type="curve" smooth="yes"/>
      <point x="125" y="577"/>
      <point x="105" y="521"/>
      <point x="71" y="447" type="curve"/>
      <point x="73" y="444"/>
      <point x="81" y="442"/>
      <point x="89" y="442" type="curve" smooth="yes"/>
      <point x="101" y="442"/>
      <point x="113" y="445"/>
      <point x="116" y="449" type="curve"/>
      <point x="142" y="498"/>
      <point x="162" y="540"/>
      <point x="208" y="540" type="curve" smooth="yes"/>
      <point x="429" y="540" type="line"/>
      <point x="65" y="23" type="line"/>
      <point x="62" y="5"/>
      <point x="89" y="-11"/>
    </contour>
  </outline>
</glyph>
<glyph name="nine" format="1">
  <advance width="486"/>
  <unicode hex="0039"/>
  <note>
    nine
  </note>
  <outline>
    <contour>
      <point x="313" y="646" type="curve" smooth="yes"/>
      <point x="187" y="646"/>
      <point x="77" y="524"/>
      <point x="77" y="401" type="curve" smooth="yes"/>
      <point x="77" y="321"/>
      <point x="136" y="258"/>
      <point x="213" y="258" type="curve" smooth="yes"/>
      <point x="236" y="258"/>
      <point x="285" y="271"/>
      <point x="314" y="286" type="curve"/>
      <point x="304" y="295" type="line"/>
      <point x="257" y="196"/>
      <point x="135" y="82"/>
      <point x="19" y="33" type="curve"/>
      <point x="16" y="18"/>
      <point x="23" y="0"/>
      <point x="33" y="-6" type="curve"/>
      <point x="263" y="74"/>
      <point x="481" y="267"/>
      <point x="481" y="476" type="curve" smooth="yes"/>
      <point x="481" y="575"/>
      <point x="419" y="646"/>
    </contour>
    <contour>
      <point x="307" y="594" type="curve" smooth="yes"/>
      <point x="333" y="594"/>
      <point x="356" y="552"/>
      <point x="356" y="489" type="curve" smooth="yes"/>
      <point x="356" y="447"/>
      <point x="342" y="394"/>
      <point x="326" y="353" type="curve" smooth="yes"/>
      <point x="318" y="332"/>
      <point x="300" y="321"/>
      <point x="284" y="321" type="curve" smooth="yes"/>
      <point x="238" y="321"/>
      <point x="210" y="364"/>
      <point x="210" y="427" type="curve" smooth="yes"/>
      <point x="210" y="496"/>
      <point x="252" y="594"/>
    </contour>
  </outline>
</glyph>
<glyph name="colon" format="1">
  <advance width="197"/>
  <unicode hex="003A"/>
  <note>
    colon
  </note>
  <outline>
    <contour>
      <point x="55" y="-11" type="curve" smooth="yes"/>
      <point x="98" y="-11"/>
      <point x="138" y="34"/>
      <point x="138" y="81" type="curve" smooth="yes"/>
      <point x="138" y="114"/>
      <point x="115" y="139"/>
      <point x="83" y="139" type="curve" smooth="yes"/>
      <point x="30" y="139"/>
      <point x="-2" y="90"/>
      <point x="-2" y="48" type="curve" smooth="yes"/>
      <point x="-2" y="17"/>
      <point x="16" y="-11"/>
    </contour>
    <contour>
      <point x="115" y="294" type="curve" smooth="yes"/>
      <point x="158" y="294"/>
      <point x="198" y="339"/>
      <point x="198" y="386" type="curve" smooth="yes"/>
      <point x="198" y="419"/>
      <point x="175" y="444"/>
      <point x="143" y="444" type="curve" smooth="yes"/>
      <point x="90" y="444"/>
      <point x="58" y="395"/>
      <point x="58" y="353" type="curve" smooth="yes"/>
      <point x="58" y="322"/>
      <point x="76" y="294"/>
    </contour>
  </outline>
</glyph>
<glyph name="semicolon" format="1">
  <advance width="197"/>
  <unicode hex="003B"/>
  <note>
    semicolon
  </note>
  <outline>
    <contour>
      <point x="116" y="294" type="curve" smooth="yes"/>
      <point x="159" y="294"/>
      <point x="199" y="339"/>
      <point x="199" y="386" type="curve" smooth="yes"/>
      <point x="199" y="419"/>
      <point x="176" y="444"/>
      <point x="144" y="444" type="curve" smooth="yes"/>
      <point x="91" y="444"/>
      <point x="59" y="395"/>
      <point x="59" y="353" type="curve" smooth="yes"/>
      <point x="59" y="322"/>
      <point x="77" y="294"/>
    </contour>
    <contour>
      <point x="-38" y="-167" type="curve"/>
      <point x="44" y="-118"/>
      <point x="136" y="-21"/>
      <point x="136" y="74" type="curve" smooth="yes"/>
      <point x="136" y="122"/>
      <point x="113" y="138"/>
      <point x="85" y="138" type="curve" smooth="yes"/>
      <point x="33" y="138"/>
      <point x="2" y="94"/>
      <point x="2" y="52" type="curve" smooth="yes"/>
      <point x="2" y="7"/>
      <point x="22" y="-3"/>
      <point x="22" y="-32" type="curve" smooth="yes"/>
      <point x="22" y="-71"/>
      <point x="6" y="-89"/>
      <point x="-54" y="-134" type="curve"/>
      <point x="-57" y="-147"/>
      <point x="-46" y="-167"/>
    </contour>
  </outline>
</glyph>
<glyph name="less" format="1">
  <advance width="515"/>
  <unicode hex="003C"/>
  <note>
    less
  </note>
  <outline>
    <contour>
      <point x="389" y="17" type="line"/>
      <point x="438" y="86" type="line"/>
      <point x="123" y="262" type="line"/>
      <point x="116" y="222" type="line"/>
      <point x="499" y="398" type="line"/>
      <point x="478" y="475" type="line"/>
      <point x="61" y="282" type="line"/>
      <point x="47" y="210" type="line"/>
    </contour>
  </outline>
</glyph>
<glyph name="equal" format="1">
  <advance width="562"/>
  <unicode hex="003D"/>
  <note>
    equal
  </note>
  <outline>
    <contour>
      <point x="33" y="129" type="line"/>
      <point x="495" y="129" type="line"/>
      <point x="509" y="203" type="line"/>
      <point x="47" y="203" type="line"/>
    </contour>
    <contour>
      <point x="64" y="289" type="line"/>
      <point x="526" y="289" type="line"/>
      <point x="540" y="363" type="line"/>
      <point x="78" y="363" type="line"/>
    </contour>
  </outline>
</glyph>
<glyph name="greater" format="1">
  <advance width="515"/>
  <unicode hex="003E"/>
  <note>
    greater
  </note>
  <outline>
    <contour>
      <point x="136" y="475" type="line"/>
      <point x="87" y="406" type="line"/>
      <point x="402" y="230" type="line"/>
      <point x="409" y="270" type="line"/>
      <point x="26" y="94" type="line"/>
      <point x="47" y="17" type="line"/>
      <point x="464" y="210" type="line"/>
      <point x="478" y="282" type="line"/>
    </contour>
  </outline>
</glyph>
<glyph name="question" format="1">
  <advance width="316"/>
  <unicode hex="003F"/>
  <note>
    question
  </note>
  <outline>
    <contour>
      <point x="181" y="219" type="curve"/>
      <point x="161" y="231"/>
      <point x="132" y="244"/>
      <point x="132" y="271" type="curve" smooth="yes"/>
      <point x="132" y="288"/>
      <point x="144" y="299"/>
      <point x="170" y="312" type="curve" smooth="yes"/>
      <point x="257" y="355" type="line" smooth="yes"/>
      <point x="334" y="393"/>
      <point x="350" y="447"/>
      <point x="350" y="500" type="curve" smooth="yes"/>
      <point x="350" y="582"/>
      <point x="279" y="646"/>
      <point x="189" y="646" type="curve" smooth="yes"/>
      <point x="135" y="646"/>
      <point x="99" y="618"/>
      <point x="99" y="577" type="curve" smooth="yes"/>
      <point x="99" y="545"/>
      <point x="120" y="522"/>
      <point x="149" y="522" type="curve" smooth="yes"/>
      <point x="176" y="522"/>
      <point x="198" y="567"/>
      <point x="230" y="567" type="curve" smooth="yes"/>
      <point x="258" y="567"/>
      <point x="273" y="549"/>
      <point x="273" y="515" type="curve" smooth="yes"/>
      <point x="273" y="486"/>
      <point x="256" y="464"/>
      <point x="221" y="449" type="curve" smooth="yes"/>
      <point x="120" y="404" type="line" smooth="yes"/>
      <point x="68" y="381"/>
      <point x="52" y="346"/>
      <point x="52" y="310" type="curve" smooth="yes"/>
      <point x="52" y="234"/>
      <point x="133" y="195"/>
      <point x="168" y="195" type="curve"/>
      <point x="177" y="200"/>
      <point x="181" y="210"/>
    </contour>
    <contour>
      <point x="65" y="-11" type="curve" smooth="yes"/>
      <point x="108" y="-11"/>
      <point x="148" y="34"/>
      <point x="148" y="81" type="curve" smooth="yes"/>
      <point x="148" y="114"/>
      <point x="125" y="139"/>
      <point x="93" y="139" type="curve" smooth="yes"/>
      <point x="47" y="139"/>
      <point x="8" y="97"/>
      <point x="8" y="48" type="curve" smooth="yes"/>
      <point x="8" y="12"/>
      <point x="31" y="-11"/>
    </contour>
  </outline>
</glyph>
<glyph name="at" format="1">
  <advance width="911"/>
  <unicode hex="0040"/>
  <note>
    at
  </note>
  <outline>
    <contour>
      <point x="427" y="-228" type="curve" smooth="yes"/>
      <point x="508" y="-228"/>
      <point x="594" y="-208"/>
      <point x="649" y="-175" type="curve"/>
      <point x="647" y="-160"/>
      <point x="642" y="-144"/>
      <point x="632" y="-129" type="curve"/>
      <point x="583" y="-156"/>
      <point x="509" y="-172"/>
      <point x="440" y="-172" type="curve" smooth="yes"/>
      <point x="244" y="-172"/>
      <point x="138" y="-64"/>
      <point x="138" y="124" type="curve" smooth="yes"/>
      <point x="138" y="355"/>
      <point x="282" y="544"/>
      <point x="535" y="544" type="curve" smooth="yes"/>
      <point x="704" y="544"/>
      <point x="794" y="464"/>
      <point x="795" y="312" type="curve" smooth="yes"/>
      <point x="796" y="165"/>
      <point x="713" y="71"/>
      <point x="643" y="71" type="curve" smooth="yes"/>
      <point x="613" y="71"/>
      <point x="610" y="106"/>
      <point x="620" y="158" type="curve" smooth="yes"/>
      <point x="673" y="427" type="line"/>
      <point x="655" y="440"/>
      <point x="617" y="449"/>
      <point x="579" y="449" type="curve" smooth="yes"/>
      <point x="419" y="449"/>
      <point x="264" y="296"/>
      <point x="264" y="140" type="curve" smooth="yes"/>
      <point x="264" y="50"/>
      <point x="310" y="-8"/>
      <point x="381" y="-8" type="curve" smooth="yes"/>
      <point x="422" y="-8"/>
      <point x="459" y="20"/>
      <point x="500" y="100" type="curve"/>
      <point x="497" y="25"/>
      <point x="529" y="-8"/>
      <point x="589" y="-8" type="curve" smooth="yes"/>
      <point x="733" y="-8"/>
      <point x="880" y="164"/>
      <point x="880" y="318" type="curve" smooth="yes"/>
      <point x="880" y="489"/>
      <point x="749" y="596"/>
      <point x="541" y="596" type="curve" smooth="yes"/>
      <point x="224" y="596"/>
      <point x="34" y="364"/>
      <point x="34" y="118" type="curve" smooth="yes"/>
      <point x="34" y="-95"/>
      <point x="183" y="-228"/>
    </contour>
    <contour>
      <point x="418" y="78" type="curve" smooth="yes"/>
      <point x="396" y="78"/>
      <point x="387" y="100"/>
      <point x="387" y="144" type="curve" smooth="yes"/>
      <point x="387" y="239"/>
      <point x="432" y="375"/>
      <point x="511" y="375" type="curve" smooth="yes"/>
      <point x="531" y="375"/>
      <point x="539" y="373"/>
      <point x="548" y="368" type="curve"/>
      <point x="536" y="315" type="line" smooth="yes"/>
      <point x="503" y="166"/>
      <point x="456" y="78"/>
    </contour>
  </outline>
</glyph>
<glyph name="B" format="1">
  <advance width="572"/>
  <unicode hex="0042"/>
  <note>
    B
  </note>
  <outline>
    <contour>
      <point x="-8" y="-4" type="curve"/>
      <point x="67" y="1"/>
      <point x="102" y="2"/>
      <point x="139" y="2" type="curve" smooth="yes"/>
      <point x="175" y="2"/>
      <point x="220" y="0"/>
      <point x="266" y="0" type="curve" smooth="yes"/>
      <point x="423" y="0"/>
      <point x="577" y="81"/>
      <point x="577" y="221" type="curve" smooth="yes"/>
      <point x="577" y="299"/>
      <point x="519" y="345"/>
      <point x="432" y="354" type="curve"/>
      <point x="419" y="343" type="line"/>
      <point x="519" y="367"/>
      <point x="591" y="433"/>
      <point x="591" y="526" type="curve" smooth="yes"/>
      <point x="591" y="606"/>
      <point x="522" y="661"/>
      <point x="411" y="660" type="curve" smooth="yes"/>
      <point x="357" y="660"/>
      <point x="303" y="659"/>
      <point x="256" y="659" type="curve" smooth="yes"/>
      <point x="222" y="659"/>
      <point x="192" y="660"/>
      <point x="120" y="664" type="curve"/>
      <point x="118" y="662"/>
      <point x="115" y="656"/>
      <point x="113" y="645" type="curve" smooth="yes"/>
      <point x="111" y="632"/>
      <point x="111" y="627"/>
      <point x="114" y="627" type="curve" smooth="yes"/>
      <point x="132" y="627"/>
      <point x="174" y="608"/>
      <point x="175" y="599" type="curve"/>
      <point x="176" y="584"/>
      <point x="173" y="558"/>
      <point x="166" y="521" type="curve" smooth="yes"/>
      <point x="93" y="144" type="line" smooth="yes"/>
      <point x="84" y="99"/>
      <point x="76" y="70"/>
      <point x="70" y="55" type="curve" smooth="yes"/>
      <point x="66" y="45"/>
      <point x="23" y="33"/>
      <point x="-1" y="33" type="curve" smooth="yes"/>
      <point x="-4" y="33"/>
      <point x="-6" y="28"/>
      <point x="-9" y="13" type="curve" smooth="yes"/>
      <point x="-11" y="4"/>
      <point x="-10" y="-1"/>
    </contour>
    <contour>
      <point x="266" y="47" type="curve" smooth="yes"/>
      <point x="216" y="47"/>
      <point x="206" y="57"/>
      <point x="214" y="98" type="curve" smooth="yes"/>
      <point x="256" y="313" type="line"/>
      <point x="271" y="317"/>
      <point x="287" y="318"/>
      <point x="317" y="318" type="curve" smooth="yes"/>
      <point x="394" y="318"/>
      <point x="436" y="281"/>
      <point x="436" y="214" type="curve" smooth="yes"/>
      <point x="436" y="116"/>
      <point x="371" y="47"/>
    </contour>
    <contour>
      <point x="318" y="368" type="curve" smooth="yes"/>
      <point x="292" y="368"/>
      <point x="278" y="369"/>
      <point x="267" y="371" type="curve"/>
      <point x="310" y="594" type="line" smooth="yes"/>
      <point x="312" y="607"/>
      <point x="329" y="613"/>
      <point x="361" y="613" type="curve" smooth="yes"/>
      <point x="419" y="613"/>
      <point x="452" y="578"/>
      <point x="452" y="521" type="curve" smooth="yes"/>
      <point x="452" y="438"/>
      <point x="406" y="368"/>
    </contour>
    <contour>
      <point x="255" y="0" type="move" name="bottom"/>
    </contour>
    <contour>
      <point x="383" y="658" type="move" name="top"/>
    </contour>
  </outline>
</glyph>
<glyph name="C" format="1">
  <advance width="638"/>
  <unicode hex="0043"/>
  <note>
    C
  </note>
  <outline>
    <contour>
      <point x="351" y="-7" type="curve" smooth="yes"/>
      <point x="406" y="-7"/>
      <point x="464" y="7"/>
      <point x="536" y="34" type="curve"/>
      <point x="546" y="38"/>
      <point x="598" y="149"/>
      <point x="604" y="180" type="curve"/>
      <point x="602" y="187"/>
      <point x="588" y="190"/>
      <point x="561" y="190" type="curve"/>
      <point x="544" y="155"/>
      <point x="524" y="122"/>
      <point x="497" y="97" type="curve" smooth="yes"/>
      <point x="462" y="65"/>
      <point x="416" y="44"/>
      <point x="369" y="44" type="curve" smooth="yes"/>
      <point x="266" y="44"/>
      <point x="206" y="123"/>
      <point x="206" y="249" type="curve" smooth="yes"/>
      <point x="206" y="431"/>
      <point x="297" y="614"/>
      <point x="467" y="614" type="curve" smooth="yes"/>
      <point x="544" y="614"/>
      <point x="604" y="569"/>
      <point x="612" y="478" type="curve"/>
      <point x="628" y="474"/>
      <point x="644" y="476"/>
      <point x="656" y="481" type="curve"/>
      <point x="662" y="518"/>
      <point x="669" y="598"/>
      <point x="666" y="638" type="curve"/>
      <point x="600" y="657"/>
      <point x="526" y="667"/>
      <point x="483" y="667" type="curve" smooth="yes"/>
      <point x="258" y="667"/>
      <point x="58" y="475"/>
      <point x="58" y="252" type="curve" smooth="yes"/>
      <point x="58" y="94"/>
      <point x="176" y="-7"/>
    </contour>
    <contour>
      <point x="288" y="0" type="move" name="bottom"/>
    </contour>
    <contour>
      <point x="416" y="658" type="move" name="top"/>
    </contour>
  </outline>
</glyph>
<glyph name="D" format="1">
  <advance width="727"/>
  <unicode hex="0044"/>
  <note>
    D
  </note>
  <outline>
    <contour>
      <point x="256" y="659" type="curve" smooth="yes"/>
      <point x="221" y="659"/>
      <point x="172" y="661"/>
      <point x="120" y="664" type="curve"/>
      <point x="118" y="662"/>
      <point x="115" y="656"/>
      <point x="113" y="645" type="curve" smooth="yes"/>
      <point x="111" y="633"/>
      <point x="111" y="627"/>
      <point x="114" y="627" type="curve" smooth="yes"/>
      <point x="132" y="627"/>
      <point x="174" y="608"/>
      <point x="175" y="599" type="curve"/>
      <point x="176" y="584"/>
      <point x="173" y="558"/>
      <point x="166" y="521" type="curve" smooth="yes"/>
      <point x="93" y="143" type="line" smooth="yes"/>
      <point x="85" y="100"/>
      <point x="76" y="70"/>
      <point x="70" y="55" type="curve"/>
      <point x="65" y="47"/>
      <point x="20" y="33"/>
      <point x="-1" y="33" type="curve" smooth="yes"/>
      <point x="-4" y="33"/>
      <point x="-6" y="26"/>
      <point x="-9" y="13" type="curve" smooth="yes"/>
      <point x="-11" y="4"/>
      <point x="-10" y="-1"/>
      <point x="-8" y="-4" type="curve"/>
      <point x="41" y="-2"/>
      <point x="92" y="2"/>
      <point x="129" y="2" type="curve" smooth="yes"/>
      <point x="148" y="2"/>
      <point x="264" y="-3"/>
      <point x="290" y="-3" type="curve" smooth="yes"/>
      <point x="521" y="-3"/>
      <point x="710" y="177"/>
      <point x="710" y="401" type="curve" smooth="yes"/>
      <point x="710" y="554"/>
      <point x="597" y="659"/>
      <point x="410" y="659" type="curve" smooth="yes"/>
      <point x="345" y="659"/>
      <point x="281" y="659"/>
    </contour>
    <contour>
      <point x="297" y="527" type="line" smooth="yes"/>
      <point x="303" y="557"/>
      <point x="311" y="578"/>
      <point x="322" y="590" type="curve" smooth="yes"/>
      <point x="332" y="601"/>
      <point x="385" y="606"/>
      <point x="412" y="606" type="curve" smooth="yes"/>
      <point x="515" y="606"/>
      <point x="568" y="535"/>
      <point x="568" y="424" type="curve" smooth="yes"/>
      <point x="568" y="249"/>
      <point x="477" y="50"/>
      <point x="317" y="50" type="curve" smooth="yes"/>
      <point x="266" y="50"/>
      <point x="230" y="54"/>
      <point x="217" y="63" type="curve" smooth="yes"/>
      <point x="211" y="67"/>
      <point x="212" y="90"/>
      <point x="221" y="136" type="curve" smooth="yes"/>
    </contour>
    <contour>
      <point x="314" y="0" type="move" name="bottom"/>
    </contour>
    <contour>
      <point x="378" y="329" type="move" name="center"/>
    </contour>
    <contour>
      <point x="245" y="330" type="move" name="stroke"/>
    </contour>
    <contour>
      <point x="442" y="658" type="move" name="top"/>
    </contour>
  </outline>
</glyph>
<glyph name="E" format="1">
  <advance width="581"/>
  <unicode hex="0045"/>
  <note>
    E
  </note>
  <outline>
    <contour>
      <point x="256" y="659" type="curve" smooth="yes"/>
      <point x="221" y="659"/>
      <point x="172" y="661"/>
      <point x="120" y="664" type="curve"/>
      <point x="118" y="662"/>
      <point x="115" y="656"/>
      <point x="113" y="645" type="curve" smooth="yes"/>
      <point x="111" y="633"/>
      <point x="111" y="627"/>
      <point x="114" y="627" type="curve" smooth="yes"/>
      <point x="132" y="627"/>
      <point x="174" y="608"/>
      <point x="175" y="599" type="curve"/>
      <point x="176" y="584"/>
      <point x="173" y="558"/>
      <point x="166" y="521" type="curve" smooth="yes"/>
      <point x="93" y="143" type="line" smooth="yes"/>
      <point x="85" y="100"/>
      <point x="76" y="70"/>
      <point x="70" y="55" type="curve"/>
      <point x="65" y="47"/>
      <point x="20" y="33"/>
      <point x="-1" y="33" type="curve" smooth="yes"/>
      <point x="-4" y="33"/>
      <point x="-6" y="26"/>
      <point x="-9" y="13" type="curve" smooth="yes"/>
      <point x="-11" y="4"/>
      <point x="-10" y="-1"/>
      <point x="-8" y="-4" type="curve"/>
      <point x="129" y="2" type="line"/>
      <point x="175" y="2"/>
      <point x="235" y="1"/>
      <point x="309" y="0" type="curve" smooth="yes"/>
      <point x="366" y="-1"/>
      <point x="419" y="-2"/>
      <point x="453" y="-2" type="curve"/>
      <point x="461" y="21"/>
      <point x="490" y="78"/>
      <point x="541" y="170" type="curve"/>
      <point x="538" y="174"/>
      <point x="528" y="176"/>
      <point x="512" y="176" type="curve" smooth="yes"/>
      <point x="503" y="176"/>
      <point x="499" y="174"/>
      <point x="497" y="170" type="curve"/>
      <point x="476" y="134"/>
      <point x="436" y="94"/>
      <point x="407" y="80" type="curve" smooth="yes"/>
      <point x="371" y="63"/>
      <point x="331" y="54"/>
      <point x="307" y="54" type="curve" smooth="yes"/>
      <point x="281" y="54" type="line" smooth="yes"/>
      <point x="239" y="54"/>
      <point x="217" y="59"/>
      <point x="216" y="70" type="curve" smooth="yes"/>
      <point x="215" y="85"/>
      <point x="216" y="109"/>
      <point x="222" y="141" type="curve" smooth="yes"/>
      <point x="252" y="295" type="line" smooth="yes"/>
      <point x="253" y="301"/>
      <point x="278" y="304"/>
      <point x="326" y="304" type="curve" smooth="yes"/>
      <point x="366" y="304"/>
      <point x="389" y="299"/>
      <point x="395" y="286" type="curve" smooth="yes"/>
      <point x="398" y="279"/>
      <point x="402" y="256"/>
      <point x="402" y="238" type="curve"/>
      <point x="403" y="233"/>
      <point x="408" y="230"/>
      <point x="417" y="230" type="curve" smooth="yes"/>
      <point x="428" y="230"/>
      <point x="435" y="231"/>
      <point x="438" y="234" type="curve"/>
      <point x="475" y="423" type="line"/>
      <point x="473" y="426"/>
      <point x="465" y="428"/>
      <point x="454" y="428" type="curve" smooth="yes"/>
      <point x="445" y="428"/>
      <point x="440" y="426"/>
      <point x="438" y="421" type="curve"/>
      <point x="432" y="400"/>
      <point x="418" y="372"/>
      <point x="412" y="365" type="curve"/>
      <point x="406" y="361"/>
      <point x="381" y="359"/>
      <point x="344" y="359" type="curve" smooth="yes"/>
      <point x="308" y="359" type="line" smooth="yes"/>
      <point x="279" y="359"/>
      <point x="265" y="361"/>
      <point x="266" y="365" type="curve" smooth="yes"/>
      <point x="296" y="519" type="line" smooth="yes"/>
      <point x="303" y="555"/>
      <point x="310" y="581"/>
      <point x="316" y="597" type="curve"/>
      <point x="319" y="606"/>
      <point x="341" y="610"/>
      <point x="383" y="610" type="curve" smooth="yes"/>
      <point x="421" y="610" type="line" smooth="yes"/>
      <point x="473" y="610"/>
      <point x="508" y="585"/>
      <point x="527" y="518" type="curve"/>
      <point x="528" y="513"/>
      <point x="532" y="511"/>
      <point x="539" y="511" type="curve" smooth="yes"/>
      <point x="551" y="511"/>
      <point x="560" y="513"/>
      <point x="563" y="516" type="curve"/>
      <point x="562" y="592"/>
      <point x="562" y="656"/>
      <point x="563" y="664" type="curve"/>
      <point x="531" y="664"/>
      <point x="474" y="662"/>
      <point x="422" y="662" type="curve" smooth="yes"/>
      <point x="329" y="662"/>
      <point x="280" y="659"/>
    </contour>
    <contour>
      <point x="251" y="0" type="move" name="bottom"/>
    </contour>
    <contour>
      <point x="469" y="10" type="move" name="ogonek"/>
    </contour>
    <contour>
      <point x="379" y="658" type="move" name="top"/>
    </contour>
    <contour>
      <point x="100" y="658" type="move" name="topleft"/>
    </contour>
  </outline>
</glyph>
<glyph name="F" format="1">
  <advance width="534"/>
  <unicode hex="0046"/>
  <note>
    F
  </note>
  <outline>
    <contour>
      <point x="-8" y="-4" type="curve"/>
      <point x="42" y="-1"/>
      <point x="90" y="2"/>
      <point x="129" y="2" type="curve"/>
      <point x="151" y="2"/>
      <point x="202" y="0"/>
      <point x="281" y="-4" type="curve"/>
      <point x="283" y="0"/>
      <point x="285" y="6"/>
      <point x="287" y="14" type="curve" smooth="yes"/>
      <point x="289" y="27"/>
      <point x="289" y="33"/>
      <point x="286" y="33" type="curve" smooth="yes"/>
      <point x="254" y="33"/>
      <point x="214" y="47"/>
      <point x="213" y="59" type="curve" smooth="yes"/>
      <point x="212" y="80"/>
      <point x="216" y="107"/>
      <point x="222" y="141" type="curve" smooth="yes"/>
      <point x="252" y="295" type="line" smooth="yes"/>
      <point x="253" y="301"/>
      <point x="258" y="304"/>
      <point x="306" y="304" type="curve" smooth="yes"/>
      <point x="352" y="304"/>
      <point x="385" y="303"/>
      <point x="392" y="286" type="curve" smooth="yes"/>
      <point x="394" y="281"/>
      <point x="397" y="264"/>
      <point x="399" y="238" type="curve"/>
      <point x="400" y="233"/>
      <point x="405" y="230"/>
      <point x="414" y="230" type="curve" smooth="yes"/>
      <point x="425" y="230"/>
      <point x="432" y="231"/>
      <point x="435" y="234" type="curve"/>
      <point x="472" y="423" type="line"/>
      <point x="470" y="426"/>
      <point x="462" y="428"/>
      <point x="451" y="428" type="curve" smooth="yes"/>
      <point x="442" y="428"/>
      <point x="437" y="426"/>
      <point x="434" y="421" type="curve"/>
      <point x="427" y="400"/>
      <point x="416" y="368"/>
      <point x="410" y="364" type="curve" smooth="yes"/>
      <point x="405" y="361"/>
      <point x="382" y="359"/>
      <point x="341" y="359" type="curve" smooth="yes"/>
      <point x="308" y="359" type="line" smooth="yes"/>
      <point x="279" y="359"/>
      <point x="265" y="361"/>
      <point x="266" y="365" type="curve" smooth="yes"/>
      <point x="296" y="519" type="line" smooth="yes"/>
      <point x="303" y="555"/>
      <point x="310" y="581"/>
      <point x="316" y="597" type="curve"/>
      <point x="319" y="606"/>
      <point x="341" y="610"/>
      <point x="383" y="610" type="curve" smooth="yes"/>
      <point x="401" y="610" type="line" smooth="yes"/>
      <point x="476" y="610"/>
      <point x="505" y="581"/>
      <point x="524" y="518" type="curve"/>
      <point x="525" y="513"/>
      <point x="529" y="511"/>
      <point x="536" y="511" type="curve" smooth="yes"/>
      <point x="548" y="511"/>
      <point x="557" y="513"/>
      <point x="560" y="516" type="curve"/>
      <point x="559" y="608"/>
      <point x="560" y="657"/>
      <point x="560" y="664" type="curve"/>
      <point x="525" y="664"/>
      <point x="474" y="663"/>
      <point x="405" y="662" type="curve" smooth="yes"/>
      <point x="335" y="661"/>
      <point x="299" y="659"/>
      <point x="256" y="659" type="curve" smooth="yes"/>
      <point x="218" y="659"/>
      <point x="179" y="661"/>
      <point x="120" y="664" type="curve"/>
      <point x="118" y="662"/>
      <point x="115" y="656"/>
      <point x="113" y="645" type="curve" smooth="yes"/>
      <point x="111" y="633"/>
      <point x="111" y="627"/>
      <point x="114" y="627" type="curve" smooth="yes"/>
      <point x="132" y="627"/>
      <point x="174" y="608"/>
      <point x="175" y="599" type="curve"/>
      <point x="176" y="584"/>
      <point x="173" y="558"/>
      <point x="166" y="521" type="curve" smooth="yes"/>
      <point x="93" y="143" type="line" smooth="yes"/>
      <point x="85" y="100"/>
      <point x="76" y="70"/>
      <point x="70" y="55" type="curve"/>
      <point x="65" y="47"/>
      <point x="20" y="33"/>
      <point x="-1" y="33" type="curve" smooth="yes"/>
      <point x="-4" y="33"/>
      <point x="-6" y="26"/>
      <point x="-9" y="13" type="curve" smooth="yes"/>
      <point x="-11" y="4"/>
      <point x="-10" y="-1"/>
    </contour>
    <contour>
      <point x="229" y="0" type="move" name="bottom"/>
    </contour>
    <contour>
      <point x="357" y="658" type="move" name="top"/>
    </contour>
  </outline>
</glyph>
<glyph name="G" format="1">
  <advance width="703"/>
  <unicode hex="0047"/>
  <note>
    G
  </note>
  <outline>
    <contour>
      <point x="341" y="-7" type="curve" smooth="yes"/>
      <point x="397" y="-7"/>
      <point x="484" y="16"/>
      <point x="548" y="48" type="curve" smooth="yes"/>
      <point x="564" y="56"/>
      <point x="575" y="65"/>
      <point x="575" y="76" type="curve" smooth="yes"/>
      <point x="575" y="77"/>
      <point x="575" y="81"/>
      <point x="574" y="87" type="curve" smooth="yes"/>
      <point x="573" y="93"/>
      <point x="574" y="102"/>
      <point x="576" y="114" type="curve" smooth="yes"/>
      <point x="587" y="172" type="line" smooth="yes"/>
      <point x="596" y="219"/>
      <point x="607" y="246"/>
      <point x="619" y="251" type="curve" smooth="yes"/>
      <point x="641" y="260"/>
      <point x="660" y="266"/>
      <point x="675" y="266" type="curve" smooth="yes"/>
      <point x="678" y="266"/>
      <point x="680" y="272"/>
      <point x="682" y="284" type="curve" smooth="yes"/>
      <point x="683" y="291"/>
      <point x="684" y="298"/>
      <point x="683" y="304" type="curve"/>
      <point x="602" y="300"/>
      <point x="557" y="298"/>
      <point x="547" y="298" type="curve" smooth="yes"/>
      <point x="517" y="298"/>
      <point x="435" y="302"/>
      <point x="399" y="304" type="curve"/>
      <point x="397" y="302"/>
      <point x="393" y="294"/>
      <point x="391" y="286" type="curve" smooth="yes"/>
      <point x="389" y="276"/>
      <point x="390" y="267"/>
      <point x="393" y="267" type="curve" smooth="yes"/>
      <point x="432" y="267"/>
      <point x="452" y="258"/>
      <point x="454" y="240" type="curve" smooth="yes"/>
      <point x="456" y="223"/>
      <point x="453" y="197"/>
      <point x="446" y="163" type="curve" smooth="yes"/>
      <point x="432" y="93" type="line" smooth="yes"/>
      <point x="429" y="79"/>
      <point x="423" y="69"/>
      <point x="415" y="63" type="curve" smooth="yes"/>
      <point x="400" y="52"/>
      <point x="377" y="47"/>
      <point x="358" y="47" type="curve" smooth="yes"/>
      <point x="263" y="47"/>
      <point x="205" y="126"/>
      <point x="205" y="253" type="curve" smooth="yes"/>
      <point x="205" y="422"/>
      <point x="292" y="611"/>
      <point x="457" y="611" type="curve" smooth="yes"/>
      <point x="534" y="611"/>
      <point x="594" y="567"/>
      <point x="602" y="478" type="curve"/>
      <point x="608" y="475"/>
      <point x="634" y="476"/>
      <point x="646" y="481" type="curve"/>
      <point x="654" y="518"/>
      <point x="659" y="598"/>
      <point x="655" y="638" type="curve"/>
      <point x="590" y="657"/>
      <point x="519" y="667"/>
      <point x="473" y="667" type="curve" smooth="yes"/>
      <point x="258" y="667"/>
      <point x="58" y="473"/>
      <point x="58" y="252" type="curve" smooth="yes"/>
      <point x="58" y="94"/>
      <point x="174" y="-7"/>
    </contour>
    <contour>
      <point x="310" y="0" type="move" name="bottom"/>
    </contour>
    <contour>
      <point x="438" y="658" type="move" name="top"/>
    </contour>
  </outline>
</glyph>
<glyph name="H" format="1">
  <advance width="699"/>
  <unicode hex="0048"/>
  <note>
    H
  </note>
  <outline>
    <contour>
      <point x="-8" y="-4" type="curve"/>
      <point x="57" y="0"/>
      <point x="108" y="4"/>
      <point x="126" y="4" type="curve" smooth="yes"/>
      <point x="163" y="4"/>
      <point x="196" y="0"/>
      <point x="266" y="-4" type="curve"/>
      <point x="269" y="0"/>
      <point x="271" y="7"/>
      <point x="273" y="14" type="curve" smooth="yes"/>
      <point x="276" y="25"/>
      <point x="274" y="33"/>
      <point x="271" y="33" type="curve" smooth="yes"/>
      <point x="255" y="33"/>
      <point x="215" y="51"/>
      <point x="214" y="58" type="curve" smooth="yes"/>
      <point x="211" y="79"/>
      <point x="216" y="107"/>
      <point x="223" y="142" type="curve" smooth="yes"/>
      <point x="256" y="309" type="line"/>
      <point x="258" y="311" type="line"/>
      <point x="273" y="312"/>
      <point x="288" y="314"/>
      <point x="371" y="314" type="curve" smooth="yes"/>
      <point x="406" y="314"/>
      <point x="435" y="314"/>
      <point x="477" y="312" type="curve"/>
      <point x="478" y="308" type="line"/>
      <point x="445" y="138" type="line" smooth="yes"/>
      <point x="438" y="101"/>
      <point x="430" y="74"/>
      <point x="424" y="59" type="curve"/>
      <point x="419" y="50"/>
      <point x="371" y="33"/>
      <point x="352" y="33" type="curve" smooth="yes"/>
      <point x="349" y="33"/>
      <point x="346" y="25"/>
      <point x="344" y="14" type="curve" smooth="yes"/>
      <point x="343" y="7"/>
      <point x="343" y="-2"/>
      <point x="344" y="-4" type="curve"/>
      <point x="392" y="0"/>
      <point x="462" y="4"/>
      <point x="485" y="4" type="curve" smooth="yes"/>
      <point x="510" y="4"/>
      <point x="572" y="-1"/>
      <point x="618" y="-4" type="curve"/>
      <point x="621" y="2"/>
      <point x="624" y="8"/>
      <point x="625" y="13" type="curve" smooth="yes"/>
      <point x="628" y="27"/>
      <point x="628" y="34"/>
      <point x="625" y="34" type="curve" smooth="yes"/>
      <point x="608" y="34"/>
      <point x="568" y="50"/>
      <point x="567" y="57" type="curve" smooth="yes"/>
      <point x="564" y="78"/>
      <point x="569" y="106"/>
      <point x="576" y="142" type="curve" smooth="yes"/>
      <point x="648" y="516" type="line" smooth="yes"/>
      <point x="655" y="553"/>
      <point x="664" y="581"/>
      <point x="673" y="601" type="curve" smooth="yes"/>
      <point x="676" y="608"/>
      <point x="724" y="625"/>
      <point x="741" y="625" type="curve" smooth="yes"/>
      <point x="744" y="625"/>
      <point x="747" y="631"/>
      <point x="749" y="644" type="curve" smooth="yes"/>
      <point x="750" y="650"/>
      <point x="751" y="656"/>
      <point x="750" y="662" type="curve"/>
      <point x="669" y="658"/>
      <point x="624" y="656"/>
      <point x="614" y="656" type="curve" smooth="yes"/>
      <point x="607" y="656"/>
      <point x="567" y="658"/>
      <point x="476" y="662" type="curve"/>
      <point x="473" y="660"/>
      <point x="470" y="652"/>
      <point x="468" y="644" type="curve" smooth="yes"/>
      <point x="465" y="633"/>
      <point x="467" y="625"/>
      <point x="470" y="625" type="curve" smooth="yes"/>
      <point x="488" y="625"/>
      <point x="526" y="608"/>
      <point x="527" y="599" type="curve"/>
      <point x="529" y="581"/>
      <point x="526" y="555"/>
      <point x="519" y="520" type="curve" smooth="yes"/>
      <point x="490" y="372" type="line"/>
      <point x="487" y="368" type="line"/>
      <point x="427" y="367"/>
      <point x="398" y="366"/>
      <point x="380" y="366" type="curve" smooth="yes"/>
      <point x="365" y="366"/>
      <point x="333" y="367"/>
      <point x="268" y="368" type="curve"/>
      <point x="267" y="371" type="line"/>
      <point x="295" y="516" type="line" smooth="yes"/>
      <point x="303" y="559"/>
      <point x="312" y="587"/>
      <point x="320" y="601" type="curve"/>
      <point x="324" y="608"/>
      <point x="373" y="625"/>
      <point x="389" y="625" type="curve" smooth="yes"/>
      <point x="392" y="625"/>
      <point x="394" y="630"/>
      <point x="396" y="641" type="curve" smooth="yes"/>
      <point x="398" y="652"/>
      <point x="398" y="659"/>
      <point x="397" y="662" type="curve"/>
      <point x="316" y="658"/>
      <point x="267" y="656"/>
      <point x="250" y="656" type="curve" smooth="yes"/>
      <point x="249" y="656"/>
      <point x="213" y="658"/>
      <point x="122" y="662" type="curve"/>
      <point x="121" y="661"/>
      <point x="118" y="655"/>
      <point x="116" y="645" type="curve" smooth="yes"/>
      <point x="113" y="632"/>
      <point x="114" y="625"/>
      <point x="117" y="625" type="curve" smooth="yes"/>
      <point x="140" y="625"/>
      <point x="172" y="610"/>
      <point x="174" y="598" type="curve"/>
      <point x="177" y="587"/>
      <point x="174" y="561"/>
      <point x="166" y="520" type="curve" smooth="yes"/>
      <point x="92" y="138" type="line" smooth="yes"/>
      <point x="85" y="102"/>
      <point x="78" y="75"/>
      <point x="69" y="57" type="curve"/>
      <point x="64" y="48"/>
      <point x="19" y="33"/>
      <point x="-3" y="33" type="curve" smooth="yes"/>
      <point x="-4" y="33"/>
      <point x="-7" y="26"/>
      <point x="-8" y="13" type="curve" smooth="yes"/>
      <point x="-9" y="4"/>
      <point x="-10" y="-1"/>
    </contour>
    <contour>
      <point x="308" y="0" type="move" name="bottom"/>
    </contour>
    <contour>
      <point x="403" y="499" type="move" name="stroke"/>
    </contour>
    <contour>
      <point x="436" y="658" type="move" name="top"/>
    </contour>
    <contour>
      <point x="101" y="658" type="move" name="topleft"/>
    </contour>
  </outline>
</glyph>
<glyph name="I" format="1">
  <advance width="355"/>
  <unicode hex="0049"/>
  <note>
    I
  </note>
  <outline>
    <contour>
      <point x="-8" y="-4" type="curve"/>
      <point x="11" y="-3"/>
      <point x="103" y="4"/>
      <point x="139" y="4" type="curve" smooth="yes"/>
      <point x="170" y="4"/>
      <point x="232" y="-2"/>
      <point x="266" y="-4" type="curve"/>
      <point x="268" y="0"/>
      <point x="270" y="6"/>
      <point x="272" y="14" type="curve" smooth="yes"/>
      <point x="275" y="27"/>
      <point x="274" y="33"/>
      <point x="271" y="33" type="curve" smooth="yes"/>
      <point x="259" y="33"/>
      <point x="216" y="49"/>
      <point x="214" y="57" type="curve"/>
      <point x="213" y="88"/>
      <point x="218" y="118"/>
      <point x="223" y="146" type="curve" smooth="yes"/>
      <point x="298" y="531" type="line" smooth="yes"/>
      <point x="302" y="551"/>
      <point x="312" y="585"/>
      <point x="319" y="601" type="curve"/>
      <point x="323" y="610"/>
      <point x="377" y="625"/>
      <point x="389" y="625" type="curve" smooth="yes"/>
      <point x="392" y="625"/>
      <point x="394" y="631"/>
      <point x="396" y="644" type="curve" smooth="yes"/>
      <point x="397" y="650"/>
      <point x="398" y="656"/>
      <point x="397" y="662" type="curve"/>
      <point x="316" y="658"/>
      <point x="279" y="656"/>
      <point x="266" y="656" type="curve" smooth="yes"/>
      <point x="218" y="656"/>
      <point x="169" y="659"/>
      <point x="122" y="662" type="curve"/>
      <point x="121" y="661"/>
      <point x="118" y="654"/>
      <point x="116" y="642" type="curve" smooth="yes"/>
      <point x="114" y="631"/>
      <point x="114" y="625"/>
      <point x="117" y="625" type="curve" smooth="yes"/>
      <point x="132" y="625"/>
      <point x="169" y="611"/>
      <point x="174" y="600" type="curve"/>
      <point x="177" y="591"/>
      <point x="175" y="565"/>
      <point x="167" y="522" type="curve" smooth="yes"/>
      <point x="92" y="138" type="line" smooth="yes"/>
      <point x="85" y="103"/>
      <point x="78" y="76"/>
      <point x="69" y="58" type="curve"/>
      <point x="63" y="47"/>
      <point x="13" y="33"/>
      <point x="-2" y="33" type="curve" smooth="yes"/>
      <point x="-4" y="33"/>
      <point x="-6" y="26"/>
      <point x="-9" y="12" type="curve" smooth="yes"/>
      <point x="-11" y="4"/>
      <point x="-10" y="-1"/>
    </contour>
    <contour>
      <point x="130" y="0" type="move" name="bottom"/>
    </contour>
    <contour>
      <point x="228" y="10" type="move" name="ogonek"/>
    </contour>
    <contour>
      <point x="258" y="658" type="move" name="top"/>
    </contour>
    <contour>
      <point x="111" y="658" type="move" name="topleft"/>
    </contour>
  </outline>
</glyph>
<glyph name="J" format="1">
  <advance width="342"/>
  <unicode hex="004A"/>
  <note>
    J
  </note>
  <outline>
    <contour>
      <point x="-113" y="-218" type="curve" smooth="yes"/>
      <point x="40" y="-218"/>
      <point x="180" y="-84"/>
      <point x="224" y="143" type="curve" smooth="yes"/>
      <point x="296" y="516" type="line" smooth="yes"/>
      <point x="304" y="555"/>
      <point x="311" y="583"/>
      <point x="320" y="602" type="curve"/>
      <point x="324" y="610"/>
      <point x="377" y="625"/>
      <point x="389" y="625" type="curve" smooth="yes"/>
      <point x="392" y="625"/>
      <point x="395" y="631"/>
      <point x="397" y="644" type="curve" smooth="yes"/>
      <point x="398" y="650"/>
      <point x="398" y="656"/>
      <point x="398" y="662" type="curve"/>
      <point x="317" y="658"/>
      <point x="279" y="656"/>
      <point x="266" y="656" type="curve" smooth="yes"/>
      <point x="261" y="656"/>
      <point x="214" y="658"/>
      <point x="113" y="662" type="curve"/>
      <point x="111" y="661"/>
      <point x="109" y="654"/>
      <point x="107" y="642" type="curve" smooth="yes"/>
      <point x="105" y="631"/>
      <point x="104" y="625"/>
      <point x="107" y="625" type="curve" smooth="yes"/>
      <point x="132" y="625"/>
      <point x="170" y="611"/>
      <point x="174" y="600" type="curve"/>
      <point x="178" y="591"/>
      <point x="176" y="565"/>
      <point x="167" y="522" type="curve" smooth="yes"/>
      <point x="92" y="135" type="line" smooth="yes"/>
      <point x="74" y="40"/>
      <point x="55" y="-31"/>
      <point x="37" y="-78" type="curve" smooth="yes"/>
      <point x="19" y="-125"/>
      <point x="-6" y="-148"/>
      <point x="-35" y="-148" type="curve" smooth="yes"/>
      <point x="-60" y="-148"/>
      <point x="-81" y="-87"/>
      <point x="-127" y="-87" type="curve" smooth="yes"/>
      <point x="-161" y="-87"/>
      <point x="-191" y="-114"/>
      <point x="-191" y="-156" type="curve" smooth="yes"/>
      <point x="-191" y="-187"/>
      <point x="-171" y="-218"/>
    </contour>
    <contour>
      <point x="62" y="0" type="move" name="bottom"/>
    </contour>
    <contour>
      <point x="261" y="658" type="move" name="top"/>
    </contour>
  </outline>
</glyph>
<glyph name="K" format="1">
  <advance width="694"/>
  <unicode hex="004B"/>
  <note>
    K
  </note>
  <outline>
    <contour>
      <point x="-8" y="-4" type="curve"/>
      <point x="11" y="-3"/>
      <point x="103" y="4"/>
      <point x="129" y="4" type="curve" smooth="yes"/>
      <point x="148" y="4"/>
      <point x="210" y="0"/>
      <point x="266" y="-4" type="curve"/>
      <point x="268" y="0"/>
      <point x="270" y="6"/>
      <point x="272" y="14" type="curve" smooth="yes"/>
      <point x="274" y="29"/>
      <point x="274" y="33"/>
      <point x="271" y="33" type="curve" smooth="yes"/>
      <point x="257" y="33"/>
      <point x="216" y="51"/>
      <point x="214" y="58" type="curve" smooth="yes"/>
      <point x="212" y="75"/>
      <point x="214" y="98"/>
      <point x="223" y="146" type="curve" smooth="yes"/>
      <point x="251" y="289" type="line"/>
      <point x="270" y="289" type="line" smooth="yes"/>
      <point x="284" y="289"/>
      <point x="291" y="285"/>
      <point x="297" y="275" type="curve" smooth="yes"/>
      <point x="405" y="102" type="line" smooth="yes"/>
      <point x="455" y="22"/>
      <point x="492" y="-5"/>
      <point x="565" y="-5" type="curve" smooth="yes"/>
      <point x="592" y="-5"/>
      <point x="619" y="-6"/>
      <point x="652" y="-4" type="curve"/>
      <point x="655" y="0"/>
      <point x="657" y="4"/>
      <point x="660" y="14" type="curve" smooth="yes"/>
      <point x="664" y="26"/>
      <point x="663" y="33"/>
      <point x="659" y="33" type="curve" smooth="yes"/>
      <point x="611" y="33"/>
      <point x="577" y="71"/>
      <point x="541" y="128" type="curve" smooth="yes"/>
      <point x="397" y="353" type="line"/>
      <point x="394" y="357"/>
      <point x="393" y="362"/>
      <point x="394" y="367" type="curve" smooth="yes"/>
      <point x="395" y="372"/>
      <point x="398" y="377"/>
      <point x="404" y="382" type="curve" smooth="yes"/>
      <point x="616" y="586" type="line" smooth="yes"/>
      <point x="640" y="609"/>
      <point x="685" y="624"/>
      <point x="740" y="627" type="curve"/>
      <point x="742" y="629"/>
      <point x="744" y="634"/>
      <point x="748" y="647" type="curve" smooth="yes"/>
      <point x="750" y="654"/>
      <point x="749" y="660"/>
      <point x="749" y="662" type="curve"/>
      <point x="649" y="657"/>
      <point x="623" y="656"/>
      <point x="616" y="656" type="curve" smooth="yes"/>
      <point x="602" y="656"/>
      <point x="574" y="657"/>
      <point x="491" y="662" type="curve"/>
      <point x="489" y="660"/>
      <point x="489" y="657"/>
      <point x="488" y="653" type="curve" smooth="yes"/>
      <point x="485" y="642"/>
      <point x="486" y="627"/>
      <point x="490" y="627" type="curve" smooth="yes"/>
      <point x="523" y="627"/>
      <point x="548" y="619"/>
      <point x="546" y="609" type="curve" smooth="yes"/>
      <point x="543" y="596"/>
      <point x="535" y="587"/>
      <point x="522" y="574" type="curve" smooth="yes"/>
      <point x="324" y="388" type="line" smooth="yes"/>
      <point x="302" y="368"/>
      <point x="280" y="350"/>
      <point x="273" y="350" type="curve" smooth="yes"/>
      <point x="263" y="350" type="line"/>
      <point x="295" y="516" type="line" smooth="yes"/>
      <point x="307" y="570"/>
      <point x="311" y="587"/>
      <point x="319" y="601" type="curve" smooth="yes"/>
      <point x="323" y="608"/>
      <point x="372" y="625"/>
      <point x="389" y="625" type="curve" smooth="yes"/>
      <point x="392" y="625"/>
      <point x="394" y="631"/>
      <point x="396" y="644" type="curve" smooth="yes"/>
      <point x="398" y="652"/>
      <point x="398" y="658"/>
      <point x="397" y="662" type="curve"/>
      <point x="316" y="658"/>
      <point x="269" y="656"/>
      <point x="256" y="656" type="curve" smooth="yes"/>
      <point x="251" y="656"/>
      <point x="213" y="658"/>
      <point x="122" y="662" type="curve"/>
      <point x="120" y="660"/>
      <point x="117" y="650"/>
      <point x="116" y="642" type="curve" smooth="yes"/>
      <point x="114" y="629"/>
      <point x="114" y="625"/>
      <point x="117" y="625" type="curve" smooth="yes"/>
      <point x="135" y="625"/>
      <point x="170" y="610"/>
      <point x="174" y="600" type="curve"/>
      <point x="177" y="590"/>
      <point x="175" y="561"/>
      <point x="167" y="522" type="curve" smooth="yes"/>
      <point x="92" y="138" type="line" smooth="yes"/>
      <point x="84" y="98"/>
      <point x="77" y="74"/>
      <point x="69" y="58" type="curve"/>
      <point x="64" y="49"/>
      <point x="18" y="33"/>
      <point x="-2" y="33" type="curve" smooth="yes"/>
      <point x="-4" y="33"/>
      <point x="-6" y="27"/>
      <point x="-9" y="12" type="curve" smooth="yes"/>
      <point x="-11" y="6"/>
      <point x="-10" y="1"/>
    </contour>
    <contour>
      <point x="314" y="0" type="move" name="bottom"/>
    </contour>
    <contour>
      <point x="442" y="658" type="move" name="top"/>
    </contour>
  </outline>
</glyph>
<glyph name="L" format="1">
  <advance width="543"/>
  <unicode hex="004C"/>
  <note>
    L
  </note>
  <outline>
    <contour>
      <point x="256" y="656" type="curve" smooth="yes"/>
      <point x="251" y="656"/>
      <point x="216" y="658"/>
      <point x="122" y="662" type="curve"/>
      <point x="121" y="661"/>
      <point x="118" y="652"/>
      <point x="116" y="642" type="curve" smooth="yes"/>
      <point x="114" y="630"/>
      <point x="114" y="625"/>
      <point x="117" y="625" type="curve" smooth="yes"/>
      <point x="135" y="625"/>
      <point x="170" y="610"/>
      <point x="174" y="600" type="curve"/>
      <point x="177" y="591"/>
      <point x="174" y="563"/>
      <point x="167" y="525" type="curve" smooth="yes"/>
      <point x="93" y="143" type="line" smooth="yes"/>
      <point x="85" y="100"/>
      <point x="77" y="70"/>
      <point x="70" y="55" type="curve"/>
      <point x="65" y="46"/>
      <point x="23" y="33"/>
      <point x="-1" y="33" type="curve" smooth="yes"/>
      <point x="-4" y="33"/>
      <point x="-6" y="28"/>
      <point x="-8" y="13" type="curve" smooth="yes"/>
      <point x="-9" y="4"/>
      <point x="-10" y="-1"/>
      <point x="-8" y="-4" type="curve"/>
      <point x="32" y="-2"/>
      <point x="90" y="2"/>
      <point x="129" y="2" type="curve" smooth="yes"/>
      <point x="158" y="2"/>
      <point x="212" y="1"/>
      <point x="293" y="0" type="curve" smooth="yes"/>
      <point x="354" y="-1"/>
      <point x="413" y="-2"/>
      <point x="451" y="-2" type="curve"/>
      <point x="458" y="20"/>
      <point x="484" y="72"/>
      <point x="538" y="170" type="curve"/>
      <point x="535" y="174"/>
      <point x="525" y="176"/>
      <point x="509" y="176" type="curve" smooth="yes"/>
      <point x="501" y="176"/>
      <point x="496" y="174"/>
      <point x="494" y="170" type="curve"/>
      <point x="449" y="92"/>
      <point x="380" y="51"/>
      <point x="308" y="51" type="curve" smooth="yes"/>
      <point x="282" y="51" type="line" smooth="yes"/>
      <point x="239" y="51"/>
      <point x="218" y="59"/>
      <point x="217" y="70" type="curve" smooth="yes"/>
      <point x="215" y="89"/>
      <point x="218" y="116"/>
      <point x="223" y="142" type="curve" smooth="yes"/>
      <point x="296" y="521" type="line" smooth="yes"/>
      <point x="305" y="564"/>
      <point x="311" y="586"/>
      <point x="319" y="601" type="curve" smooth="yes"/>
      <point x="322" y="608"/>
      <point x="372" y="625"/>
      <point x="389" y="625" type="curve" smooth="yes"/>
      <point x="392" y="625"/>
      <point x="394" y="630"/>
      <point x="396" y="644" type="curve" smooth="yes"/>
      <point x="397" y="650"/>
      <point x="398" y="656"/>
      <point x="397" y="662" type="curve"/>
      <point x="321" y="658"/>
      <point x="270" y="656"/>
    </contour>
    <contour>
      <point x="252" y="0" type="move" name="bottom"/>
    </contour>
    <contour>
      <point x="214" y="329" type="move" name="center"/>
    </contour>
    <contour>
      <point x="428" y="329" type="move" name="dotacc"/>
    </contour>
    <contour>
      <point x="380" y="658" type="move" name="top"/>
    </contour>
    <contour>
      <point x="418" y="439" type="move" name="topright"/>
    </contour>
  </outline>
</glyph>
<glyph name="M" format="1">
  <advance width="857"/>
  <unicode hex="004D"/>
  <note>
    M
  </note>
  <outline>
    <contour>
      <point x="-47" y="-4" type="curve"/>
      <point x="17" y="0"/>
      <point x="46" y="4"/>
      <point x="84" y="4" type="curve" smooth="yes"/>
      <point x="98" y="4"/>
      <point x="140" y="4"/>
      <point x="218" y="-4" type="curve"/>
      <point x="220" y="0"/>
      <point x="222" y="6"/>
      <point x="224" y="13" type="curve" smooth="yes"/>
      <point x="228" y="26"/>
      <point x="226" y="33"/>
      <point x="223" y="33" type="curve" smooth="yes"/>
      <point x="213" y="33"/>
      <point x="141" y="56"/>
      <point x="140" y="73" type="curve"/>
      <point x="140" y="78"/>
      <point x="143" y="90"/>
      <point x="146" y="109" type="curve"/>
      <point x="247" y="539" type="line"/>
      <point x="228" y="565" type="line"/>
      <point x="350" y="20" type="line" smooth="yes"/>
      <point x="354" y="4"/>
      <point x="360" y="-2"/>
      <point x="367" y="-2" type="curve" smooth="yes"/>
      <point x="379" y="-2"/>
      <point x="384" y="4"/>
      <point x="400" y="31" type="curve" smooth="yes"/>
      <point x="709" y="554" type="line"/>
      <point x="666" y="509" type="line"/>
      <point x="667" y="499"/>
      <point x="671" y="477"/>
      <point x="663" y="432" type="curve"/>
      <point x="611" y="109" type="line" smooth="yes"/>
      <point x="606" y="80"/>
      <point x="601" y="71"/>
      <point x="594" y="61" type="curve" smooth="yes"/>
      <point x="585" y="48"/>
      <point x="541" y="33"/>
      <point x="526" y="33" type="curve" smooth="yes"/>
      <point x="524" y="33"/>
      <point x="521" y="26"/>
      <point x="519" y="12" type="curve" smooth="yes"/>
      <point x="518" y="5"/>
      <point x="519" y="-1"/>
      <point x="521" y="-4" type="curve"/>
      <point x="551" y="0"/>
      <point x="629" y="4"/>
      <point x="665" y="4" type="curve" smooth="yes"/>
      <point x="700" y="4"/>
      <point x="768" y="-3"/>
      <point x="783" y="-4" type="curve"/>
      <point x="785" y="0"/>
      <point x="787" y="6"/>
      <point x="789" y="13" type="curve" smooth="yes"/>
      <point x="793" y="26"/>
      <point x="791" y="33"/>
      <point x="788" y="33" type="curve" smooth="yes"/>
      <point x="776" y="33"/>
      <point x="738" y="48"/>
      <point x="736" y="60" type="curve"/>
      <point x="732" y="81"/>
      <point x="733" y="111"/>
      <point x="739" y="152" type="curve" smooth="yes"/>
      <point x="800" y="572" type="line" smooth="yes"/>
      <point x="803" y="592"/>
      <point x="811" y="606"/>
      <point x="822" y="613" type="curve" smooth="yes"/>
      <point x="835" y="621"/>
      <point x="850" y="625"/>
      <point x="868" y="625" type="curve" smooth="yes"/>
      <point x="871" y="625"/>
      <point x="875" y="632"/>
      <point x="877" y="646" type="curve" smooth="yes"/>
      <point x="878" y="653"/>
      <point x="878" y="658"/>
      <point x="876" y="662" type="curve"/>
      <point x="825" y="657"/>
      <point x="773" y="656"/>
      <point x="749" y="656" type="curve" smooth="yes"/>
      <point x="714" y="656"/>
      <point x="697" y="657"/>
      <point x="685" y="658" type="curve"/>
      <point x="669" y="621"/>
      <point x="637" y="554"/>
      <point x="615" y="517" type="curve" smooth="yes"/>
      <point x="441" y="221" type="line"/>
      <point x="439" y="218"/>
      <point x="438" y="216"/>
      <point x="436" y="216" type="curve" smooth="yes"/>
      <point x="434" y="216"/>
      <point x="432" y="219"/>
      <point x="430" y="229" type="curve" smooth="yes"/>
      <point x="370" y="524" type="line" smooth="yes"/>
      <point x="359" y="579"/>
      <point x="342" y="641"/>
      <point x="339" y="662" type="curve"/>
      <point x="312" y="659"/>
      <point x="259" y="656"/>
      <point x="242" y="656" type="curve" smooth="yes"/>
      <point x="217" y="656"/>
      <point x="156" y="660"/>
      <point x="128" y="662" type="curve"/>
      <point x="124" y="659"/>
      <point x="122" y="654"/>
      <point x="121" y="647" type="curve" smooth="yes"/>
      <point x="119" y="633"/>
      <point x="118" y="626"/>
      <point x="121" y="626" type="curve" smooth="yes"/>
      <point x="138" y="626"/>
      <point x="189" y="616"/>
      <point x="191" y="605" type="curve"/>
      <point x="192" y="600"/>
      <point x="191" y="594"/>
      <point x="183" y="557" type="curve" smooth="yes"/>
      <point x="175" y="522"/>
      <point x="150" y="410"/>
      <point x="120" y="285" type="curve" smooth="yes"/>
      <point x="104" y="218"/>
      <point x="90" y="159"/>
      <point x="74" y="97" type="curve" smooth="yes"/>
      <point x="69" y="78"/>
      <point x="63" y="70"/>
      <point x="51" y="60" type="curve"/>
      <point x="26" y="45"/>
      <point x="-23" y="32"/>
      <point x="-41" y="32" type="curve" smooth="yes"/>
      <point x="-43" y="32"/>
      <point x="-46" y="26"/>
      <point x="-47" y="13" type="curve" smooth="yes"/>
      <point x="-48" y="4"/>
      <point x="-49" y="-1"/>
    </contour>
    <contour>
      <point x="366" y="0" type="move" name="bottom"/>
    </contour>
    <contour>
      <point x="494" y="658" type="move" name="top"/>
    </contour>
  </outline>
</glyph>
<glyph name="O" format="1">
  <advance width="695"/>
  <unicode hex="004F"/>
  <note>
    O
  </note>
  <outline>
    <contour>
      <point x="303" y="-10" type="curve" smooth="yes"/>
      <point x="496" y="-10"/>
      <point x="678" y="194"/>
      <point x="678" y="399" type="curve" smooth="yes"/>
      <point x="678" y="553"/>
      <point x="575" y="668"/>
      <point x="435" y="668" type="curve" smooth="yes"/>
      <point x="243" y="668"/>
      <point x="59" y="463"/>
      <point x="59" y="258" type="curve" smooth="yes"/>
      <point x="59" y="104"/>
      <point x="161" y="-10"/>
    </contour>
    <contour>
      <point x="317" y="43" type="curve" smooth="yes"/>
      <point x="245" y="43"/>
      <point x="205" y="125"/>
      <point x="205" y="241" type="curve" smooth="yes"/>
      <point x="205" y="401"/>
      <point x="289" y="615"/>
      <point x="418" y="615" type="curve" smooth="yes"/>
      <point x="491" y="615"/>
      <point x="532" y="532"/>
      <point x="532" y="416" type="curve" smooth="yes"/>
      <point x="532" y="256"/>
      <point x="446" y="43"/>
    </contour>
    <contour>
      <point x="315" y="0" type="move" name="bottom"/>
    </contour>
    <contour>
      <point x="379" y="329" type="move" name="center"/>
    </contour>
    <contour>
      <point x="408" y="10" type="move" name="ogonek"/>
    </contour>
    <contour>
      <point x="443" y="658" type="move" name="top"/>
    </contour>
    <contour>
      <point x="115" y="658" type="move" name="topleft"/>
    </contour>
    <contour>
      <point x="620" y="658" type="move" name="topright"/>
    </contour>
  </outline>
</glyph>
<glyph name="P" format="1">
  <advance width="559"/>
  <unicode hex="0050"/>
  <note>
    P
  </note>
  <outline>
    <contour>
      <point x="256" y="659" type="curve" smooth="yes"/>
      <point x="218" y="659"/>
      <point x="179" y="661"/>
      <point x="120" y="664" type="curve"/>
      <point x="118" y="662"/>
      <point x="115" y="656"/>
      <point x="113" y="645" type="curve" smooth="yes"/>
      <point x="111" y="633"/>
      <point x="111" y="627"/>
      <point x="114" y="627" type="curve" smooth="yes"/>
      <point x="132" y="627"/>
      <point x="174" y="608"/>
      <point x="175" y="599" type="curve"/>
      <point x="176" y="584"/>
      <point x="173" y="558"/>
      <point x="166" y="521" type="curve" smooth="yes"/>
      <point x="93" y="143" type="line" smooth="yes"/>
      <point x="85" y="100"/>
      <point x="76" y="70"/>
      <point x="70" y="55" type="curve"/>
      <point x="65" y="47"/>
      <point x="20" y="33"/>
      <point x="-1" y="33" type="curve" smooth="yes"/>
      <point x="-4" y="33"/>
      <point x="-6" y="26"/>
      <point x="-9" y="13" type="curve" smooth="yes"/>
      <point x="-11" y="4"/>
      <point x="-10" y="-1"/>
      <point x="-8" y="-4" type="curve"/>
      <point x="41" y="-2"/>
      <point x="90" y="2"/>
      <point x="129" y="2" type="curve" smooth="yes"/>
      <point x="151" y="2"/>
      <point x="202" y="0"/>
      <point x="291" y="-4" type="curve"/>
      <point x="293" y="0"/>
      <point x="295" y="6"/>
      <point x="297" y="14" type="curve" smooth="yes"/>
      <point x="299" y="27"/>
      <point x="299" y="33"/>
      <point x="296" y="33" type="curve" smooth="yes"/>
      <point x="254" y="33"/>
      <point x="214" y="47"/>
      <point x="213" y="59" type="curve" smooth="yes"/>
      <point x="212" y="80"/>
      <point x="216" y="107"/>
      <point x="222" y="141" type="curve" smooth="yes"/>
      <point x="292" y="499" type="line" smooth="yes"/>
      <point x="303" y="558"/>
      <point x="314" y="594"/>
      <point x="323" y="600" type="curve" smooth="yes"/>
      <point x="331" y="605"/>
      <point x="345" y="608"/>
      <point x="358" y="608" type="curve" smooth="yes"/>
      <point x="410" y="608"/>
      <point x="437" y="576"/>
      <point x="437" y="509" type="curve" smooth="yes"/>
      <point x="437" y="430"/>
      <point x="399" y="332"/>
      <point x="325" y="332" type="curve" smooth="yes"/>
      <point x="304" y="332"/>
      <point x="290" y="335"/>
      <point x="281" y="340" type="curve"/>
      <point x="279" y="338"/>
      <point x="276" y="332"/>
      <point x="275" y="325" type="curve" smooth="yes"/>
      <point x="273" y="316"/>
      <point x="277" y="307"/>
      <point x="277" y="306" type="curve" smooth="yes"/>
      <point x="284" y="289"/>
      <point x="316" y="280"/>
      <point x="357" y="280" type="curve" smooth="yes"/>
      <point x="460" y="280"/>
      <point x="577" y="368"/>
      <point x="577" y="499" type="curve" smooth="yes"/>
      <point x="577" y="611"/>
      <point x="492" y="662"/>
      <point x="382" y="662" type="curve" smooth="yes"/>
      <point x="355" y="662"/>
      <point x="297" y="659"/>
    </contour>
    <contour>
      <point x="238" y="0" type="move" name="bottom"/>
    </contour>
    <contour>
      <point x="366" y="658" type="move" name="top"/>
    </contour>
  </outline>
</glyph>
<glyph name="Q" format="1">
  <advance width="695"/>
  <unicode hex="0051"/>
  <note>
    Q
  </note>
  <outline>
    <contour>
      <point x="760" y="-58" type="curve"/>
      <point x="731" y="-85"/>
      <point x="668" y="-109"/>
      <point x="627" y="-109" type="curve" smooth="yes"/>
      <point x="575" y="-109"/>
      <point x="519" y="-97"/>
      <point x="455" y="-73" type="curve" smooth="yes"/>
      <point x="351" y="-34"/>
      <point x="316" y="-24"/>
      <point x="286" y="-24" type="curve"/>
      <point x="300" y="-28" type="line"/>
      <point x="316" y="-31"/>
      <point x="379" y="-8"/>
      <point x="447" y="27" type="curve" smooth="yes"/>
      <point x="578" y="93"/>
      <point x="678" y="254"/>
      <point x="678" y="399" type="curve" smooth="yes"/>
      <point x="678" y="553"/>
      <point x="575" y="668"/>
      <point x="435" y="668" type="curve" smooth="yes"/>
      <point x="245" y="668"/>
      <point x="59" y="465"/>
      <point x="59" y="258" type="curve" smooth="yes"/>
      <point x="59" y="103"/>
      <point x="162" y="-10"/>
      <point x="303" y="-10" type="curve"/>
      <point x="310" y="9" type="line"/>
      <point x="117" y="-27" type="line"/>
      <point x="113" y="-29"/>
      <point x="105" y="-53"/>
      <point x="105" y="-64" type="curve"/>
      <point x="150" y="-70"/>
      <point x="190" y="-81"/>
      <point x="270" y="-110" type="curve" smooth="yes"/>
      <point x="333" y="-132"/>
      <point x="394" y="-156"/>
      <point x="426" y="-168" type="curve" smooth="yes"/>
      <point x="477" y="-187"/>
      <point x="522" y="-195"/>
      <point x="566" y="-195" type="curve" smooth="yes"/>
      <point x="638" y="-195"/>
      <point x="746" y="-138"/>
      <point x="785" y="-85" type="curve"/>
      <point x="785" y="-77"/>
      <point x="769" y="-59"/>
    </contour>
    <contour>
      <point x="205" y="241" type="curve" smooth="yes"/>
      <point x="205" y="434"/>
      <point x="308" y="615"/>
      <point x="418" y="615" type="curve" smooth="yes"/>
      <point x="488" y="615"/>
      <point x="532" y="538"/>
      <point x="532" y="416" type="curve" smooth="yes"/>
      <point x="532" y="224"/>
      <point x="428" y="43"/>
      <point x="317" y="43" type="curve" smooth="yes"/>
      <point x="248" y="43"/>
      <point x="205" y="119"/>
    </contour>
  </outline>
</glyph>
<glyph name="R" format="1">
  <advance width="654"/>
  <unicode hex="0052"/>
  <note>
    R
  </note>
  <outline>
    <contour>
      <point x="362" y="608" type="curve" smooth="yes"/>
      <point x="414" y="608"/>
      <point x="443" y="576"/>
      <point x="443" y="518" type="curve" smooth="yes"/>
      <point x="443" y="425"/>
      <point x="395" y="345"/>
      <point x="300" y="345" type="curve" smooth="yes"/>
      <point x="295" y="345" type="line" smooth="yes"/>
      <point x="284" y="345"/>
      <point x="272" y="346"/>
      <point x="263" y="348" type="curve"/>
      <point x="292" y="499" type="line" smooth="yes"/>
      <point x="304" y="559"/>
      <point x="313" y="595"/>
      <point x="321" y="600" type="curve" smooth="yes"/>
      <point x="329" y="605"/>
      <point x="340" y="608"/>
    </contour>
    <contour>
      <point x="416" y="660" type="curve" smooth="yes"/>
      <point x="363" y="660"/>
      <point x="272" y="659"/>
      <point x="256" y="659" type="curve" smooth="yes"/>
      <point x="219" y="659"/>
      <point x="181" y="661"/>
      <point x="120" y="664" type="curve"/>
      <point x="118" y="662"/>
      <point x="116" y="656"/>
      <point x="114" y="645" type="curve" smooth="yes"/>
      <point x="112" y="633"/>
      <point x="111" y="627"/>
      <point x="114" y="627" type="curve" smooth="yes"/>
      <point x="129" y="627"/>
      <point x="174" y="610"/>
      <point x="176" y="599" type="curve"/>
      <point x="177" y="584"/>
      <point x="173" y="558"/>
      <point x="166" y="521" type="curve" smooth="yes"/>
      <point x="93" y="143" type="line" smooth="yes"/>
      <point x="85" y="100"/>
      <point x="77" y="70"/>
      <point x="70" y="55" type="curve"/>
      <point x="64" y="44"/>
      <point x="16" y="33"/>
      <point x="0" y="33" type="curve" smooth="yes"/>
      <point x="-3" y="33"/>
      <point x="-7" y="26"/>
      <point x="-8" y="13" type="curve" smooth="yes"/>
      <point x="-9" y="4"/>
      <point x="-10" y="-1"/>
      <point x="-8" y="-4" type="curve"/>
      <point x="42" y="-1"/>
      <point x="91" y="2"/>
      <point x="130" y="2" type="curve" smooth="yes"/>
      <point x="152" y="2"/>
      <point x="202" y="0"/>
      <point x="281" y="-4" type="curve"/>
      <point x="283" y="0"/>
      <point x="285" y="6"/>
      <point x="287" y="14" type="curve" smooth="yes"/>
      <point x="289" y="27"/>
      <point x="290" y="33"/>
      <point x="287" y="33" type="curve" smooth="yes"/>
      <point x="267" y="33"/>
      <point x="215" y="43"/>
      <point x="214" y="59" type="curve" smooth="yes"/>
      <point x="213" y="80"/>
      <point x="216" y="107"/>
      <point x="223" y="141" type="curve" smooth="yes"/>
      <point x="253" y="295" type="line"/>
      <point x="256" y="296"/>
      <point x="259" y="296"/>
      <point x="262" y="296" type="curve" smooth="yes"/>
      <point x="272" y="296"/>
      <point x="279" y="290"/>
      <point x="282" y="284" type="curve" smooth="yes"/>
      <point x="350" y="133" type="line" smooth="yes"/>
      <point x="393" y="37"/>
      <point x="451" y="-7"/>
      <point x="589" y="-7" type="curve" smooth="yes"/>
      <point x="603" y="-7"/>
      <point x="615" y="-6"/>
      <point x="624" y="-5" type="curve"/>
      <point x="628" y="1"/>
      <point x="631" y="8"/>
      <point x="632" y="15" type="curve" smooth="yes"/>
      <point x="634" y="24"/>
      <point x="634" y="30"/>
      <point x="632" y="33" type="curve"/>
      <point x="578" y="33"/>
      <point x="530" y="88"/>
      <point x="491" y="156" type="curve" smooth="yes"/>
      <point x="459" y="212"/>
      <point x="434" y="270"/>
      <point x="400" y="319" type="curve"/>
      <point x="394" y="303" type="line"/>
      <point x="511" y="340"/>
      <point x="587" y="418"/>
      <point x="587" y="527" type="curve" smooth="yes"/>
      <point x="587" y="608"/>
      <point x="522" y="660"/>
    </contour>
    <contour>
      <point x="307" y="0" type="move" name="bottom"/>
    </contour>
    <contour>
      <point x="435" y="658" type="move" name="top"/>
    </contour>
  </outline>
</glyph>
<glyph name="T" format="1">
  <advance width="625"/>
  <unicode hex="0054"/>
  <note>
    T
  </note>
  <outline>
    <contour>
      <point x="186" y="663" type="curve" smooth="yes"/>
      <point x="165" y="664"/>
      <point x="144" y="668"/>
      <point x="119" y="674" type="curve"/>
      <point x="68" y="511" type="line"/>
      <point x="72" y="506"/>
      <point x="81" y="504"/>
      <point x="96" y="504" type="curve" smooth="yes"/>
      <point x="102" y="504"/>
      <point x="105" y="506"/>
      <point x="107" y="509" type="curve"/>
      <point x="138" y="577"/>
      <point x="176" y="610"/>
      <point x="233" y="610" type="curve" smooth="yes"/>
      <point x="280" y="610"/>
      <point x="305" y="608"/>
      <point x="312" y="593" type="curve"/>
      <point x="315" y="584"/>
      <point x="311" y="549"/>
      <point x="301" y="497" type="curve" smooth="yes"/>
      <point x="231" y="135" type="line" smooth="yes"/>
      <point x="225" y="102"/>
      <point x="218" y="76"/>
      <point x="209" y="58" type="curve"/>
      <point x="204" y="49"/>
      <point x="158" y="33"/>
      <point x="118" y="33" type="curve" smooth="yes"/>
      <point x="116" y="33"/>
      <point x="114" y="26"/>
      <point x="111" y="12" type="curve" smooth="yes"/>
      <point x="109" y="4"/>
      <point x="110" y="-1"/>
      <point x="112" y="-4" type="curve"/>
      <point x="161" y="-2"/>
      <point x="243" y="4"/>
      <point x="279" y="4" type="curve" smooth="yes"/>
      <point x="328" y="4"/>
      <point x="374" y="-2"/>
      <point x="426" y="-4" type="curve"/>
      <point x="428" y="0"/>
      <point x="430" y="6"/>
      <point x="432" y="14" type="curve" smooth="yes"/>
      <point x="435" y="27"/>
      <point x="434" y="33"/>
      <point x="431" y="33" type="curve" smooth="yes"/>
      <point x="395" y="33"/>
      <point x="355" y="51"/>
      <point x="354" y="58" type="curve" smooth="yes"/>
      <point x="351" y="79"/>
      <point x="356" y="106"/>
      <point x="362" y="139" type="curve" smooth="yes"/>
      <point x="432" y="500" type="line" smooth="yes"/>
      <point x="440" y="541"/>
      <point x="449" y="574"/>
      <point x="458" y="593" type="curve"/>
      <point x="463" y="607"/>
      <point x="502" y="610"/>
      <point x="546" y="610" type="curve" smooth="yes"/>
      <point x="601" y="610"/>
      <point x="629" y="574"/>
      <point x="634" y="508" type="curve"/>
      <point x="634" y="505"/>
      <point x="637" y="503"/>
      <point x="643" y="503" type="curve" smooth="yes"/>
      <point x="658" y="503"/>
      <point x="667" y="505"/>
      <point x="673" y="510" type="curve"/>
      <point x="686" y="674" type="line"/>
      <point x="659" y="668"/>
      <point x="636" y="664"/>
      <point x="615" y="663" type="curve" smooth="yes"/>
      <point x="551" y="660"/>
      <point x="457" y="657"/>
      <point x="404" y="657" type="curve" smooth="yes"/>
      <point x="341" y="657"/>
      <point x="248" y="660"/>
    </contour>
    <contour>
      <point x="270" y="0" type="move" name="bottom"/>
    </contour>
    <contour>
      <point x="334" y="330" type="move" name="stroke"/>
    </contour>
    <contour>
      <point x="398" y="658" type="move" name="top"/>
    </contour>
  </outline>
</glyph>
<glyph name="U" format="1">
  <advance width="701"/>
  <unicode hex="0055"/>
  <note>
    U
  </note>
  <outline>
    <contour>
      <point x="252" y="656" type="curve" smooth="yes"/>
      <point x="227" y="656"/>
      <point x="199" y="658"/>
      <point x="118" y="662" type="curve"/>
      <point x="117" y="661"/>
      <point x="114" y="654"/>
      <point x="112" y="642" type="curve" smooth="yes"/>
      <point x="110" y="631"/>
      <point x="110" y="625"/>
      <point x="113" y="625" type="curve" smooth="yes"/>
      <point x="130" y="625"/>
      <point x="166" y="609"/>
      <point x="170" y="600" type="curve"/>
      <point x="173" y="591"/>
      <point x="171" y="565"/>
      <point x="163" y="522" type="curve" smooth="yes"/>
      <point x="118" y="291" type="line" smooth="yes"/>
      <point x="80" y="96"/>
      <point x="155" y="-5"/>
      <point x="319" y="-5" type="curve" smooth="yes"/>
      <point x="461" y="-5"/>
      <point x="569" y="76"/>
      <point x="605" y="261" type="curve" smooth="yes"/>
      <point x="655" y="519" type="line" smooth="yes"/>
      <point x="662" y="556"/>
      <point x="672" y="581"/>
      <point x="683" y="592" type="curve" smooth="yes"/>
      <point x="706" y="615"/>
      <point x="736" y="625"/>
      <point x="773" y="625" type="curve" smooth="yes"/>
      <point x="776" y="625"/>
      <point x="779" y="631"/>
      <point x="781" y="644" type="curve" smooth="yes"/>
      <point x="782" y="651"/>
      <point x="783" y="657"/>
      <point x="781" y="662" type="curve"/>
      <point x="765" y="661"/>
      <point x="688" y="654"/>
      <point x="655" y="654" type="curve" smooth="yes"/>
      <point x="628" y="654"/>
      <point x="589" y="657"/>
      <point x="529" y="662" type="curve"/>
      <point x="528" y="661"/>
      <point x="526" y="656"/>
      <point x="524" y="648" type="curve" smooth="yes"/>
      <point x="521" y="635"/>
      <point x="522" y="625"/>
      <point x="525" y="625" type="curve" smooth="yes"/>
      <point x="548" y="625"/>
      <point x="590" y="608"/>
      <point x="597" y="596" type="curve" smooth="yes"/>
      <point x="603" y="585"/>
      <point x="603" y="562"/>
      <point x="596" y="524" type="curve" smooth="yes"/>
      <point x="546" y="266" type="line" smooth="yes"/>
      <point x="517" y="118"/>
      <point x="449" y="72"/>
      <point x="354" y="72" type="curve" smooth="yes"/>
      <point x="265" y="72"/>
      <point x="217" y="135"/>
      <point x="243" y="269" type="curve" smooth="yes"/>
      <point x="291" y="516" type="line" smooth="yes"/>
      <point x="299" y="555"/>
      <point x="307" y="583"/>
      <point x="315" y="601" type="curve" smooth="yes"/>
      <point x="318" y="608"/>
      <point x="368" y="625"/>
      <point x="385" y="625" type="curve" smooth="yes"/>
      <point x="388" y="625"/>
      <point x="390" y="631"/>
      <point x="392" y="644" type="curve" smooth="yes"/>
      <point x="393" y="650"/>
      <point x="394" y="656"/>
      <point x="393" y="662" type="curve"/>
      <point x="312" y="658"/>
      <point x="265" y="656"/>
    </contour>
    <contour>
      <point x="320" y="0" type="move" name="bottom"/>
    </contour>
    <contour>
      <point x="415" y="10" type="move" name="ogonek"/>
    </contour>
    <contour>
      <point x="448" y="658" type="move" name="top"/>
    </contour>
    <contour>
      <point x="804" y="658" type="move" name="topright"/>
    </contour>
  </outline>
</glyph>
<glyph name="V" format="1">
  <advance width="667"/>
  <unicode hex="0056"/>
  <note>
    V
  </note>
  <outline>
    <contour>
      <point x="283" y="-10" type="curve" smooth="yes"/>
      <point x="299" y="-10"/>
      <point x="309" y="3"/>
      <point x="318" y="18" type="curve" smooth="yes"/>
      <point x="626" y="524" type="line" smooth="yes"/>
      <point x="653" y="569"/>
      <point x="673" y="592"/>
      <point x="679" y="597" type="curve"/>
      <point x="702" y="613"/>
      <point x="743" y="626"/>
      <point x="758" y="626" type="curve" smooth="yes"/>
      <point x="759" y="626"/>
      <point x="762" y="633"/>
      <point x="764" y="647" type="curve" smooth="yes"/>
      <point x="765" y="654"/>
      <point x="766" y="659"/>
      <point x="763" y="662" type="curve"/>
      <point x="702" y="659"/>
      <point x="665" y="655"/>
      <point x="649" y="655" type="curve" smooth="yes"/>
      <point x="635" y="655"/>
      <point x="614" y="656"/>
      <point x="534" y="662" type="curve"/>
      <point x="533" y="658"/>
      <point x="530" y="651"/>
      <point x="528" y="641" type="curve" smooth="yes"/>
      <point x="526" y="631"/>
      <point x="526" y="626"/>
      <point x="528" y="625" type="curve"/>
      <point x="568" y="625"/>
      <point x="596" y="610"/>
      <point x="592" y="590" type="curve" smooth="yes"/>
      <point x="589" y="575"/>
      <point x="577" y="553"/>
      <point x="559" y="522" type="curve" smooth="yes"/>
      <point x="342" y="157" type="line"/>
      <point x="371" y="157" type="line"/>
      <point x="304" y="523" type="line" smooth="yes"/>
      <point x="297" y="561"/>
      <point x="293" y="583"/>
      <point x="294" y="589" type="curve" smooth="yes"/>
      <point x="298" y="613"/>
      <point x="344" y="625"/>
      <point x="367" y="625" type="curve" smooth="yes"/>
      <point x="370" y="625"/>
      <point x="372" y="631"/>
      <point x="374" y="642" type="curve" smooth="yes"/>
      <point x="376" y="653"/>
      <point x="377" y="659"/>
      <point x="374" y="662" type="curve"/>
      <point x="277" y="657"/>
      <point x="247" y="654"/>
      <point x="228" y="654" type="curve" smooth="yes"/>
      <point x="212" y="654"/>
      <point x="126" y="658"/>
      <point x="89" y="662" type="curve"/>
      <point x="88" y="660"/>
      <point x="86" y="653"/>
      <point x="83" y="642" type="curve" smooth="yes"/>
      <point x="80" y="631"/>
      <point x="81" y="625"/>
      <point x="84" y="625" type="curve" smooth="yes"/>
      <point x="103" y="625"/>
      <point x="147" y="613"/>
      <point x="151" y="592" type="curve"/>
      <point x="152" y="587"/>
      <point x="159" y="559"/>
      <point x="168" y="510" type="curve" smooth="yes"/>
      <point x="262" y="12" type="line" smooth="yes"/>
      <point x="265" y="-4"/>
      <point x="271" y="-10"/>
    </contour>
    <contour>
      <point x="288" y="0" type="move" name="bottom"/>
    </contour>
    <contour>
      <point x="416" y="658" type="move" name="top"/>
    </contour>
  </outline>
</glyph>
<glyph name="X" format="1">
  <advance width="703"/>
  <unicode hex="0058"/>
  <note>
    X
  </note>
  <outline>
    <contour>
      <point x="-39" y="-4" type="curve"/>
      <point x="42" y="0"/>
      <point x="85" y="2"/>
      <point x="90" y="2" type="curve" smooth="yes"/>
      <point x="112" y="2"/>
      <point x="160" y="0"/>
      <point x="225" y="-4" type="curve"/>
      <point x="227" y="-1"/>
      <point x="229" y="4"/>
      <point x="230" y="12" type="curve" smooth="yes"/>
      <point x="233" y="26"/>
      <point x="232" y="33"/>
      <point x="229" y="33" type="curve" smooth="yes"/>
      <point x="194" y="33"/>
      <point x="158" y="46"/>
      <point x="162" y="66" type="curve" smooth="yes"/>
      <point x="164" y="76"/>
      <point x="171" y="88"/>
      <point x="194" y="111" type="curve" smooth="yes"/>
      <point x="341" y="261" type="line"/>
      <point x="424" y="82" type="line" smooth="yes"/>
      <point x="429" y="72"/>
      <point x="431" y="65"/>
      <point x="430" y="61" type="curve" smooth="yes"/>
      <point x="427" y="45"/>
      <point x="385" y="33"/>
      <point x="368" y="33" type="curve" smooth="yes"/>
      <point x="365" y="33"/>
      <point x="361" y="22"/>
      <point x="359" y="12" type="curve" smooth="yes"/>
      <point x="358" y="5"/>
      <point x="358" y="-2"/>
      <point x="359" y="-4" type="curve"/>
      <point x="395" y="-2"/>
      <point x="483" y="2"/>
      <point x="508" y="2" type="curve" smooth="yes"/>
      <point x="525" y="2"/>
      <point x="574" y="0"/>
      <point x="653" y="-4" type="curve"/>
      <point x="656" y="0"/>
      <point x="658" y="5"/>
      <point x="659" y="11" type="curve" smooth="yes"/>
      <point x="662" y="26"/>
      <point x="662" y="33"/>
      <point x="660" y="33" type="curve" smooth="yes"/>
      <point x="643" y="33"/>
      <point x="596" y="44"/>
      <point x="571" y="97" type="curve" smooth="yes"/>
      <point x="445" y="363" type="line"/>
      <point x="666" y="586" type="line" smooth="yes"/>
      <point x="694" y="615"/>
      <point x="744" y="625"/>
      <point x="763" y="625" type="curve" smooth="yes"/>
      <point x="766" y="625"/>
      <point x="768" y="630"/>
      <point x="770" y="641" type="curve" smooth="yes"/>
      <point x="772" y="652"/>
      <point x="772" y="659"/>
      <point x="771" y="662" type="curve"/>
      <point x="690" y="658"/>
      <point x="646" y="656"/>
      <point x="637" y="656" type="curve" smooth="yes"/>
      <point x="628" y="656"/>
      <point x="590" y="658"/>
      <point x="517" y="662" type="curve"/>
      <point x="514" y="660"/>
      <point x="511" y="652"/>
      <point x="509" y="644" type="curve" smooth="yes"/>
      <point x="507" y="634"/>
      <point x="508" y="625"/>
      <point x="511" y="625" type="curve" smooth="yes"/>
      <point x="547" y="625"/>
      <point x="582" y="612"/>
      <point x="579" y="599" type="curve" smooth="yes"/>
      <point x="576" y="585"/>
      <point x="564" y="567"/>
      <point x="536" y="539" type="curve" smooth="yes"/>
      <point x="419" y="421" type="line"/>
      <point x="343" y="582" type="line" smooth="yes"/>
      <point x="339" y="590"/>
      <point x="338" y="597"/>
      <point x="339" y="604" type="curve"/>
      <point x="343" y="617"/>
      <point x="377" y="625"/>
      <point x="397" y="625" type="curve" smooth="yes"/>
      <point x="399" y="625"/>
      <point x="403" y="636"/>
      <point x="405" y="647" type="curve" smooth="yes"/>
      <point x="406" y="654"/>
      <point x="406" y="660"/>
      <point x="406" y="662" type="curve"/>
      <point x="325" y="658"/>
      <point x="287" y="656"/>
      <point x="271" y="656" type="curve" smooth="yes"/>
      <point x="249" y="656"/>
      <point x="174" y="659"/>
      <point x="131" y="662" type="curve"/>
      <point x="127" y="659"/>
      <point x="125" y="653"/>
      <point x="123" y="642" type="curve" smooth="yes"/>
      <point x="121" y="631"/>
      <point x="121" y="625"/>
      <point x="124" y="625" type="curve" smooth="yes"/>
      <point x="145" y="625"/>
      <point x="162" y="620"/>
      <point x="174" y="610" type="curve" smooth="yes"/>
      <point x="181" y="605"/>
      <point x="194" y="579"/>
      <point x="213" y="537" type="curve" smooth="yes"/>
      <point x="314" y="319" type="line"/>
      <point x="63" y="67" type="line" smooth="yes"/>
      <point x="43" y="47"/>
      <point x="-15" y="33"/>
      <point x="-32" y="33" type="curve" smooth="yes"/>
      <point x="-35" y="33"/>
      <point x="-37" y="25"/>
      <point x="-40" y="10" type="curve" smooth="yes"/>
      <point x="-40" y="9"/>
      <point x="-40" y="4"/>
    </contour>
    <contour>
      <point x="310" y="0" type="move" name="bottom"/>
    </contour>
    <contour>
      <point x="438" y="658" type="move" name="top"/>
    </contour>
  </outline>
</glyph>
<glyph name="Y" format="1">
  <advance width="616"/>
  <unicode hex="0059"/>
  <note>
    Y
  </note>
  <outline>
    <contour>
      <point x="123" y="-4" type="curve"/>
      <point x="153" y="-2"/>
      <point x="224" y="4"/>
      <point x="260" y="4" type="curve" smooth="yes"/>
      <point x="280" y="4"/>
      <point x="371" y="-1"/>
      <point x="397" y="-4" type="curve"/>
      <point x="399" y="2"/>
      <point x="402" y="9"/>
      <point x="403" y="14" type="curve" smooth="yes"/>
      <point x="405" y="28"/>
      <point x="405" y="33"/>
      <point x="402" y="33" type="curve" smooth="yes"/>
      <point x="386" y="33"/>
      <point x="346" y="51"/>
      <point x="345" y="58" type="curve" smooth="yes"/>
      <point x="345" y="81"/>
      <point x="348" y="111"/>
      <point x="354" y="145" type="curve" smooth="yes"/>
      <point x="385" y="304" type="line" smooth="yes"/>
      <point x="387" y="312"/>
      <point x="398" y="329"/>
      <point x="415" y="350" type="curve" smooth="yes"/>
      <point x="574" y="548" type="line" smooth="yes"/>
      <point x="588" y="566"/>
      <point x="603" y="581"/>
      <point x="611" y="590" type="curve" smooth="yes"/>
      <point x="630" y="611"/>
      <point x="667" y="626"/>
      <point x="696" y="626" type="curve" smooth="yes"/>
      <point x="699" y="626"/>
      <point x="701" y="631"/>
      <point x="703" y="644" type="curve" smooth="yes"/>
      <point x="704" y="650"/>
      <point x="705" y="656"/>
      <point x="704" y="662" type="curve"/>
      <point x="648" y="658"/>
      <point x="608" y="656"/>
      <point x="590" y="656" type="curve" smooth="yes"/>
      <point x="569" y="656"/>
      <point x="529" y="658"/>
      <point x="470" y="662" type="curve"/>
      <point x="467" y="660"/>
      <point x="464" y="652"/>
      <point x="462" y="644" type="curve" smooth="yes"/>
      <point x="459" y="633"/>
      <point x="461" y="625"/>
      <point x="464" y="625" type="curve" smooth="yes"/>
      <point x="507" y="625"/>
      <point x="526" y="618"/>
      <point x="523" y="603" type="curve" smooth="yes"/>
      <point x="521" y="593"/>
      <point x="512" y="576"/>
      <point x="503" y="564" type="curve" smooth="yes"/>
      <point x="367" y="388" type="line"/>
      <point x="377" y="388" type="line"/>
      <point x="310" y="582" type="line" smooth="yes"/>
      <point x="307" y="591"/>
      <point x="305" y="599"/>
      <point x="306" y="604" type="curve"/>
      <point x="310" y="615"/>
      <point x="338" y="625"/>
      <point x="364" y="625" type="curve" smooth="yes"/>
      <point x="366" y="625"/>
      <point x="370" y="636"/>
      <point x="372" y="647" type="curve" smooth="yes"/>
      <point x="373" y="653"/>
      <point x="373" y="660"/>
      <point x="373" y="662" type="curve"/>
      <point x="296" y="658"/>
      <point x="245" y="656"/>
      <point x="229" y="656" type="curve" smooth="yes"/>
      <point x="210" y="656"/>
      <point x="157" y="659"/>
      <point x="98" y="662" type="curve"/>
      <point x="94" y="659"/>
      <point x="92" y="654"/>
      <point x="90" y="642" type="curve" smooth="yes"/>
      <point x="88" y="630"/>
      <point x="88" y="625"/>
      <point x="91" y="625" type="curve" smooth="yes"/>
      <point x="110" y="625"/>
      <point x="126" y="620"/>
      <point x="141" y="610" type="curve" smooth="yes"/>
      <point x="152" y="603"/>
      <point x="163" y="584"/>
      <point x="180" y="537" type="curve" smooth="yes"/>
      <point x="247" y="348" type="line" smooth="yes"/>
      <point x="252" y="334"/>
      <point x="257" y="314"/>
      <point x="256" y="309" type="curve" smooth="yes"/>
      <point x="223" y="139" type="line" smooth="yes"/>
      <point x="215" y="100"/>
      <point x="208" y="74"/>
      <point x="200" y="58" type="curve"/>
      <point x="196" y="49"/>
      <point x="149" y="33"/>
      <point x="129" y="33" type="curve" smooth="yes"/>
      <point x="127" y="33"/>
      <point x="125" y="26"/>
      <point x="122" y="12" type="curve" smooth="yes"/>
      <point x="120" y="4"/>
      <point x="121" y="-1"/>
    </contour>
    <contour>
      <point x="254" y="0" type="move" name="bottom"/>
    </contour>
    <contour>
      <point x="382" y="658" type="move" name="top"/>
    </contour>
    <contour>
      <point x="67" y="658" type="move" name="topleft"/>
    </contour>
  </outline>
</glyph>
<glyph name="Z" format="1">
  <advance width="630"/>
  <unicode hex="005A"/>
  <note>
    Z
  </note>
  <outline>
    <contour>
      <point x="312" y="656" type="line" smooth="yes"/>
      <point x="220" y="656"/>
      <point x="166" y="658"/>
      <point x="151" y="662" type="curve"/>
      <point x="140" y="627"/>
      <point x="118" y="567"/>
      <point x="86" y="482" type="curve"/>
      <point x="88" y="479"/>
      <point x="99" y="478"/>
      <point x="118" y="478" type="curve" smooth="yes"/>
      <point x="125" y="478"/>
      <point x="131" y="480"/>
      <point x="132" y="484" type="curve" smooth="yes"/>
      <point x="182" y="578"/>
      <point x="215" y="599"/>
      <point x="295" y="599" type="curve" smooth="yes"/>
      <point x="491" y="599" type="line"/>
      <point x="478" y="637" type="line"/>
      <point x="10" y="43" type="line"/>
      <point x="6" y="40"/>
      <point x="4" y="34"/>
      <point x="2" y="26" type="curve" smooth="yes"/>
      <point x="-1" y="15"/>
      <point x="1" y="6"/>
      <point x="5" y="0" type="curve"/>
      <point x="502" y="0" type="line"/>
      <point x="513" y="35"/>
      <point x="571" y="140"/>
      <point x="590" y="174" type="curve"/>
      <point x="586" y="178"/>
      <point x="576" y="180"/>
      <point x="560" y="180" type="curve" smooth="yes"/>
      <point x="553" y="180"/>
      <point x="549" y="178"/>
      <point x="546" y="174" type="curve"/>
      <point x="510" y="107"/>
      <point x="440" y="57"/>
      <point x="347" y="57" type="curve" smooth="yes"/>
      <point x="168" y="57" type="line"/>
      <point x="163" y="32" type="line"/>
      <point x="638" y="633" type="line"/>
      <point x="640" y="644"/>
      <point x="639" y="665"/>
      <point x="635" y="666" type="curve"/>
      <point x="540" y="659"/>
      <point x="462" y="656"/>
      <point x="421" y="656" type="curve" smooth="yes"/>
    </contour>
    <contour>
      <point x="265" y="0" type="move" name="bottom"/>
    </contour>
    <contour>
      <point x="329" y="329" type="move" name="center"/>
    </contour>
    <contour>
      <point x="393" y="658" type="move" name="top"/>
    </contour>
  </outline>
</glyph>
<glyph name="bracketleft" format="1">
  <advance width="389"/>
  <unicode hex="005B"/>
  <note>
    bracketleft
  </note>
  <outline>
    <contour>
      <point x="174" y="-60" type="curve"/>
      <point x="326" y="720" type="line"/>
      <point x="356" y="722"/>
      <point x="414" y="732"/>
      <point x="456" y="747" type="curve"/>
      <point x="462" y="754"/>
      <point x="465" y="762"/>
      <point x="467" y="775" type="curve" smooth="yes"/>
      <point x="469" y="783"/>
      <point x="468" y="790"/>
      <point x="465" y="793" type="curve"/>
      <point x="383" y="778"/>
      <point x="305" y="770"/>
      <point x="231" y="770" type="curve" smooth="yes"/>
      <point x="218" y="770"/>
      <point x="211" y="763"/>
      <point x="209" y="751" type="curve" smooth="yes"/>
      <point x="45" y="-91" type="line" smooth="yes"/>
      <point x="43" y="-103"/>
      <point x="47" y="-110"/>
      <point x="60" y="-110" type="curve" smooth="yes"/>
      <point x="134" y="-110"/>
      <point x="209" y="-118"/>
      <point x="285" y="-133" type="curve"/>
      <point x="289" y="-130"/>
      <point x="293" y="-123"/>
      <point x="294" y="-115" type="curve" smooth="yes"/>
      <point x="297" y="-102"/>
      <point x="297" y="-94"/>
      <point x="294" y="-87" type="curve"/>
      <point x="258" y="-72"/>
      <point x="204" y="-62"/>
    </contour>
  </outline>
</glyph>
<glyph name="backslash" format="1">
  <advance width="425"/>
  <unicode hex="005C"/>
  <note>
    backslash
  </note>
  <outline>
    <contour>
      <point x="125" y="755" type="line"/>
      <point x="275" y="-28" type="line"/>
      <point x="356" y="-28" type="line"/>
      <point x="206" y="755" type="line"/>
    </contour>
  </outline>
</glyph>
<glyph name="bracketright" format="1">
  <advance width="389"/>
  <unicode hex="005D"/>
  <note>
    bracketright
  </note>
  <outline>
    <contour>
      <point x="107" y="-60" type="line"/>
      <point x="77" y="-62"/>
      <point x="19" y="-72"/>
      <point x="-23" y="-87" type="curve"/>
      <point x="-30" y="-94"/>
      <point x="-32" y="-102"/>
      <point x="-35" y="-115" type="curve" smooth="yes"/>
      <point x="-36" y="-123"/>
      <point x="-36" y="-130"/>
      <point x="-32" y="-133" type="curve"/>
      <point x="50" y="-118"/>
      <point x="127" y="-110"/>
      <point x="201" y="-110" type="curve" smooth="yes"/>
      <point x="214" y="-110"/>
      <point x="222" y="-103"/>
      <point x="224" y="-91" type="curve" smooth="yes"/>
      <point x="388" y="751" type="line" smooth="yes"/>
      <point x="390" y="763"/>
      <point x="385" y="770"/>
      <point x="372" y="770" type="curve" smooth="yes"/>
      <point x="298" y="770"/>
      <point x="224" y="778"/>
      <point x="148" y="793" type="curve"/>
      <point x="143" y="790"/>
      <point x="140" y="783"/>
      <point x="138" y="775" type="curve" smooth="yes"/>
      <point x="136" y="762"/>
      <point x="135" y="754"/>
      <point x="139" y="747" type="curve"/>
      <point x="175" y="732"/>
      <point x="229" y="722"/>
      <point x="259" y="720" type="curve"/>
    </contour>
  </outline>
</glyph>
<glyph name="asciicircum" format="1">
  <advance width="558"/>
  <unicode hex="005E"/>
  <note>
    asciicircum
  </note>
  <outline>
    <contour>
      <point x="495" y="154" type="line"/>
      <point x="375" y="534" type="line"/>
      <point x="303" y="534" type="line"/>
      <point x="37" y="154" type="line"/>
      <point x="103" y="119" type="line"/>
      <point x="347" y="468" type="line"/>
      <point x="307" y="468" type="line"/>
      <point x="415" y="119" type="line"/>
    </contour>
  </outline>
</glyph>
<glyph name="underscore" format="1">
  <advance width="500"/>
  <unicode hex="005F"/>
  <note>
    underscore
  </note>
  <outline>
    <contour>
      <point x="420" y="0" type="curve"/>
      <point x="-9" y="0" type="line" smooth="yes"/>
      <point x="-18" y="0"/>
      <point x="-23" y="-38"/>
      <point x="-23" y="-53" type="curve" smooth="yes"/>
      <point x="-23" y="-63"/>
      <point x="-22" y="-70"/>
      <point x="-20" y="-74" type="curve"/>
      <point x="409" y="-74" type="line" smooth="yes"/>
      <point x="418" y="-74"/>
      <point x="423" y="-36"/>
      <point x="423" y="-21" type="curve" smooth="yes"/>
      <point x="423" y="-11"/>
      <point x="422" y="-4"/>
    </contour>
  </outline>
</glyph>
<glyph name="a" format="1">
  <advance width="474"/>
  <unicode hex="0061"/>
  <note>
    a
  </note>
  <outline>
    <contour>
      <point x="319" y="449" type="curve" smooth="yes"/>
      <point x="169" y="449"/>
      <point x="14" y="297"/>
      <point x="14" y="130" type="curve" smooth="yes"/>
      <point x="14" y="58"/>
      <point x="60" y="-8"/>
      <point x="121" y="-8" type="curve" smooth="yes"/>
      <point x="165" y="-8"/>
      <point x="202" y="12"/>
      <point x="256" y="114" type="curve"/>
      <point x="246" y="75"/>
      <point x="247" y="59"/>
      <point x="247" y="51" type="curve" smooth="yes"/>
      <point x="247" y="20"/>
      <point x="270" y="-8"/>
      <point x="307" y="-8" type="curve" smooth="yes"/>
      <point x="354" y="-8"/>
      <point x="422" y="39"/>
      <point x="464" y="100" type="curve"/>
      <point x="462" y="107"/>
      <point x="445" y="134"/>
      <point x="442" y="134" type="curve"/>
      <point x="411" y="99"/>
      <point x="389" y="81"/>
      <point x="379" y="81" type="curve" smooth="yes"/>
      <point x="372" y="81"/>
      <point x="368" y="89"/>
      <point x="368" y="103" type="curve" smooth="yes"/>
      <point x="368" y="116"/>
      <point x="370" y="128"/>
      <point x="374" y="149" type="curve" smooth="yes"/>
      <point x="430" y="435" type="line"/>
      <point x="393" y="445"/>
      <point x="360" y="449"/>
    </contour>
    <contour>
      <point x="266" y="381" type="curve" smooth="yes"/>
      <point x="280" y="381"/>
      <point x="296" y="378"/>
      <point x="303" y="373" type="curve"/>
      <point x="289" y="301" type="line" smooth="yes"/>
      <point x="268" y="192"/>
      <point x="203" y="78"/>
      <point x="163" y="78" type="curve" smooth="yes"/>
      <point x="150" y="78"/>
      <point x="138" y="107"/>
      <point x="138" y="147" type="curve" smooth="yes"/>
      <point x="138" y="256"/>
      <point x="200" y="381"/>
    </contour>
    <contour>
      <point x="200" y="0" type="move" name="bottom"/>
    </contour>
    <contour>
      <point x="363" y="10" type="move" name="ogonek"/>
    </contour>
    <contour>
      <point x="286" y="439" type="move" name="top"/>
    </contour>
  </outline>
</glyph>
<glyph name="b" format="1">
  <advance width="449"/>
  <unicode hex="0062"/>
  <note>
    b
  </note>
  <outline>
    <contour>
      <point x="326" y="449" type="curve" smooth="yes"/>
      <point x="282" y="449"/>
      <point x="246" y="429"/>
      <point x="196" y="336" type="curve"/>
      <point x="246" y="584" type="line" smooth="yes"/>
      <point x="257" y="635"/>
      <point x="263" y="664"/>
      <point x="263" y="673" type="curve" smooth="yes"/>
      <point x="263" y="684"/>
      <point x="260" y="692"/>
      <point x="253" y="695" type="curve"/>
      <point x="198" y="677"/>
      <point x="120" y="662"/>
      <point x="68" y="662" type="curve"/>
      <point x="62" y="656"/>
      <point x="59" y="642"/>
      <point x="59" y="633" type="curve" smooth="yes"/>
      <point x="59" y="628"/>
      <point x="60" y="621"/>
      <point x="62" y="621" type="curve" smooth="yes"/>
      <point x="115" y="621"/>
      <point x="131" y="616"/>
      <point x="131" y="601" type="curve" smooth="yes"/>
      <point x="131" y="594"/>
      <point x="128" y="575"/>
      <point x="122" y="544" type="curve" smooth="yes"/>
      <point x="50" y="172" type="line" smooth="yes"/>
      <point x="25" y="45"/>
      <point x="76" y="-10"/>
      <point x="165" y="-10" type="curve" smooth="yes"/>
      <point x="306" y="-10"/>
      <point x="435" y="157"/>
      <point x="435" y="311" type="curve" smooth="yes"/>
      <point x="435" y="383"/>
      <point x="389" y="449"/>
    </contour>
    <contour>
      <point x="283" y="363" type="curve" smooth="yes"/>
      <point x="299" y="363"/>
      <point x="311" y="342"/>
      <point x="311" y="294" type="curve" smooth="yes"/>
      <point x="311" y="185"/>
      <point x="247" y="60"/>
      <point x="192" y="60" type="curve" smooth="yes"/>
      <point x="167" y="60"/>
      <point x="153" y="85"/>
      <point x="153" y="110" type="curve" smooth="yes"/>
      <point x="153" y="175"/>
      <point x="229" y="363"/>
    </contour>
    <contour>
      <point x="193" y="0" type="move" name="bottom"/>
    </contour>
    <contour>
      <point x="321" y="658" type="move" name="top"/>
    </contour>
  </outline>
</glyph>
<glyph name="d" format="1">
  <advance width="474"/>
  <unicode hex="0064"/>
  <note>
    d
  </note>
  <outline>
    <contour>
      <point x="121" y="-8" type="curve" smooth="yes"/>
      <point x="165" y="-8"/>
      <point x="202" y="12"/>
      <point x="256" y="114" type="curve"/>
      <point x="246" y="75"/>
      <point x="247" y="59"/>
      <point x="247" y="51" type="curve" smooth="yes"/>
      <point x="247" y="20"/>
      <point x="270" y="-8"/>
      <point x="307" y="-8" type="curve" smooth="yes"/>
      <point x="354" y="-8"/>
      <point x="422" y="39"/>
      <point x="464" y="100" type="curve"/>
      <point x="462" y="107"/>
      <point x="445" y="134"/>
      <point x="442" y="134" type="curve"/>
      <point x="411" y="99"/>
      <point x="389" y="81"/>
      <point x="379" y="81" type="curve" smooth="yes"/>
      <point x="372" y="81"/>
      <point x="368" y="89"/>
      <point x="368" y="105" type="curve" smooth="yes"/>
      <point x="368" y="116"/>
      <point x="369" y="124"/>
      <point x="370" y="128" type="curve"/>
      <point x="461" y="584" type="line" smooth="yes"/>
      <point x="471" y="635"/>
      <point x="478" y="664"/>
      <point x="478" y="673" type="curve" smooth="yes"/>
      <point x="478" y="684"/>
      <point x="475" y="692"/>
      <point x="468" y="695" type="curve"/>
      <point x="413" y="677"/>
      <point x="335" y="662"/>
      <point x="283" y="662" type="curve"/>
      <point x="277" y="656"/>
      <point x="274" y="642"/>
      <point x="274" y="633" type="curve" smooth="yes"/>
      <point x="274" y="628"/>
      <point x="275" y="621"/>
      <point x="277" y="621" type="curve" smooth="yes"/>
      <point x="330" y="621"/>
      <point x="346" y="616"/>
      <point x="346" y="601" type="curve" smooth="yes"/>
      <point x="346" y="594"/>
      <point x="343" y="575"/>
      <point x="337" y="544" type="curve" smooth="yes"/>
      <point x="313" y="422" type="line"/>
      <point x="365" y="447" type="line"/>
      <point x="354" y="448"/>
      <point x="321" y="449"/>
      <point x="319" y="449" type="curve" smooth="yes"/>
      <point x="169" y="449"/>
      <point x="14" y="297"/>
      <point x="14" y="130" type="curve" smooth="yes"/>
      <point x="14" y="58"/>
      <point x="60" y="-8"/>
    </contour>
    <contour>
      <point x="163" y="78" type="curve" smooth="yes"/>
      <point x="150" y="78"/>
      <point x="138" y="107"/>
      <point x="138" y="147" type="curve" smooth="yes"/>
      <point x="138" y="256"/>
      <point x="200" y="381"/>
      <point x="266" y="381" type="curve" smooth="yes"/>
      <point x="287" y="381"/>
      <point x="303" y="371"/>
      <point x="297" y="342" type="curve" smooth="yes"/>
      <point x="289" y="301" type="line" smooth="yes"/>
      <point x="268" y="192"/>
      <point x="203" y="78"/>
    </contour>
    <contour>
      <point x="195" y="0" type="move" name="bottom"/>
    </contour>
    <contour>
      <point x="238" y="220" type="move" name="center"/>
    </contour>
    <contour>
      <point x="353" y="529" type="move" name="stroke"/>
    </contour>
    <contour>
      <point x="323" y="658" type="move" name="top"/>
    </contour>
    <contour>
      <point x="452" y="439" type="move" name="topright"/>
    </contour>
  </outline>
</glyph>
<glyph name="e" format="1">
  <advance width="385"/>
  <unicode hex="0065"/>
  <note>
    e
  </note>
  <outline>
    <contour>
      <point x="157" y="-8" type="curve" smooth="yes"/>
      <point x="219" y="-8"/>
      <point x="284" y="33"/>
      <point x="334" y="104" type="curve"/>
      <point x="334" y="115"/>
      <point x="321" y="142"/>
      <point x="316" y="142" type="curve"/>
      <point x="274" y="98"/>
      <point x="240" y="79"/>
      <point x="205" y="79" type="curve" smooth="yes"/>
      <point x="167" y="79"/>
      <point x="141" y="109"/>
      <point x="141" y="149" type="curve" smooth="yes"/>
      <point x="141" y="263"/>
      <point x="198" y="394"/>
      <point x="245" y="394" type="curve" smooth="yes"/>
      <point x="262" y="394"/>
      <point x="271" y="379"/>
      <point x="271" y="356" type="curve" smooth="yes"/>
      <point x="271" y="297"/>
      <point x="217" y="239"/>
      <point x="135" y="217" type="curve"/>
      <point x="129" y="165" type="line"/>
      <point x="276" y="202"/>
      <point x="385" y="282"/>
      <point x="385" y="356" type="curve" smooth="yes"/>
      <point x="385" y="413"/>
      <point x="342" y="447"/>
      <point x="273" y="447" type="curve" smooth="yes"/>
      <point x="139" y="447"/>
      <point x="17" y="306"/>
      <point x="17" y="149" type="curve" smooth="yes"/>
      <point x="17" y="57"/>
      <point x="73" y="-8"/>
    </contour>
    <contour>
      <point x="154" y="0" type="move" name="bottom"/>
    </contour>
    <contour>
      <point x="228" y="10" type="move" name="ogonek"/>
    </contour>
    <contour>
      <point x="240" y="439" type="move" name="top"/>
    </contour>
  </outline>
</glyph>
<glyph name="f" format="1">
  <advance width="355"/>
  <unicode hex="0066"/>
  <note>
    f
  </note>
  <outline>
    <contour>
      <point x="-88" y="-218" type="curve" smooth="yes"/>
      <point x="31" y="-218"/>
      <point x="132" y="-107"/>
      <point x="164" y="60" type="curve" smooth="yes"/>
      <point x="243" y="476" type="line" smooth="yes"/>
      <point x="262" y="577"/>
      <point x="306" y="650"/>
      <point x="347" y="650" type="curve" smooth="yes"/>
      <point x="386" y="650"/>
      <point x="381" y="572"/>
      <point x="422" y="572" type="curve" smooth="yes"/>
      <point x="457" y="572"/>
      <point x="481" y="597"/>
      <point x="481" y="639" type="curve" smooth="yes"/>
      <point x="481" y="679"/>
      <point x="448" y="705"/>
      <point x="381" y="705" type="curve" smooth="yes"/>
      <point x="258" y="705"/>
      <point x="153" y="609"/>
      <point x="126" y="468" type="curve" smooth="yes"/>
      <point x="35" y="2" type="line" smooth="yes"/>
      <point x="12" y="-116"/>
      <point x="-15" y="-163"/>
      <point x="-57" y="-163" type="curve" smooth="yes"/>
      <point x="-96" y="-163"/>
      <point x="-92" y="-92"/>
      <point x="-139" y="-92" type="curve" smooth="yes"/>
      <point x="-168" y="-92"/>
      <point x="-188" y="-114"/>
      <point x="-188" y="-147" type="curve" smooth="yes"/>
      <point x="-188" y="-187"/>
      <point x="-144" y="-218"/>
    </contour>
    <contour>
      <point x="35" y="361" type="curve" smooth="yes"/>
      <point x="346" y="361" type="line"/>
      <point x="358" y="379"/>
      <point x="364" y="396"/>
      <point x="364" y="410" type="curve" smooth="yes"/>
      <point x="364" y="421"/>
      <point x="361" y="427"/>
      <point x="356" y="427" type="curve" smooth="yes"/>
      <point x="81" y="427" type="line" smooth="yes"/>
      <point x="64" y="427"/>
      <point x="33" y="387"/>
      <point x="33" y="365" type="curve" smooth="yes"/>
      <point x="33" y="363"/>
      <point x="34" y="361"/>
    </contour>
    <contour>
      <point x="146" y="0" type="move" name="bottom"/>
    </contour>
    <contour>
      <point x="274" y="658" type="move" name="top"/>
    </contour>
  </outline>
</glyph>
<glyph name="g" format="1">
  <advance width="447"/>
  <unicode hex="0067"/>
  <note>
    g
  </note>
  <outline>
    <contour>
      <point x="148" y="-218" type="curve" smooth="yes"/>
      <point x="271" y="-218"/>
      <point x="382" y="-142"/>
      <point x="382" y="-57" type="curve" smooth="yes"/>
      <point x="382" y="-8"/>
      <point x="337" y="26"/>
      <point x="233" y="46" type="curve" smooth="yes"/>
      <point x="164" y="60"/>
      <point x="156" y="65"/>
      <point x="156" y="74" type="curve" smooth="yes"/>
      <point x="156" y="85"/>
      <point x="175" y="96"/>
      <point x="247" y="127" type="curve" smooth="yes"/>
      <point x="328" y="162"/>
      <point x="392" y="251"/>
      <point x="392" y="331" type="curve" smooth="yes"/>
      <point x="392" y="345"/>
      <point x="384" y="375"/>
      <point x="378" y="384" type="curve"/>
      <point x="376" y="366" type="line"/>
      <point x="450" y="366" type="line"/>
      <point x="456" y="378"/>
      <point x="460" y="393"/>
      <point x="460" y="407" type="curve" smooth="yes"/>
      <point x="460" y="416"/>
      <point x="456" y="422"/>
      <point x="451" y="422" type="curve" smooth="yes"/>
      <point x="395" y="422" type="line" smooth="yes"/>
      <point x="339" y="422"/>
      <point x="310" y="446"/>
      <point x="260" y="446" type="curve" smooth="yes"/>
      <point x="156" y="446"/>
      <point x="51" y="339"/>
      <point x="51" y="230" type="curve" smooth="yes"/>
      <point x="51" y="170"/>
      <point x="89" y="127"/>
      <point x="147" y="114" type="curve"/>
      <point x="79" y="91"/>
      <point x="36" y="58"/>
      <point x="36" y="25" type="curve" smooth="yes"/>
      <point x="36" y="2"/>
      <point x="60" y="-25"/>
      <point x="85" y="-31" type="curve"/>
      <point x="9" y="-46"/>
      <point x="-38" y="-82"/>
      <point x="-38" y="-124" type="curve" smooth="yes"/>
      <point x="-38" y="-182"/>
      <point x="34" y="-218"/>
    </contour>
    <contour>
      <point x="160" y="-168" type="curve" smooth="yes"/>
      <point x="104" y="-168"/>
      <point x="62" y="-142"/>
      <point x="62" y="-108" type="curve" smooth="yes"/>
      <point x="62" y="-79"/>
      <point x="77" y="-62"/>
      <point x="120" y="-43" type="curve"/>
      <point x="236" y="-62"/>
      <point x="273" y="-80"/>
      <point x="273" y="-103" type="curve" smooth="yes"/>
      <point x="273" y="-141"/>
      <point x="224" y="-168"/>
    </contour>
    <contour>
      <point x="199" y="165" type="curve" smooth="yes"/>
      <point x="180" y="165"/>
      <point x="166" y="190"/>
      <point x="166" y="228" type="curve" smooth="yes"/>
      <point x="166" y="300"/>
      <point x="211" y="393"/>
      <point x="245" y="393" type="curve" smooth="yes"/>
      <point x="263" y="393"/>
      <point x="277" y="368"/>
      <point x="277" y="330" type="curve" smooth="yes"/>
      <point x="277" y="254"/>
      <point x="234" y="165"/>
    </contour>
    <contour>
      <point x="124" y="-223" type="move" name="bottom"/>
    </contour>
    <contour>
      <point x="253" y="439" type="move" name="top"/>
    </contour>
  </outline>
</glyph>
<glyph name="h" format="1">
  <advance width="501"/>
  <unicode hex="0068"/>
  <note>
    h
  </note>
  <outline>
    <contour>
      <point x="332" y="-8" type="curve" smooth="yes"/>
      <point x="379" y="-8"/>
      <point x="447" y="39"/>
      <point x="489" y="100" type="curve"/>
      <point x="487" y="107"/>
      <point x="470" y="134"/>
      <point x="467" y="134" type="curve"/>
      <point x="436" y="99"/>
      <point x="414" y="81"/>
      <point x="404" y="81" type="curve" smooth="yes"/>
      <point x="397" y="81"/>
      <point x="393" y="89"/>
      <point x="393" y="103" type="curve" smooth="yes"/>
      <point x="393" y="116"/>
      <point x="394" y="128"/>
      <point x="399" y="149" type="curve" smooth="yes"/>
      <point x="428" y="274" type="line" smooth="yes"/>
      <point x="438" y="315"/>
      <point x="444" y="350"/>
      <point x="444" y="374" type="curve" smooth="yes"/>
      <point x="444" y="429"/>
      <point x="421" y="449"/>
      <point x="382" y="449" type="curve" smooth="yes"/>
      <point x="310" y="449"/>
      <point x="216" y="354"/>
      <point x="186" y="263" type="curve"/>
      <point x="186" y="246" type="line"/>
      <point x="256" y="584" type="line" smooth="yes"/>
      <point x="267" y="635"/>
      <point x="273" y="664"/>
      <point x="273" y="673" type="curve" smooth="yes"/>
      <point x="273" y="684"/>
      <point x="270" y="692"/>
      <point x="263" y="695" type="curve"/>
      <point x="208" y="677"/>
      <point x="130" y="662"/>
      <point x="78" y="662" type="curve"/>
      <point x="72" y="656"/>
      <point x="69" y="642"/>
      <point x="69" y="633" type="curve" smooth="yes"/>
      <point x="69" y="628"/>
      <point x="70" y="621"/>
      <point x="72" y="621" type="curve" smooth="yes"/>
      <point x="125" y="621"/>
      <point x="141" y="616"/>
      <point x="141" y="601" type="curve" smooth="yes"/>
      <point x="141" y="594"/>
      <point x="138" y="575"/>
      <point x="132" y="544" type="curve" smooth="yes"/>
      <point x="26" y="0" type="line"/>
      <point x="42" y="-4"/>
      <point x="61" y="-6"/>
      <point x="84" y="-6" type="curve" smooth="yes"/>
      <point x="108" y="-6"/>
      <point x="127" y="-4"/>
      <point x="140" y="0" type="curve"/>
      <point x="155" y="76" type="line" smooth="yes"/>
      <point x="180" y="203"/>
      <point x="256" y="341"/>
      <point x="297" y="341" type="curve" smooth="yes"/>
      <point x="310" y="341"/>
      <point x="318" y="333"/>
      <point x="318" y="314" type="curve" smooth="yes"/>
      <point x="318" y="298"/>
      <point x="316" y="275"/>
      <point x="308" y="242" type="curve" smooth="yes"/>
      <point x="280" y="123" type="line" smooth="yes"/>
      <point x="273" y="93"/>
      <point x="270" y="68"/>
      <point x="270" y="49" type="curve" smooth="yes"/>
      <point x="270" y="17"/>
      <point x="295" y="-8"/>
    </contour>
    <contour>
      <point x="179" y="0" type="move" name="bottom"/>
    </contour>
    <contour>
      <point x="243" y="329" type="move" name="center"/>
    </contour>
    <contour>
      <point x="225" y="530" type="move" name="stroke"/>
    </contour>
    <contour>
      <point x="307" y="658" type="move" name="top"/>
    </contour>
  </outline>
</glyph>
<glyph name="k" format="1">
  <advance width="494"/>
  <unicode hex="006B"/>
  <note>
    k
  </note>
  <outline>
    <contour>
      <point x="87" y="-8" type="curve" smooth="yes"/>
      <point x="110" y="-8"/>
      <point x="129" y="-5"/>
      <point x="143" y="0" type="curve"/>
      <point x="178" y="189" type="line"/>
      <point x="163" y="189" type="line"/>
      <point x="248" y="73" type="line" smooth="yes"/>
      <point x="291" y="15"/>
      <point x="311" y="-8"/>
      <point x="348" y="-8" type="curve" smooth="yes"/>
      <point x="400" y="-8"/>
      <point x="454" y="38"/>
      <point x="495" y="85" type="curve"/>
      <point x="495" y="88"/>
      <point x="477" y="119"/>
      <point x="469" y="119" type="curve"/>
      <point x="445" y="90"/>
      <point x="422" y="77"/>
      <point x="407" y="77" type="curve" smooth="yes"/>
      <point x="396" y="77"/>
      <point x="384" y="81"/>
      <point x="363" y="106" type="curve" smooth="yes"/>
      <point x="266" y="223" type="line"/>
      <point x="230" y="195" type="line"/>
      <point x="363" y="211"/>
      <point x="457" y="279"/>
      <point x="458" y="367" type="curve" smooth="yes"/>
      <point x="459" y="416"/>
      <point x="421" y="449"/>
      <point x="368" y="449" type="curve" smooth="yes"/>
      <point x="302" y="449"/>
      <point x="239" y="406"/>
      <point x="192" y="329" type="curve"/>
      <point x="200" y="302" type="line"/>
      <point x="256" y="584" type="line" smooth="yes"/>
      <point x="265" y="630"/>
      <point x="271" y="668"/>
      <point x="271" y="673" type="curve" smooth="yes"/>
      <point x="271" y="685"/>
      <point x="268" y="692"/>
      <point x="261" y="695" type="curve"/>
      <point x="201" y="676"/>
      <point x="126" y="662"/>
      <point x="78" y="662" type="curve"/>
      <point x="73" y="657"/>
      <point x="69" y="644"/>
      <point x="69" y="633" type="curve" smooth="yes"/>
      <point x="69" y="626"/>
      <point x="70" y="621"/>
      <point x="72" y="621" type="curve" smooth="yes"/>
      <point x="124" y="621"/>
      <point x="141" y="616"/>
      <point x="141" y="601" type="curve" smooth="yes"/>
      <point x="141" y="594"/>
      <point x="138" y="575"/>
      <point x="132" y="544" type="curve" smooth="yes"/>
      <point x="26" y="0" type="line"/>
      <point x="49" y="-5"/>
      <point x="70" y="-8"/>
    </contour>
    <contour>
      <point x="175" y="202" type="line"/>
      <point x="199" y="296"/>
      <point x="258" y="376"/>
      <point x="304" y="376" type="curve" smooth="yes"/>
      <point x="324" y="376"/>
      <point x="344" y="365"/>
      <point x="343" y="333" type="curve" smooth="yes"/>
      <point x="342" y="269"/>
      <point x="273" y="227"/>
      <point x="160" y="215" type="curve"/>
    </contour>
    <contour>
      <point x="188" y="0" type="move" name="bottom"/>
    </contour>
    <contour>
      <point x="316" y="658" type="move" name="top"/>
    </contour>
  </outline>
</glyph>
<glyph name="l" format="1">
  <advance width="269"/>
  <unicode hex="006C"/>
  <note>
    l
  </note>
  <outline>
    <contour>
      <point x="102" y="-8" type="curve" smooth="yes"/>
      <point x="149" y="-8"/>
      <point x="217" y="39"/>
      <point x="259" y="100" type="curve"/>
      <point x="257" y="107"/>
      <point x="240" y="134"/>
      <point x="237" y="134" type="curve"/>
      <point x="206" y="99"/>
      <point x="184" y="81"/>
      <point x="174" y="81" type="curve" smooth="yes"/>
      <point x="167" y="81"/>
      <point x="163" y="89"/>
      <point x="163" y="103" type="curve" smooth="yes"/>
      <point x="163" y="116"/>
      <point x="165" y="128"/>
      <point x="169" y="149" type="curve" smooth="yes"/>
      <point x="254" y="584" type="line" smooth="yes"/>
      <point x="264" y="635"/>
      <point x="271" y="664"/>
      <point x="271" y="673" type="curve" smooth="yes"/>
      <point x="271" y="684"/>
      <point x="268" y="692"/>
      <point x="261" y="695" type="curve"/>
      <point x="206" y="677"/>
      <point x="130" y="662"/>
      <point x="78" y="662" type="curve"/>
      <point x="72" y="656"/>
      <point x="69" y="642"/>
      <point x="69" y="633" type="curve" smooth="yes"/>
      <point x="69" y="628"/>
      <point x="70" y="621"/>
      <point x="72" y="621" type="curve" smooth="yes"/>
      <point x="125" y="621"/>
      <point x="141" y="616"/>
      <point x="141" y="601" type="curve" smooth="yes"/>
      <point x="141" y="594"/>
      <point x="138" y="575"/>
      <point x="132" y="544" type="curve" smooth="yes"/>
      <point x="50" y="123" type="line" smooth="yes"/>
      <point x="44" y="93"/>
      <point x="40" y="68"/>
      <point x="40" y="49" type="curve" smooth="yes"/>
      <point x="40" y="17"/>
      <point x="65" y="-8"/>
    </contour>
    <contour>
      <point x="92" y="0" type="move" name="bottom"/>
    </contour>
    <contour>
      <point x="147" y="329" type="move" name="center"/>
    </contour>
    <contour>
      <point x="307" y="329" type="move" name="dotacc"/>
    </contour>
    <contour>
      <point x="220" y="658" type="move" name="top"/>
    </contour>
    <contour>
      <point x="246" y="439" type="move" name="topright"/>
    </contour>
  </outline>
</glyph>
<glyph name="m" format="1">
  <advance width="733"/>
  <unicode hex="006D"/>
  <note>
    m
  </note>
  <outline>
    <contour>
      <point x="564" y="-8" type="curve" smooth="yes"/>
      <point x="611" y="-8"/>
      <point x="679" y="39"/>
      <point x="721" y="100" type="curve"/>
      <point x="719" y="107"/>
      <point x="702" y="134"/>
      <point x="699" y="134" type="curve"/>
      <point x="668" y="99"/>
      <point x="646" y="81"/>
      <point x="636" y="81" type="curve" smooth="yes"/>
      <point x="629" y="81"/>
      <point x="625" y="89"/>
      <point x="625" y="103" type="curve" smooth="yes"/>
      <point x="625" y="116"/>
      <point x="626" y="128"/>
      <point x="631" y="149" type="curve" smooth="yes"/>
      <point x="660" y="274" type="line" smooth="yes"/>
      <point x="670" y="315"/>
      <point x="676" y="350"/>
      <point x="676" y="374" type="curve" smooth="yes"/>
      <point x="676" y="429"/>
      <point x="653" y="449"/>
      <point x="619" y="449" type="curve" smooth="yes"/>
      <point x="552" y="449"/>
      <point x="458" y="354"/>
      <point x="428" y="263" type="curve"/>
      <point x="428" y="246" type="line"/>
      <point x="438" y="286" type="line" smooth="yes"/>
      <point x="451" y="336"/>
      <point x="452" y="380"/>
      <point x="452" y="390" type="curve" smooth="yes"/>
      <point x="452" y="421"/>
      <point x="429" y="449"/>
      <point x="394" y="449" type="curve"/>
      <point x="327" y="449"/>
      <point x="233" y="354"/>
      <point x="203" y="263" type="curve"/>
      <point x="203" y="246" type="line"/>
      <point x="213" y="286" type="line" smooth="yes"/>
      <point x="226" y="336"/>
      <point x="227" y="380"/>
      <point x="227" y="390" type="curve" smooth="yes"/>
      <point x="227" y="421"/>
      <point x="204" y="449"/>
      <point x="167" y="449" type="curve" smooth="yes"/>
      <point x="120" y="449"/>
      <point x="52" y="402"/>
      <point x="10" y="341" type="curve"/>
      <point x="10" y="336"/>
      <point x="29" y="307"/>
      <point x="32" y="307" type="curve"/>
      <point x="63" y="342"/>
      <point x="85" y="360"/>
      <point x="95" y="360" type="curve" smooth="yes"/>
      <point x="102" y="360"/>
      <point x="106" y="352"/>
      <point x="106" y="338" type="curve" smooth="yes"/>
      <point x="106" y="325"/>
      <point x="104" y="313"/>
      <point x="100" y="292" type="curve" smooth="yes"/>
      <point x="43" y="0" type="line"/>
      <point x="59" y="-4"/>
      <point x="78" y="-6"/>
      <point x="101" y="-6" type="curve" smooth="yes"/>
      <point x="125" y="-6"/>
      <point x="144" y="-4"/>
      <point x="157" y="0" type="curve"/>
      <point x="172" y="76" type="line" smooth="yes"/>
      <point x="197" y="203"/>
      <point x="273" y="341"/>
      <point x="308" y="341" type="curve" smooth="yes"/>
      <point x="317" y="341"/>
      <point x="325" y="333"/>
      <point x="325" y="314" type="curve" smooth="yes"/>
      <point x="325" y="298"/>
      <point x="321" y="275"/>
      <point x="315" y="242" type="curve" smooth="yes"/>
      <point x="268" y="0" type="line"/>
      <point x="284" y="-4"/>
      <point x="303" y="-6"/>
      <point x="326" y="-6" type="curve" smooth="yes"/>
      <point x="350" y="-6"/>
      <point x="369" y="-4"/>
      <point x="382" y="0" type="curve"/>
      <point x="397" y="76" type="line" smooth="yes"/>
      <point x="422" y="203"/>
      <point x="498" y="341"/>
      <point x="533" y="341" type="curve" smooth="yes"/>
      <point x="542" y="341"/>
      <point x="550" y="333"/>
      <point x="550" y="314" type="curve" smooth="yes"/>
      <point x="550" y="298"/>
      <point x="548" y="275"/>
      <point x="540" y="242" type="curve" smooth="yes"/>
      <point x="512" y="123" type="line" smooth="yes"/>
      <point x="505" y="93"/>
      <point x="502" y="68"/>
      <point x="502" y="49" type="curve" smooth="yes"/>
      <point x="502" y="17"/>
      <point x="527" y="-8"/>
    </contour>
    <contour>
      <point x="324" y="0" type="move" name="bottom"/>
    </contour>
    <contour>
      <point x="410" y="439" type="move" name="top"/>
    </contour>
  </outline>
</glyph>
<glyph name="n" format="1">
  <advance width="518"/>
  <unicode hex="006E"/>
  <note>
    n
  </note>
  <outline>
    <contour>
      <point x="349" y="-8" type="curve" smooth="yes"/>
      <point x="396" y="-8"/>
      <point x="464" y="39"/>
      <point x="506" y="100" type="curve"/>
      <point x="504" y="107"/>
      <point x="487" y="134"/>
      <point x="484" y="134" type="curve"/>
      <point x="453" y="99"/>
      <point x="431" y="81"/>
      <point x="421" y="81" type="curve" smooth="yes"/>
      <point x="414" y="81"/>
      <point x="410" y="89"/>
      <point x="410" y="103" type="curve" smooth="yes"/>
      <point x="410" y="116"/>
      <point x="411" y="128"/>
      <point x="416" y="149" type="curve" smooth="yes"/>
      <point x="445" y="274" type="line" smooth="yes"/>
      <point x="455" y="315"/>
      <point x="461" y="350"/>
      <point x="461" y="374" type="curve" smooth="yes"/>
      <point x="461" y="429"/>
      <point x="438" y="449"/>
      <point x="399" y="449" type="curve" smooth="yes"/>
      <point x="327" y="449"/>
      <point x="233" y="354"/>
      <point x="203" y="263" type="curve"/>
      <point x="203" y="246" type="line"/>
      <point x="213" y="286" type="line" smooth="yes"/>
      <point x="226" y="336"/>
      <point x="227" y="380"/>
      <point x="227" y="390" type="curve" smooth="yes"/>
      <point x="227" y="421"/>
      <point x="204" y="449"/>
      <point x="167" y="449" type="curve" smooth="yes"/>
      <point x="120" y="449"/>
      <point x="52" y="402"/>
      <point x="10" y="341" type="curve"/>
      <point x="10" y="336"/>
      <point x="29" y="307"/>
      <point x="32" y="307" type="curve"/>
      <point x="63" y="342"/>
      <point x="85" y="360"/>
      <point x="95" y="360" type="curve" smooth="yes"/>
      <point x="102" y="360"/>
      <point x="106" y="352"/>
      <point x="106" y="338" type="curve" smooth="yes"/>
      <point x="106" y="325"/>
      <point x="104" y="313"/>
      <point x="100" y="292" type="curve" smooth="yes"/>
      <point x="43" y="0" type="line"/>
      <point x="59" y="-4"/>
      <point x="78" y="-6"/>
      <point x="101" y="-6" type="curve" smooth="yes"/>
      <point x="125" y="-6"/>
      <point x="144" y="-4"/>
      <point x="157" y="0" type="curve"/>
      <point x="172" y="76" type="line" smooth="yes"/>
      <point x="197" y="203"/>
      <point x="273" y="341"/>
      <point x="314" y="341" type="curve" smooth="yes"/>
      <point x="327" y="341"/>
      <point x="335" y="333"/>
      <point x="335" y="314" type="curve" smooth="yes"/>
      <point x="335" y="298"/>
      <point x="333" y="275"/>
      <point x="325" y="242" type="curve" smooth="yes"/>
      <point x="297" y="123" type="line" smooth="yes"/>
      <point x="290" y="93"/>
      <point x="287" y="68"/>
      <point x="287" y="49" type="curve" smooth="yes"/>
      <point x="287" y="17"/>
      <point x="312" y="-8"/>
    </contour>
    <contour>
      <point x="214" y="0" type="move" name="bottom"/>
    </contour>
    <contour>
      <point x="300" y="439" type="move" name="top"/>
    </contour>
  </outline>
</glyph>
<glyph name="o" format="1">
  <advance width="422"/>
  <unicode hex="006F"/>
  <note>
    o
  </note>
  <outline>
    <contour>
      <point x="154" y="-8" type="curve" smooth="yes"/>
      <point x="295" y="-8"/>
      <point x="405" y="147"/>
      <point x="405" y="291" type="curve" smooth="yes"/>
      <point x="405" y="374"/>
      <point x="356" y="447"/>
      <point x="268" y="447" type="curve" smooth="yes"/>
      <point x="127" y="447"/>
      <point x="17" y="292"/>
      <point x="17" y="149" type="curve" smooth="yes"/>
      <point x="17" y="65"/>
      <point x="66" y="-8"/>
    </contour>
    <contour>
      <point x="182" y="45" type="curve" smooth="yes"/>
      <point x="159" y="45"/>
      <point x="141" y="81"/>
      <point x="141" y="139" type="curve" smooth="yes"/>
      <point x="141" y="268"/>
      <point x="202" y="394"/>
      <point x="240" y="394" type="curve" smooth="yes"/>
      <point x="263" y="394"/>
      <point x="281" y="358"/>
      <point x="281" y="300" type="curve" smooth="yes"/>
      <point x="281" y="170"/>
      <point x="220" y="45"/>
    </contour>
    <contour>
      <point x="169" y="0" type="move" name="bottom"/>
    </contour>
    <contour>
      <point x="212" y="220" type="move" name="center"/>
    </contour>
    <contour>
      <point x="234" y="10" type="move" name="ogonek"/>
    </contour>
    <contour>
      <point x="255" y="439" type="move" name="top"/>
    </contour>
    <contour>
      <point x="438" y="439" type="move" name="topright"/>
    </contour>
  </outline>
</glyph>
<glyph name="p" format="1">
  <advance width="474"/>
  <unicode hex="0070"/>
  <note>
    p
  </note>
  <outline>
    <contour>
      <point x="-46" y="-232" type="curve"/>
      <point x="-3" y="-227"/>
      <point x="39" y="-223"/>
      <point x="77" y="-223" type="curve" smooth="yes"/>
      <point x="96" y="-223"/>
      <point x="135" y="-222"/>
      <point x="191" y="-222" type="curve"/>
      <point x="194" y="-218"/>
      <point x="197" y="-201"/>
      <point x="197" y="-190" type="curve" smooth="yes"/>
      <point x="197" y="-182"/>
      <point x="195" y="-178"/>
      <point x="190" y="-178" type="curve" smooth="yes"/>
      <point x="177" y="-178"/>
      <point x="166" y="-177"/>
      <point x="155" y="-174" type="curve" smooth="yes"/>
      <point x="140" y="-170"/>
      <point x="133" y="-159"/>
      <point x="133" y="-138" type="curve" smooth="yes"/>
      <point x="133" y="-133"/>
      <point x="134" y="-126"/>
      <point x="135" y="-117" type="curve"/>
      <point x="162" y="19" type="line"/>
      <point x="110" y="-6" type="line"/>
      <point x="121" y="-7"/>
      <point x="140" y="-8"/>
      <point x="156" y="-8" type="curve" smooth="yes"/>
      <point x="306" y="-8"/>
      <point x="461" y="144"/>
      <point x="461" y="311" type="curve" smooth="yes"/>
      <point x="461" y="383"/>
      <point x="415" y="449"/>
      <point x="344" y="449" type="curve" smooth="yes"/>
      <point x="262" y="449"/>
      <point x="128" y="348"/>
      <point x="19" y="204" type="curve"/>
      <point x="19" y="196"/>
      <point x="32" y="163"/>
      <point x="42" y="158" type="curve"/>
      <point x="152" y="292"/>
      <point x="231" y="363"/>
      <point x="283" y="363" type="curve" smooth="yes"/>
      <point x="321" y="363"/>
      <point x="337" y="334"/>
      <point x="337" y="294" type="curve" smooth="yes"/>
      <point x="337" y="185"/>
      <point x="275" y="60"/>
      <point x="209" y="60" type="curve" smooth="yes"/>
      <point x="188" y="60"/>
      <point x="172" y="70"/>
      <point x="178" y="99" type="curve" smooth="yes"/>
      <point x="245" y="443" type="line"/>
      <point x="226" y="447"/>
      <point x="206" y="449"/>
      <point x="187" y="449" type="curve" smooth="yes"/>
      <point x="168" y="449"/>
      <point x="149" y="447"/>
      <point x="129" y="443" type="curve"/>
      <point x="19" y="-123" type="line" smooth="yes"/>
      <point x="14" y="-151"/>
      <point x="9" y="-167"/>
      <point x="7" y="-170" type="curve"/>
      <point x="-2" y="-181"/>
      <point x="-18" y="-187"/>
      <point x="-42" y="-188" type="curve"/>
      <point x="-45" y="-191"/>
      <point x="-47" y="-199"/>
      <point x="-49" y="-223" type="curve" smooth="yes"/>
      <point x="-49" y="-228"/>
      <point x="-48" y="-231"/>
    </contour>
    <contour>
      <point x="168" y="0" type="move" name="bottom"/>
    </contour>
    <contour>
      <point x="254" y="439" type="move" name="top"/>
    </contour>
  </outline>
</glyph>
<glyph name="q" format="1">
  <advance width="466"/>
  <unicode hex="0071"/>
  <note>
    q
  </note>
  <outline>
    <contour>
      <point x="125" y="-232" type="curve"/>
      <point x="180" y="-227"/>
      <point x="227" y="-223"/>
      <point x="265" y="-223" type="curve" smooth="yes"/>
      <point x="284" y="-223"/>
      <point x="323" y="-222"/>
      <point x="379" y="-222" type="curve"/>
      <point x="382" y="-218"/>
      <point x="385" y="-201"/>
      <point x="385" y="-190" type="curve" smooth="yes"/>
      <point x="385" y="-182"/>
      <point x="383" y="-178"/>
      <point x="378" y="-178" type="curve" smooth="yes"/>
      <point x="339" y="-178"/>
      <point x="321" y="-172"/>
      <point x="321" y="-138" type="curve" smooth="yes"/>
      <point x="321" y="-133"/>
      <point x="321" y="-126"/>
      <point x="325" y="-107" type="curve" smooth="yes"/>
      <point x="365" y="106" type="line"/>
      <point x="430" y="435" type="line"/>
      <point x="393" y="445"/>
      <point x="360" y="449"/>
      <point x="319" y="449" type="curve" smooth="yes"/>
      <point x="169" y="449"/>
      <point x="14" y="297"/>
      <point x="14" y="130" type="curve" smooth="yes"/>
      <point x="14" y="58"/>
      <point x="60" y="-8"/>
      <point x="121" y="-8" type="curve" smooth="yes"/>
      <point x="165" y="-8"/>
      <point x="202" y="12"/>
      <point x="252" y="109" type="curve"/>
      <point x="207" y="-123" type="line" smooth="yes"/>
      <point x="202" y="-151"/>
      <point x="197" y="-167"/>
      <point x="195" y="-170" type="curve"/>
      <point x="186" y="-181"/>
      <point x="165" y="-185"/>
      <point x="129" y="-188" type="curve"/>
      <point x="126" y="-191"/>
      <point x="122" y="-199"/>
      <point x="122" y="-223" type="curve" smooth="yes"/>
      <point x="122" y="-228"/>
      <point x="123" y="-231"/>
    </contour>
    <contour>
      <point x="163" y="78" type="curve" smooth="yes"/>
      <point x="150" y="78"/>
      <point x="138" y="107"/>
      <point x="138" y="147" type="curve" smooth="yes"/>
      <point x="138" y="256"/>
      <point x="200" y="381"/>
      <point x="266" y="381" type="curve" smooth="yes"/>
      <point x="280" y="381"/>
      <point x="296" y="378"/>
      <point x="303" y="373" type="curve"/>
      <point x="289" y="301" type="line" smooth="yes"/>
      <point x="268" y="192"/>
      <point x="203" y="78"/>
    </contour>
    <contour>
      <point x="190" y="0" type="move" name="bottom"/>
    </contour>
    <contour>
      <point x="276" y="439" type="move" name="top"/>
    </contour>
  </outline>
</glyph>
<glyph name="r" format="1">
  <advance width="437"/>
  <unicode hex="0072"/>
  <note>
    r
  </note>
  <outline>
    <contour>
      <point x="167" y="449" type="curve" smooth="yes"/>
      <point x="120" y="449"/>
      <point x="52" y="402"/>
      <point x="10" y="341" type="curve"/>
      <point x="10" y="336"/>
      <point x="29" y="307"/>
      <point x="32" y="307" type="curve"/>
      <point x="54" y="336"/>
      <point x="82" y="360"/>
      <point x="95" y="360" type="curve" smooth="yes"/>
      <point x="102" y="360"/>
      <point x="106" y="352"/>
      <point x="106" y="338" type="curve" smooth="yes"/>
      <point x="106" y="328"/>
      <point x="104" y="310"/>
      <point x="100" y="292" type="curve" smooth="yes"/>
      <point x="43" y="0" type="line"/>
      <point x="60" y="-4"/>
      <point x="82" y="-6"/>
      <point x="103" y="-6" type="curve" smooth="yes"/>
      <point x="124" y="-6"/>
      <point x="147" y="-4"/>
      <point x="164" y="0" type="curve"/>
      <point x="175" y="66" type="line" smooth="yes"/>
      <point x="191" y="162"/>
      <point x="274" y="354"/>
      <point x="317" y="354" type="curve" smooth="yes"/>
      <point x="339" y="354"/>
      <point x="356" y="310"/>
      <point x="382" y="310" type="curve" smooth="yes"/>
      <point x="415" y="310"/>
      <point x="441" y="345"/>
      <point x="441" y="390" type="curve" smooth="yes"/>
      <point x="441" y="424"/>
      <point x="414" y="449"/>
      <point x="377" y="449" type="curve" smooth="yes"/>
      <point x="309" y="449"/>
      <point x="249" y="382"/>
      <point x="198" y="258" type="curve"/>
      <point x="207" y="249" type="line"/>
      <point x="222" y="338" type="line" smooth="yes"/>
      <point x="226" y="362"/>
      <point x="227" y="375"/>
      <point x="227" y="390" type="curve" smooth="yes"/>
      <point x="227" y="428"/>
      <point x="206" y="449"/>
    </contour>
    <contour>
      <point x="104" y="0" type="move" name="bottom"/>
    </contour>
    <contour>
      <point x="262" y="439" type="move" name="top"/>
    </contour>
  </outline>
</glyph>
<glyph name="s" format="1">
  <advance width="325"/>
  <unicode hex="0073"/>
  <note>
    s
  </note>
  <outline>
    <contour>
      <point x="204" y="449" type="curve" smooth="yes"/>
      <point x="111" y="449"/>
      <point x="38" y="384"/>
      <point x="38" y="310" type="curve" smooth="yes"/>
      <point x="38" y="215"/>
      <point x="178" y="157"/>
      <point x="178" y="84" type="curve" smooth="yes"/>
      <point x="178" y="53"/>
      <point x="161" y="44"/>
      <point x="138" y="44" type="curve" smooth="yes"/>
      <point x="87" y="44"/>
      <point x="73" y="113"/>
      <point x="30" y="113" type="curve" smooth="yes"/>
      <point x="10" y="113"/>
      <point x="-11" y="97"/>
      <point x="-11" y="62" type="curve" smooth="yes"/>
      <point x="-11" y="25"/>
      <point x="38" y="-8"/>
      <point x="120" y="-8" type="curve" smooth="yes"/>
      <point x="212" y="-8"/>
      <point x="286" y="48"/>
      <point x="286" y="128" type="curve" smooth="yes"/>
      <point x="286" y="214"/>
      <point x="146" y="275"/>
      <point x="146" y="355" type="curve" smooth="yes"/>
      <point x="146" y="384"/>
      <point x="163" y="398"/>
      <point x="181" y="398" type="curve" smooth="yes"/>
      <point x="228" y="398"/>
      <point x="232" y="334"/>
      <point x="282" y="334" type="curve" smooth="yes"/>
      <point x="305" y="334"/>
      <point x="321" y="347"/>
      <point x="321" y="378" type="curve" smooth="yes"/>
      <point x="321" y="419"/>
      <point x="272" y="449"/>
    </contour>
    <contour>
      <point x="118" y="0" type="move" name="bottom"/>
    </contour>
    <contour>
      <point x="204" y="439" type="move" name="top"/>
    </contour>
  </outline>
</glyph>
<glyph name="t" format="1">
  <advance width="288"/>
  <unicode hex="0074"/>
  <note>
    t
  </note>
  <outline>
    <contour>
      <point x="112" y="-8" type="curve" smooth="yes"/>
      <point x="159" y="-8"/>
      <point x="227" y="39"/>
      <point x="269" y="100" type="curve"/>
      <point x="269" y="105"/>
      <point x="250" y="134"/>
      <point x="247" y="134" type="curve"/>
      <point x="216" y="99"/>
      <point x="194" y="81"/>
      <point x="184" y="81" type="curve" smooth="yes"/>
      <point x="177" y="81"/>
      <point x="173" y="87"/>
      <point x="173" y="103" type="curve" smooth="yes"/>
      <point x="173" y="114"/>
      <point x="174" y="124"/>
      <point x="177" y="138" type="curve" smooth="yes"/>
      <point x="260" y="548" type="line"/>
      <point x="252" y="551"/>
      <point x="242" y="552"/>
      <point x="229" y="552" type="curve" smooth="yes"/>
      <point x="203" y="552"/>
      <point x="143" y="548"/>
      <point x="141" y="539" type="curve" smooth="yes"/>
      <point x="60" y="123" type="line" smooth="yes"/>
      <point x="58" y="112"/>
      <point x="50" y="68"/>
      <point x="50" y="49" type="curve" smooth="yes"/>
      <point x="50" y="17"/>
      <point x="75" y="-8"/>
    </contour>
    <contour>
      <point x="52" y="370" type="curve"/>
      <point x="310" y="370" type="line"/>
      <point x="318" y="382"/>
      <point x="322" y="396"/>
      <point x="322" y="412" type="curve" smooth="yes"/>
      <point x="322" y="423"/>
      <point x="319" y="429"/>
      <point x="312" y="429" type="curve"/>
      <point x="62" y="429" type="line"/>
      <point x="55" y="422"/>
      <point x="48" y="397"/>
      <point x="48" y="382" type="curve" smooth="yes"/>
      <point x="48" y="374"/>
      <point x="49" y="370"/>
    </contour>
    <contour>
      <point x="101" y="0" type="move" name="bottom"/>
    </contour>
    <contour>
      <point x="165" y="269" type="move" name="center"/>
    </contour>
    <contour>
      <point x="192" y="500" type="move" name="top"/>
    </contour>
    <contour>
      <point x="269" y="439" type="move" name="topright"/>
    </contour>
  </outline>
</glyph>
<glyph name="v" format="1">
  <advance width="448"/>
  <unicode hex="0076"/>
  <note>
    v
  </note>
  <outline>
    <contour>
      <point x="170" y="449" type="curve" smooth="yes"/>
      <point x="123" y="449"/>
      <point x="55" y="402"/>
      <point x="13" y="341" type="curve"/>
      <point x="15" y="334"/>
      <point x="32" y="307"/>
      <point x="35" y="307" type="curve"/>
      <point x="66" y="342"/>
      <point x="88" y="360"/>
      <point x="98" y="360" type="curve" smooth="yes"/>
      <point x="105" y="360"/>
      <point x="109" y="352"/>
      <point x="109" y="338" type="curve" smooth="yes"/>
      <point x="109" y="329"/>
      <point x="108" y="313"/>
      <point x="103" y="292" type="curve" smooth="yes"/>
      <point x="71" y="156" type="line" smooth="yes"/>
      <point x="63" y="124"/>
      <point x="63" y="106"/>
      <point x="63" y="89" type="curve" smooth="yes"/>
      <point x="63" y="30"/>
      <point x="96" y="-8"/>
      <point x="150" y="-8" type="curve" smooth="yes"/>
      <point x="260" y="-8"/>
      <point x="437" y="195"/>
      <point x="437" y="372" type="curve" smooth="yes"/>
      <point x="437" y="430"/>
      <point x="415" y="449"/>
      <point x="380" y="449" type="curve" smooth="yes"/>
      <point x="348" y="449"/>
      <point x="318" y="426"/>
      <point x="318" y="390" type="curve" smooth="yes"/>
      <point x="318" y="345"/>
      <point x="354" y="333"/>
      <point x="354" y="288" type="curve" smooth="yes"/>
      <point x="354" y="220"/>
      <point x="269" y="87"/>
      <point x="210" y="87" type="curve" smooth="yes"/>
      <point x="193" y="87"/>
      <point x="184" y="101"/>
      <point x="184" y="128" type="curve" smooth="yes"/>
      <point x="184" y="143"/>
      <point x="186" y="166"/>
      <point x="194" y="200" type="curve" smooth="yes"/>
      <point x="222" y="318" type="line" smooth="yes"/>
      <point x="229" y="348"/>
      <point x="232" y="373"/>
      <point x="232" y="392" type="curve" smooth="yes"/>
      <point x="232" y="424"/>
      <point x="207" y="449"/>
    </contour>
    <contour>
      <point x="183" y="0" type="move" name="bottom"/>
    </contour>
    <contour>
      <point x="269" y="439" type="move" name="top"/>
    </contour>
  </outline>
</glyph>
<glyph name="w" format="1">
  <advance width="699"/>
  <unicode hex="0077"/>
  <note>
    w
  </note>
  <outline>
    <contour>
      <point x="631" y="449" type="curve" smooth="yes"/>
      <point x="599" y="449"/>
      <point x="569" y="426"/>
      <point x="569" y="390" type="curve" smooth="yes"/>
      <point x="569" y="345"/>
      <point x="605" y="333"/>
      <point x="605" y="288" type="curve" smooth="yes"/>
      <point x="605" y="220"/>
      <point x="520" y="87"/>
      <point x="461" y="87" type="curve" smooth="yes"/>
      <point x="444" y="87"/>
      <point x="435" y="101"/>
      <point x="435" y="128" type="curve" smooth="yes"/>
      <point x="435" y="143"/>
      <point x="437" y="166"/>
      <point x="445" y="200" type="curve" smooth="yes"/>
      <point x="467" y="300" type="line" smooth="yes"/>
      <point x="478" y="348"/>
      <point x="483" y="373"/>
      <point x="483" y="392" type="curve" smooth="yes"/>
      <point x="483" y="424"/>
      <point x="462" y="449"/>
      <point x="426" y="449" type="curve" smooth="yes"/>
      <point x="385" y="449"/>
      <point x="356" y="418"/>
      <point x="350" y="372" type="curve" smooth="yes"/>
      <point x="327" y="195" type="line"/>
      <point x="297" y="139"/>
      <point x="250" y="87"/>
      <point x="210" y="87" type="curve" smooth="yes"/>
      <point x="193" y="87"/>
      <point x="184" y="101"/>
      <point x="184" y="128" type="curve" smooth="yes"/>
      <point x="184" y="143"/>
      <point x="186" y="166"/>
      <point x="194" y="200" type="curve" smooth="yes"/>
      <point x="222" y="318" type="line" smooth="yes"/>
      <point x="229" y="348"/>
      <point x="232" y="373"/>
      <point x="232" y="392" type="curve" smooth="yes"/>
      <point x="232" y="424"/>
      <point x="207" y="449"/>
      <point x="170" y="449" type="curve" smooth="yes"/>
      <point x="123" y="449"/>
      <point x="55" y="402"/>
      <point x="13" y="341" type="curve"/>
      <point x="15" y="334"/>
      <point x="32" y="307"/>
      <point x="35" y="307" type="curve"/>
      <point x="66" y="342"/>
      <point x="88" y="360"/>
      <point x="98" y="360" type="curve" smooth="yes"/>
      <point x="105" y="360"/>
      <point x="109" y="352"/>
      <point x="109" y="338" type="curve" smooth="yes"/>
      <point x="109" y="329"/>
      <point x="108" y="313"/>
      <point x="103" y="292" type="curve" smooth="yes"/>
      <point x="71" y="156" type="line" smooth="yes"/>
      <point x="63" y="124"/>
      <point x="63" y="106"/>
      <point x="63" y="89" type="curve" smooth="yes"/>
      <point x="63" y="30"/>
      <point x="96" y="-8"/>
      <point x="150" y="-8" type="curve" smooth="yes"/>
      <point x="205" y="-8"/>
      <point x="280" y="43"/>
      <point x="338" y="117" type="curve"/>
      <point x="318" y="126" type="line"/>
      <point x="301" y="47"/>
      <point x="336" y="-8"/>
      <point x="401" y="-8" type="curve" smooth="yes"/>
      <point x="511" y="-8"/>
      <point x="688" y="195"/>
      <point x="688" y="372" type="curve" smooth="yes"/>
      <point x="688" y="430"/>
      <point x="666" y="449"/>
    </contour>
    <contour>
      <point x="304" y="0" type="move" name="bottom"/>
    </contour>
    <contour>
      <point x="390" y="439" type="move" name="top"/>
    </contour>
  </outline>
</glyph>
<glyph name="x" format="1">
  <advance width="487"/>
  <unicode hex="0078"/>
  <note>
    x
  </note>
  <outline>
    <contour>
      <point x="187" y="448" type="curve" smooth="yes"/>
      <point x="150" y="448"/>
      <point x="93" y="419"/>
      <point x="40" y="339" type="curve"/>
      <point x="40" y="334"/>
      <point x="58" y="306"/>
      <point x="62" y="306" type="curve"/>
      <point x="91" y="339"/>
      <point x="118" y="359"/>
      <point x="134" y="359" type="curve" smooth="yes"/>
      <point x="144" y="359"/>
      <point x="154" y="350"/>
      <point x="159" y="331" type="curve" smooth="yes"/>
      <point x="191" y="218" type="line"/>
      <point x="136" y="113" type="line" smooth="yes"/>
      <point x="122" y="85"/>
      <point x="113" y="80"/>
      <point x="103" y="80" type="curve" smooth="yes"/>
      <point x="83" y="80"/>
      <point x="64" y="101"/>
      <point x="43" y="101" type="curve" smooth="yes"/>
      <point x="11" y="101"/>
      <point x="-10" y="79"/>
      <point x="-10" y="45" type="curve" smooth="yes"/>
      <point x="-10" y="13"/>
      <point x="14" y="-6"/>
      <point x="58" y="-6" type="curve" smooth="yes"/>
      <point x="104" y="-6"/>
      <point x="141" y="12"/>
      <point x="176" y="82" type="curve" smooth="yes"/>
      <point x="210" y="148" type="line"/>
      <point x="231" y="74" type="line" smooth="yes"/>
      <point x="246" y="21"/>
      <point x="274" y="-5"/>
      <point x="317" y="-5" type="curve" smooth="yes"/>
      <point x="354" y="-5"/>
      <point x="411" y="24"/>
      <point x="464" y="104" type="curve"/>
      <point x="464" y="109"/>
      <point x="446" y="137"/>
      <point x="442" y="137" type="curve"/>
      <point x="413" y="104"/>
      <point x="386" y="84"/>
      <point x="370" y="84" type="curve" smooth="yes"/>
      <point x="360" y="84"/>
      <point x="350" y="93"/>
      <point x="345" y="112" type="curve" smooth="yes"/>
      <point x="308" y="244" type="line"/>
      <point x="352" y="330" type="line" smooth="yes"/>
      <point x="366" y="358"/>
      <point x="375" y="363"/>
      <point x="385" y="363" type="curve" smooth="yes"/>
      <point x="405" y="363"/>
      <point x="424" y="342"/>
      <point x="445" y="342" type="curve" smooth="yes"/>
      <point x="477" y="342"/>
      <point x="498" y="364"/>
      <point x="498" y="398" type="curve" smooth="yes"/>
      <point x="498" y="430"/>
      <point x="474" y="449"/>
      <point x="430" y="449" type="curve" smooth="yes"/>
      <point x="384" y="449"/>
      <point x="347" y="431"/>
      <point x="312" y="361" type="curve" smooth="yes"/>
      <point x="288" y="314" type="line"/>
      <point x="273" y="369" type="line" smooth="yes"/>
      <point x="259" y="422"/>
      <point x="230" y="448"/>
    </contour>
    <contour>
      <point x="210" y="0" type="move" name="bottom"/>
    </contour>
    <contour>
      <point x="296" y="439" type="move" name="top"/>
    </contour>
  </outline>
</glyph>
<glyph name="y" format="1">
  <advance width="469"/>
  <unicode hex="0079"/>
  <note>
    y
  </note>
  <outline>
    <contour>
      <point x="151" y="449" type="curve" smooth="yes"/>
      <point x="104" y="449"/>
      <point x="36" y="402"/>
      <point x="-6" y="341" type="curve"/>
      <point x="-6" y="336"/>
      <point x="13" y="307"/>
      <point x="16" y="307" type="curve"/>
      <point x="49" y="344"/>
      <point x="69" y="360"/>
      <point x="83" y="360" type="curve" smooth="yes"/>
      <point x="100" y="360"/>
      <point x="108" y="341"/>
      <point x="123" y="267" type="curve" smooth="yes"/>
      <point x="147" y="154"/>
      <point x="160" y="63"/>
      <point x="160" y="8" type="curve" smooth="yes"/>
      <point x="160" y="-37"/>
      <point x="152" y="-69"/>
      <point x="135" y="-90" type="curve" smooth="yes"/>
      <point x="112" y="-119"/>
      <point x="78" y="-132"/>
      <point x="24" y="-132" type="curve" smooth="yes"/>
      <point x="3" y="-132"/>
      <point x="-23" y="-128"/>
      <point x="-52" y="-120" type="curve"/>
      <point x="-64" y="-133"/>
      <point x="-70" y="-148"/>
      <point x="-70" y="-165" type="curve" smooth="yes"/>
      <point x="-70" y="-199"/>
      <point x="-48" y="-218"/>
      <point x="-10" y="-218" type="curve" smooth="yes"/>
      <point x="90" y="-218"/>
      <point x="223" y="-110"/>
      <point x="332" y="50" type="curve" smooth="yes"/>
      <point x="420" y="178"/>
      <point x="447" y="263"/>
      <point x="447" y="364" type="curve" smooth="yes"/>
      <point x="447" y="420"/>
      <point x="425" y="449"/>
      <point x="391" y="449" type="curve" smooth="yes"/>
      <point x="352" y="449"/>
      <point x="326" y="425"/>
      <point x="326" y="389" type="curve" smooth="yes"/>
      <point x="326" y="352"/>
      <point x="360" y="309"/>
      <point x="360" y="253" type="curve" smooth="yes"/>
      <point x="360" y="212"/>
      <point x="317" y="113"/>
      <point x="274" y="64" type="curve"/>
      <point x="267" y="177"/>
      <point x="250" y="276"/>
      <point x="232" y="344" type="curve" smooth="yes"/>
      <point x="209" y="427"/>
      <point x="192" y="449"/>
    </contour>
    <contour>
      <point x="157" y="0" type="move" name="bottom"/>
    </contour>
    <contour>
      <point x="243" y="439" type="move" name="top"/>
    </contour>
  </outline>
</glyph>
<glyph name="z" format="1">
  <advance width="433"/>
  <unicode hex="007A"/>
  <note>
    z
  </note>
  <outline>
    <contour>
      <point x="19" y="-4" type="curve"/>
      <point x="32" y="4"/>
      <point x="71" y="20"/>
      <point x="100" y="20" type="curve" smooth="yes"/>
      <point x="154" y="20"/>
      <point x="224" y="-4"/>
      <point x="282" y="-4" type="curve" smooth="yes"/>
      <point x="333" y="-4"/>
      <point x="385" y="44"/>
      <point x="412" y="130" type="curve"/>
      <point x="412" y="138"/>
      <point x="391" y="157"/>
      <point x="385" y="160" type="curve"/>
      <point x="361" y="113"/>
      <point x="341" y="91"/>
      <point x="312" y="91" type="curve" smooth="yes"/>
      <point x="275" y="91"/>
      <point x="230" y="119"/>
      <point x="194" y="119" type="curve" smooth="yes"/>
      <point x="170" y="119"/>
      <point x="141" y="108"/>
      <point x="115" y="91" type="curve"/>
      <point x="106" y="72" type="line"/>
      <point x="378" y="348" type="line" smooth="yes"/>
      <point x="401" y="371"/>
      <point x="426" y="396"/>
      <point x="446" y="422" type="curve"/>
      <point x="446" y="432"/>
      <point x="435" y="444"/>
      <point x="420" y="451" type="curve"/>
      <point x="400" y="440"/>
      <point x="377" y="429"/>
      <point x="352" y="429" type="curve" smooth="yes"/>
      <point x="296" y="429"/>
      <point x="227" y="451"/>
      <point x="180" y="451" type="curve" smooth="yes"/>
      <point x="123" y="451"/>
      <point x="75" y="392"/>
      <point x="47" y="311" type="curve"/>
      <point x="53" y="302"/>
      <point x="67" y="291"/>
      <point x="74" y="284" type="curve"/>
      <point x="104" y="335"/>
      <point x="123" y="354"/>
      <point x="147" y="354" type="curve" smooth="yes"/>
      <point x="190" y="354"/>
      <point x="222" y="330"/>
      <point x="258" y="330" type="curve" smooth="yes"/>
      <point x="278" y="330"/>
      <point x="302" y="340"/>
      <point x="328" y="359" type="curve"/>
      <point x="326" y="371" type="line"/>
      <point x="52" y="91" type="line" smooth="yes"/>
      <point x="31" y="70"/>
      <point x="11" y="47"/>
      <point x="-10" y="22" type="curve"/>
      <point x="-8" y="11"/>
      <point x="6" y="0"/>
    </contour>
    <contour>
      <point x="176" y="0" type="move" name="bottom"/>
    </contour>
    <contour>
      <point x="219" y="220" type="move" name="center"/>
    </contour>
    <contour>
      <point x="262" y="439" type="move" name="top"/>
    </contour>
  </outline>
</glyph>
<glyph name="braceleft" format="1">
  <advance width="328"/>
  <unicode hex="007B"/>
  <note>
    braceleft
  </note>
  <outline>
    <contour>
      <point x="152" y="62"/>
      <point x="231" y="150"/>
      <point x="231" y="219" type="curve" smooth="yes"/>
      <point x="231" y="269"/>
      <point x="194" y="306"/>
      <point x="125" y="311" type="curve"/>
      <point x="211" y="317"/>
      <point x="276" y="365"/>
      <point x="276" y="455" type="curve" smooth="yes"/>
      <point x="276" y="490"/>
      <point x="268" y="525"/>
      <point x="268" y="564" type="curve" smooth="yes"/>
      <point x="268" y="652"/>
      <point x="304" y="704"/>
      <point x="386" y="707" type="curve"/>
      <point x="392" y="713"/>
      <point x="395" y="728"/>
      <point x="395" y="746" type="curve"/>
      <point x="262" y="743"/>
      <point x="150" y="675"/>
      <point x="150" y="544" type="curve" smooth="yes"/>
      <point x="150" y="496"/>
      <point x="162" y="450"/>
      <point x="162" y="416" type="curve" smooth="yes"/>
      <point x="162" y="352"/>
      <point x="115" y="335"/>
      <point x="47" y="329" type="curve"/>
      <point x="42" y="320"/>
      <point x="39" y="302"/>
      <point x="39" y="289" type="curve"/>
      <point x="92" y="285"/>
      <point x="128" y="272"/>
      <point x="128" y="234" type="curve" smooth="yes"/>
      <point x="128" y="179"/>
      <point x="43" y="95"/>
      <point x="43" y="5" type="curve" smooth="yes"/>
      <point x="43" y="-77"/>
      <point x="113" y="-125"/>
      <point x="225" y="-128" type="curve"/>
      <point x="228" y="-123"/>
      <point x="232" y="-100"/>
      <point x="231" y="-89" type="curve"/>
      <point x="171" y="-87"/>
      <point x="152" y="-58"/>
      <point x="152" y="-21" type="curve" smooth="yes"/>
    </contour>
  </outline>
</glyph>
<glyph name="bar" format="1">
  <advance width="300"/>
  <unicode hex="007C"/>
  <note>
    bar
  </note>
  <outline>
    <contour>
      <point x="129" y="-114" type="line"/>
      <point x="299" y="765" type="line"/>
      <point x="212" y="765" type="line"/>
      <point x="42" y="-114" type="line"/>
    </contour>
  </outline>
</glyph>
<glyph name="braceright" format="1">
  <advance width="328"/>
  <unicode hex="007D"/>
  <note>
    braceright
  </note>
  <outline>
    <contour>
      <point x="-32" y="-128" type="curve"/>
      <point x="101" y="-125"/>
      <point x="213" y="-57"/>
      <point x="213" y="74" type="curve" smooth="yes"/>
      <point x="213" y="122"/>
      <point x="201" y="168"/>
      <point x="201" y="202" type="curve" smooth="yes"/>
      <point x="201" y="266"/>
      <point x="248" y="283"/>
      <point x="316" y="289" type="curve"/>
      <point x="321" y="298"/>
      <point x="324" y="316"/>
      <point x="324" y="329" type="curve"/>
      <point x="271" y="333"/>
      <point x="235" y="346"/>
      <point x="235" y="384" type="curve" smooth="yes"/>
      <point x="235" y="439"/>
      <point x="320" y="523"/>
      <point x="320" y="613" type="curve" smooth="yes"/>
      <point x="320" y="695"/>
      <point x="250" y="743"/>
      <point x="138" y="746" type="curve"/>
      <point x="135" y="741"/>
      <point x="131" y="718"/>
      <point x="132" y="707" type="curve"/>
      <point x="192" y="705"/>
      <point x="211" y="676"/>
      <point x="211" y="639" type="curve" smooth="yes"/>
      <point x="211" y="556"/>
      <point x="132" y="468"/>
      <point x="132" y="399" type="curve" smooth="yes"/>
      <point x="132" y="349"/>
      <point x="169" y="312"/>
      <point x="238" y="307" type="curve"/>
      <point x="152" y="301"/>
      <point x="87" y="253"/>
      <point x="87" y="163" type="curve" smooth="yes"/>
      <point x="87" y="128"/>
      <point x="95" y="93"/>
      <point x="95" y="54" type="curve" smooth="yes"/>
      <point x="95" y="-34"/>
      <point x="59" y="-86"/>
      <point x="-23" y="-89" type="curve"/>
      <point x="-29" y="-95"/>
      <point x="-32" y="-110"/>
    </contour>
  </outline>
</glyph>
<glyph name="asciitilde" format="1">
  <advance width="590"/>
  <unicode hex="007E"/>
  <note>
    asciitilde
  </note>
  <outline>
    <contour>
      <point x="68" y="188" type="line"/>
      <point x="106" y="224"/>
      <point x="142" y="244"/>
      <point x="185" y="244" type="curve" smooth="yes"/>
      <point x="261" y="244"/>
      <point x="306" y="181"/>
      <point x="388" y="181" type="curve" smooth="yes"/>
      <point x="448" y="181"/>
      <point x="514" y="223"/>
      <point x="552" y="279" type="curve"/>
      <point x="533" y="304" type="line"/>
      <point x="495" y="268"/>
      <point x="459" y="248"/>
      <point x="416" y="248" type="curve" smooth="yes"/>
      <point x="340" y="248"/>
      <point x="295" y="311"/>
      <point x="213" y="311" type="curve" smooth="yes"/>
      <point x="153" y="311"/>
      <point x="87" y="269"/>
      <point x="49" y="213" type="curve"/>
    </contour>
  </outline>
</glyph>
<glyph name="exclamdown" format="1">
  <advance width="197"/>
  <unicode hex="00A1"/>
  <note>
    exclamdown
  </note>
  <outline>
    <contour>
      <point x="104" y="243" type="curve" smooth="yes"/>
      <point x="91" y="243"/>
      <point x="83" y="234"/>
      <point x="75" y="212" type="curve" smooth="yes"/>
      <point x="44" y="128"/>
      <point x="-26" y="-95"/>
      <point x="-35" y="-142" type="curve" smooth="yes"/>
      <point x="-43" y="-183"/>
      <point x="-18" y="-209"/>
      <point x="15" y="-209" type="curve" smooth="yes"/>
      <point x="52" y="-209"/>
      <point x="85" y="-183"/>
      <point x="93" y="-142" type="curve" smooth="yes"/>
      <point x="102" y="-95"/>
      <point x="118" y="127"/>
      <point x="122" y="213" type="curve" smooth="yes"/>
      <point x="123" y="234"/>
      <point x="117" y="243"/>
    </contour>
    <contour>
      <point x="140" y="444" type="curve" smooth="yes"/>
      <point x="97" y="444"/>
      <point x="57" y="399"/>
      <point x="57" y="352" type="curve" smooth="yes"/>
      <point x="57" y="319"/>
      <point x="80" y="294"/>
      <point x="112" y="294" type="curve" smooth="yes"/>
      <point x="165" y="294"/>
      <point x="197" y="343"/>
      <point x="197" y="385" type="curve" smooth="yes"/>
      <point x="197" y="416"/>
      <point x="179" y="444"/>
    </contour>
  </outline>
</glyph>
<glyph name="cent" format="1">
  <advance width="360"/>
  <unicode hex="00A2"/>
  <note>
    cent
  </note>
  <outline>
    <contour>
      <point x="301" y="539" type="line"/>
      <point x="77" y="-100" type="line"/>
      <point x="137" y="-100" type="line"/>
      <point x="361" y="539" type="line"/>
    </contour>
    <contour>
      <point x="264" y="447" type="curve" smooth="yes"/>
      <point x="127" y="447"/>
      <point x="17" y="292"/>
      <point x="17" y="149" type="curve" smooth="yes"/>
      <point x="17" y="55"/>
      <point x="75" y="-8"/>
      <point x="154" y="-8" type="curve" smooth="yes"/>
      <point x="224" y="-8"/>
      <point x="284" y="44"/>
      <point x="326" y="104" type="curve"/>
      <point x="326" y="113"/>
      <point x="314" y="142"/>
      <point x="308" y="142" type="curve"/>
      <point x="263" y="95"/>
      <point x="233" y="79"/>
      <point x="202" y="79" type="curve" smooth="yes"/>
      <point x="173" y="79"/>
      <point x="141" y="103"/>
      <point x="141" y="149" type="curve" smooth="yes"/>
      <point x="141" y="271"/>
      <point x="202" y="394"/>
      <point x="250" y="394" type="curve" smooth="yes"/>
      <point x="285" y="394"/>
      <point x="270" y="310"/>
      <point x="324" y="310" type="curve" smooth="yes"/>
      <point x="351" y="310"/>
      <point x="368" y="336"/>
      <point x="368" y="367" type="curve" smooth="yes"/>
      <point x="368" y="422"/>
      <point x="323" y="447"/>
    </contour>
  </outline>
</glyph>
<glyph name="sterling" format="1">
  <advance width="507"/>
  <unicode hex="00A3"/>
  <note>
    sterling
  </note>
  <outline>
    <contour>
      <point x="56" y="360" type="line"/>
      <point x="44" y="300" type="line"/>
      <point x="406" y="300" type="line"/>
      <point x="418" y="360" type="line"/>
    </contour>
    <contour>
      <point x="417" y="665" type="curve" smooth="yes"/>
      <point x="265" y="665"/>
      <point x="144" y="558"/>
      <point x="144" y="416" type="curve" smooth="yes"/>
      <point x="144" y="364"/>
      <point x="144" y="341"/>
      <point x="144" y="317" type="curve" smooth="yes"/>
      <point x="144" y="164"/>
      <point x="141" y="101"/>
      <point x="18" y="20" type="curve"/>
      <point x="16" y="12"/>
      <point x="21" y="-4"/>
      <point x="40" y="-8" type="curve"/>
      <point x="67" y="5"/>
      <point x="107" y="26"/>
      <point x="149" y="26" type="curve" smooth="yes"/>
      <point x="190" y="26"/>
      <point x="271" y="-8"/>
      <point x="324" y="-8" type="curve" smooth="yes"/>
      <point x="382" y="-8"/>
      <point x="463" y="72"/>
      <point x="474" y="132" type="curve"/>
      <point x="473" y="141"/>
      <point x="464" y="149"/>
      <point x="457" y="149" type="curve"/>
      <point x="425" y="109"/>
      <point x="405" y="77"/>
      <point x="362" y="77" type="curve" smooth="yes"/>
      <point x="339" y="77"/>
      <point x="269" y="107"/>
      <point x="230" y="107" type="curve" smooth="yes"/>
      <point x="202" y="107"/>
      <point x="185" y="104"/>
      <point x="171" y="98" type="curve"/>
      <point x="239" y="176"/>
      <point x="258" y="244"/>
      <point x="258" y="345" type="curve" smooth="yes"/>
      <point x="258" y="382"/>
      <point x="256" y="421"/>
      <point x="256" y="454" type="curve" smooth="yes"/>
      <point x="256" y="544"/>
      <point x="287" y="616"/>
      <point x="372" y="616" type="curve" smooth="yes"/>
      <point x="441" y="616"/>
      <point x="427" y="538"/>
      <point x="487" y="538" type="curve" smooth="yes"/>
      <point x="511" y="538"/>
      <point x="537" y="563"/>
      <point x="537" y="595" type="curve" smooth="yes"/>
      <point x="537" y="640"/>
      <point x="499" y="665"/>
    </contour>
  </outline>
</glyph>
<glyph name="currency" format="1">
  <advance width="469"/>
  <unicode hex="00A4"/>
  <note>
    currency
  </note>
  <outline>
    <contour>
      <point x="263" y="164" type="curve" smooth="yes"/>
      <point x="206" y="164"/>
      <point x="178" y="221"/>
      <point x="178" y="334" type="curve" smooth="yes"/>
      <point x="178" y="398"/>
      <point x="196" y="452"/>
      <point x="243" y="452" type="curve" smooth="yes"/>
      <point x="301" y="452"/>
      <point x="330" y="394"/>
      <point x="330" y="279" type="curve" smooth="yes"/>
      <point x="330" y="218"/>
      <point x="309" y="164"/>
    </contour>
    <contour>
      <point x="368" y="462" type="line"/>
      <point x="334" y="485"/>
      <point x="296" y="497"/>
      <point x="254" y="497" type="curve" smooth="yes"/>
      <point x="214" y="497"/>
      <point x="179" y="487"/>
      <point x="148" y="467" type="curve"/>
      <point x="99" y="520" type="line"/>
      <point x="80" y="515"/>
      <point x="41" y="486"/>
      <point x="51" y="476" type="curve" smooth="yes"/>
      <point x="100" y="424" type="line"/>
      <point x="72" y="389"/>
      <point x="59" y="351"/>
      <point x="59" y="308" type="curve" smooth="yes"/>
      <point x="59" y="271"/>
      <point x="69" y="236"/>
      <point x="91" y="204" type="curve"/>
      <point x="40" y="156" type="line"/>
      <point x="44" y="138"/>
      <point x="74" y="98"/>
      <point x="84" y="108" type="curve" smooth="yes"/>
      <point x="136" y="157" type="line"/>
      <point x="170" y="132"/>
      <point x="210" y="119"/>
      <point x="254" y="119" type="curve" smooth="yes"/>
      <point x="292" y="119"/>
      <point x="327" y="129"/>
      <point x="359" y="148" type="curve"/>
      <point x="405" y="98" type="line"/>
      <point x="423" y="103"/>
      <point x="463" y="132"/>
      <point x="453" y="142" type="curve" smooth="yes"/>
      <point x="408" y="190" type="line"/>
      <point x="435" y="223"/>
      <point x="449" y="263"/>
      <point x="449" y="308" type="curve" smooth="yes"/>
      <point x="449" y="347"/>
      <point x="437" y="383"/>
      <point x="414" y="416" type="curve"/>
      <point x="463" y="462" type="line"/>
      <point x="458" y="480"/>
      <point x="429" y="520"/>
      <point x="419" y="510" type="curve" smooth="yes"/>
    </contour>
  </outline>
</glyph>
<glyph name="brokenbar" format="1">
  <advance width="300"/>
  <unicode hex="00A6"/>
  <note>
    brokenbar
  </note>
  <outline>
    <contour>
      <point x="201" y="261" type="line"/>
      <point x="114" y="261" type="line"/>
      <point x="42" y="-114" type="line"/>
      <point x="129" y="-114" type="line"/>
    </contour>
    <contour>
      <point x="139" y="390" type="line"/>
      <point x="226" y="390" type="line"/>
      <point x="299" y="765" type="line"/>
      <point x="212" y="765" type="line"/>
    </contour>
  </outline>
</glyph>
